<svg width="44" height="49" viewBox="0 0 44 49" fill="none" xmlns="http://www.w3.org/2000/svg">
<g id="Group 1000002062">
<g id="Group 1000002059">
<path id="Vector" d="M21.0033 17.7433C20.8386 17.7433 20.6807 17.8088 20.5643 17.9252C20.4479 18.0416 20.3825 18.1995 20.3825 18.3641V23.8478L15.4058 28.8348C15.3466 28.8918 15.2996 28.9601 15.2674 29.0356C15.2353 29.1112 15.2188 29.1925 15.2188 29.2746C15.2188 29.3567 15.2353 29.4379 15.2674 29.5135C15.2996 29.5891 15.3466 29.6574 15.4058 29.7143C15.5218 29.828 15.6778 29.8918 15.8403 29.8918C16.0028 29.8918 16.1588 29.828 16.2749 29.7143L21.4482 24.541C21.5611 24.4204 21.6239 24.2614 21.6241 24.0961V18.3641C21.6241 18.1995 21.5586 18.0416 21.4422 17.9252C21.3258 17.8088 21.1679 17.7433 21.0033 17.7433Z" fill="#4099D4"/>
<path id="Vector_2" d="M43.0758 43.1752C42.6592 41.4477 41.7941 39.8606 40.5678 38.5744C39.3416 37.2882 37.7976 36.3484 36.0919 35.8499C36.8125 35.416 37.4225 34.8208 37.8739 34.111C38.3253 33.4012 38.6056 32.5963 38.6929 31.7597C38.7802 30.9231 38.672 30.0777 38.3768 29.2901C38.0816 28.5024 37.6076 27.7941 36.992 27.2208C37.1953 26.1984 37.3027 25.1593 37.3128 24.1169C37.3321 20.7046 36.2858 17.3713 34.3199 14.5821C32.354 11.793 29.5665 9.687 26.3463 8.55802C23.1261 7.42905 19.6338 7.33339 16.3567 8.28439C13.0795 9.23538 10.1809 11.1856 8.06522 13.863C5.94958 16.5403 4.72241 19.8113 4.55492 23.2196C4.38743 26.6278 5.28797 30.0034 7.13091 32.8753C8.97386 35.7472 11.6673 37.9722 14.8354 39.24C18.0036 40.5077 21.4884 40.7549 24.8038 39.9471C24.1604 40.9147 23.6879 41.9856 23.407 43.1131C23.3682 43.2278 23.3632 43.3511 23.3925 43.4685C23.4219 43.5859 23.4844 43.6924 23.5725 43.7753C24.7888 45.1419 26.2805 46.2357 27.9496 46.9846C29.6187 47.7335 31.4275 48.1207 33.2569 48.1207C35.0864 48.1207 36.8951 47.7335 38.5642 46.9846C40.2333 46.2357 41.725 45.1419 42.9413 43.7753C43.0148 43.6962 43.066 43.5989 43.0896 43.4935C43.1133 43.388 43.1085 43.2782 43.0758 43.1752ZM37.4783 31.1939C37.4674 32.3082 37.0186 33.3735 36.2287 34.1596C35.4387 34.9456 34.3713 35.3892 33.2569 35.3946C32.4188 35.3905 31.6007 35.1383 30.9058 34.6697C30.2109 34.2011 29.6704 33.5371 29.3525 32.7616C29.0346 31.9861 28.9536 31.1339 29.1196 30.3123C29.2856 29.4908 29.6912 28.7369 30.2853 28.1457C30.8794 27.5545 31.6353 27.1525 32.4576 26.9905C33.2799 26.8285 34.1318 26.9137 34.9057 27.2354C35.6797 27.5571 36.341 28.1008 36.8062 28.7979C37.2714 29.4951 37.5197 30.3144 37.5197 31.1525L37.4783 31.1939ZM21.6274 39.1401V35.8913C21.6274 35.7266 21.562 35.5687 21.4456 35.4523C21.3291 35.3359 21.1712 35.2705 21.0066 35.2705C20.842 35.2705 20.6841 35.3359 20.5676 35.4523C20.4512 35.5687 20.3858 35.7266 20.3858 35.8913V39.1401C16.828 38.9947 13.4385 37.5861 10.8256 35.167L13.1122 32.8804C13.1713 32.8235 13.2184 32.7552 13.2505 32.6796C13.2827 32.6041 13.2992 32.5228 13.2992 32.4407C13.2992 32.3586 13.2827 32.2773 13.2505 32.2018C13.2184 32.1262 13.1713 32.0579 13.1122 32.001C12.9944 31.8866 12.8367 31.8226 12.6725 31.8226C12.5083 31.8226 12.3505 31.8866 12.2327 32.001L9.94614 34.2875C7.53235 31.6722 6.1277 28.2834 5.98342 24.7273H9.22189C9.38653 24.7273 9.54443 24.6619 9.66085 24.5455C9.77727 24.4291 9.84268 24.2712 9.84268 24.1065C9.84268 23.9419 9.77727 23.784 9.66085 23.6676C9.54443 23.5511 9.38653 23.4857 9.22189 23.4857H5.98342C6.12949 19.9301 7.5339 16.5419 9.94614 13.9255L12.2327 16.2121C12.2897 16.2713 12.358 16.3183 12.4335 16.3504C12.5091 16.3826 12.5904 16.3991 12.6725 16.3991C12.7546 16.3991 12.8358 16.3826 12.9114 16.3504C12.9869 16.3183 13.0552 16.2713 13.1122 16.2121C13.1713 16.1552 13.2184 16.0869 13.2505 16.0113C13.2827 15.9358 13.2992 15.8545 13.2992 15.7724C13.2992 15.6903 13.2827 15.609 13.2505 15.5335C13.2184 15.4579 13.1713 15.3896 13.1122 15.3327L10.8256 13.0461C13.4395 10.63 16.8291 9.22494 20.3858 9.08335V12.3218C20.3858 12.4865 20.4512 12.6444 20.5676 12.7608C20.6841 12.8772 20.842 12.9426 21.0066 12.9426C21.1712 12.9426 21.3291 12.8772 21.4456 12.7608C21.562 12.6444 21.6274 12.4865 21.6274 12.3218V9.08335C25.1845 9.22313 28.5747 10.6284 31.1876 13.0461L28.901 15.3327C28.7866 15.4505 28.7226 15.6082 28.7226 15.7724C28.7226 15.9366 28.7866 16.0943 28.901 16.2121C28.958 16.2713 29.0263 16.3183 29.1018 16.3504C29.1774 16.3826 29.2586 16.3991 29.3407 16.3991C29.4229 16.3991 29.5041 16.3826 29.5797 16.3504C29.6552 16.3183 29.7235 16.2713 29.7805 16.2121L32.0671 13.9255C34.4877 16.5374 35.8966 19.9275 36.0401 23.4857H32.7913C32.6267 23.4857 32.4688 23.5511 32.3524 23.6676C32.2359 23.784 32.1705 23.9419 32.1705 24.1065C32.1705 24.2712 32.2359 24.4291 32.3524 24.5455C32.4688 24.6619 32.6267 24.7273 32.7913 24.7273H36.0298C36.011 25.2925 35.9557 25.8558 35.8642 26.4138C35.0628 25.9585 34.158 25.7162 33.2362 25.7103C32.0432 25.7091 30.8825 26.0977 29.9308 26.817C28.979 27.5363 28.2883 28.5468 27.9638 29.6948C27.6394 30.8429 27.6988 32.0655 28.1332 33.1765C28.5676 34.2876 29.3531 35.2264 30.3702 35.8499C28.8219 36.2994 27.4032 37.1117 26.2316 38.2192C24.7558 38.7698 23.2014 39.0807 21.6274 39.1401ZM33.2362 46.8586C31.6327 46.8575 30.0464 46.5283 28.5749 45.8913C27.1034 45.2543 25.7778 44.3229 24.6796 43.1545C25.2011 41.2916 26.3175 39.6503 27.8586 38.4809C29.3997 37.3115 31.281 36.6782 33.2155 36.6776C35.1501 36.6782 37.0313 37.3115 38.5725 38.4809C40.1136 39.6503 41.23 41.2916 41.7514 43.1545C40.6581 44.3179 39.3391 45.2463 37.8751 45.8831C36.4111 46.52 34.8327 46.8519 33.2362 46.8586Z" fill="#4099D4"/>
<path id="Vector_3" d="M18.4375 41.0645C18.3799 41.0066 18.3113 40.9607 18.2359 40.9294C18.1604 40.898 18.0795 40.8819 17.9978 40.8819C17.9161 40.8819 17.8352 40.898 17.7598 40.9294C17.6843 40.9607 17.6158 41.0066 17.5581 41.0645C17.4437 41.1823 17.3797 41.34 17.3797 41.5042C17.3797 41.6684 17.4437 41.8262 17.5581 41.944L19.4308 43.8063C14.4873 43.4045 9.87478 41.1613 6.50633 37.5208C3.13787 33.8802 1.25899 29.1077 1.24159 24.1479C1.24159 23.9832 1.17618 23.8253 1.05976 23.7089C0.943339 23.5925 0.785438 23.5271 0.620793 23.5271C0.456149 23.5271 0.298247 23.5925 0.181826 23.7089C0.0654043 23.8253 0 23.9832 0 24.1479C0.0153893 29.4554 2.03762 34.5607 5.66083 38.4392C9.28404 42.3176 14.2401 44.6822 19.5343 45.0583L17.5581 47.0345C17.4437 47.1522 17.3797 47.31 17.3797 47.4742C17.3797 47.6384 17.4437 47.7961 17.5581 47.9139C17.6161 47.9731 17.6853 48.02 17.7617 48.052C17.8381 48.084 17.9202 48.1004 18.003 48.1002C18.0843 48.1002 18.1647 48.0836 18.2394 48.0516C18.3141 48.0196 18.3815 47.9728 18.4375 47.9139L21.3449 45.0065C21.4209 44.9544 21.4845 44.8862 21.5312 44.8068C21.578 44.7275 21.6069 44.6388 21.6158 44.5471C21.6246 44.4554 21.6133 44.3629 21.5826 44.276C21.5519 44.1892 21.5026 44.1101 21.438 44.0443L18.4375 41.0645Z" fill="#4099D4"/>
<path id="Vector_4" d="M20.5599 4.15839L23.5397 7.13819C23.5967 7.19734 23.665 7.24439 23.7405 7.27652C23.8161 7.30866 23.8973 7.32522 23.9794 7.32522C24.0616 7.32522 24.1428 7.30866 24.2184 7.27652C24.2939 7.24439 24.3622 7.19734 24.4192 7.13819C24.478 7.08214 24.5249 7.01473 24.5569 6.94003C24.5889 6.86533 24.6054 6.78491 24.6054 6.70364C24.6054 6.62237 24.5889 6.54195 24.5569 6.46725C24.5249 6.39255 24.478 6.32513 24.4192 6.26908L22.5568 4.39636C27.5031 4.79341 32.1195 7.03484 35.4906 10.6761C38.8616 14.3174 40.7411 19.0926 40.7564 24.0548C40.7564 24.2194 40.8218 24.3773 40.9382 24.4938C41.0546 24.6102 41.2125 24.6756 41.3772 24.6756C41.5418 24.6756 41.6997 24.6102 41.8161 24.4938C41.9326 24.3773 41.998 24.2194 41.998 24.0548C41.9774 18.7481 39.9517 13.6453 36.3271 9.76934C32.7024 5.89335 27.7467 3.53061 22.4533 3.15477L24.4295 1.17858C24.4887 1.12163 24.5357 1.05333 24.5679 0.977778C24.6 0.902221 24.6166 0.820959 24.6166 0.738853C24.6166 0.656747 24.6 0.575484 24.5679 0.499928C24.5357 0.424372 24.4887 0.356075 24.4295 0.299124C24.3117 0.184721 24.154 0.120728 23.9898 0.120728C23.8256 0.120728 23.6679 0.184721 23.5501 0.299124L20.5703 3.32032C20.4893 3.40924 20.4386 3.52153 20.4254 3.64106C20.4207 3.68577 20.4207 3.73085 20.4254 3.77556C20.4376 3.91977 20.4998 4.05518 20.6013 4.15839H20.5599Z" fill="#4099D4"/>
</g>
</g>
</svg>
