<svg width="27" height="28" viewBox="0 0 27 28" fill="none" xmlns="http://www.w3.org/2000/svg">
<rect y="0.120728" width="27" height="27" rx="1.18655" fill="url(#paint0_linear_2214_6686)"/>
<path d="M11.2531 13.6554C11.2531 12.4117 12.2607 11.4032 13.5041 11.4032C14.7474 11.4032 15.7556 12.4117 15.7556 13.6554C15.7556 14.8991 14.7474 15.9075 13.5041 15.9075C12.2607 15.9075 11.2531 14.8991 11.2531 13.6554ZM10.0359 13.6554C10.0359 15.5714 11.5886 17.1245 13.5041 17.1245C15.4195 17.1245 16.9722 15.5714 16.9722 13.6554C16.9722 11.7394 15.4195 10.1862 13.5041 10.1862C11.5886 10.1862 10.0359 11.7394 10.0359 13.6554ZM16.299 10.0487C16.2989 10.209 16.3464 10.3658 16.4354 10.4991C16.5244 10.6325 16.6509 10.7365 16.799 10.7979C16.9471 10.8593 17.11 10.8754 17.2673 10.8442C17.4245 10.813 17.5689 10.7358 17.6823 10.6225C17.7957 10.5092 17.873 10.3647 17.9043 10.2075C17.9357 10.0502 17.9197 9.88722 17.8584 9.73905C17.7971 9.59089 17.6933 9.46423 17.56 9.37509C17.4268 9.28596 17.2701 9.23834 17.1098 9.23828H17.1095C16.8946 9.23838 16.6886 9.32378 16.5366 9.47573C16.3846 9.62768 16.2992 9.83375 16.299 10.0487V10.0487ZM10.7754 19.1546C10.1169 19.1246 9.75901 19.0149 9.52116 18.9222C9.20583 18.7994 8.98084 18.6531 8.74428 18.4168C8.50773 18.1805 8.3613 17.9557 8.23908 17.6403C8.14636 17.4024 8.03667 17.0443 8.00674 16.3856C7.974 15.6735 7.96746 15.4596 7.96746 13.6554C7.96746 11.8512 7.97454 11.6379 8.00674 10.9252C8.03673 10.2665 8.14722 9.90907 8.23908 9.67056C8.36184 9.35513 8.50805 9.13008 8.74428 8.89345C8.98051 8.65683 9.20529 8.51036 9.52116 8.38811C9.7589 8.29536 10.1169 8.18564 10.7754 8.1557C11.4873 8.12295 11.7012 8.11641 13.5041 8.11641C15.3069 8.11641 15.521 8.12349 16.2335 8.1557C16.892 8.1857 17.2493 8.29622 17.4878 8.38811C17.8031 8.51036 18.0281 8.65716 18.2646 8.89345C18.5012 9.12975 18.6471 9.35513 18.7698 9.67056C18.8626 9.90837 18.9722 10.2665 19.0022 10.9252C19.0349 11.6379 19.0415 11.8512 19.0415 13.6554C19.0415 15.4596 19.0349 15.6729 19.0022 16.3856C18.9722 17.0443 18.862 17.4023 18.7698 17.6403C18.6471 17.9557 18.5009 18.1807 18.2646 18.4168C18.0284 18.6529 17.8031 18.7994 17.4878 18.9222C17.25 19.0149 16.892 19.1246 16.2335 19.1546C15.5216 19.1873 15.3077 19.1939 13.5041 19.1939C11.7004 19.1939 11.4871 19.1873 10.7754 19.1546V19.1546ZM10.7195 6.94027C10.0005 6.97302 9.50916 7.08706 9.08009 7.25407C8.63573 7.42654 8.25956 7.65792 7.88365 8.03333C7.50775 8.40875 7.27703 8.78563 7.10461 9.23012C6.93765 9.65958 6.82365 10.1508 6.7909 10.87C6.75762 11.5903 6.75 11.8206 6.75 13.6554C6.75 15.4901 6.75762 15.7204 6.7909 16.4407C6.82365 17.16 6.93765 17.6511 7.10461 18.0806C7.27703 18.5248 7.5078 18.9021 7.88365 19.2774C8.2595 19.6526 8.63573 19.8837 9.08009 20.0566C9.50998 20.2236 10.0005 20.3377 10.7195 20.3704C11.44 20.4032 11.6699 20.4114 13.5041 20.4114C15.3382 20.4114 15.5685 20.4037 16.2886 20.3704C17.0077 20.3377 17.4987 20.2236 17.928 20.0566C18.3721 19.8837 18.7485 19.6528 19.1244 19.2774C19.5004 18.902 19.7306 18.5248 19.9035 18.0806C20.0704 17.6511 20.185 17.1599 20.2172 16.4407C20.2499 15.7198 20.2576 15.4901 20.2576 13.6554C20.2576 11.8206 20.2499 11.5903 20.2172 10.87C20.1845 10.1507 20.0704 9.65931 19.9035 9.23012C19.7306 8.7859 19.4998 8.40935 19.1244 8.03333C18.7491 7.65732 18.3721 7.42654 17.9285 7.25407C17.4987 7.08706 17.0076 6.97248 16.2892 6.94027C15.569 6.90751 15.3388 6.89935 13.5046 6.89935C11.6704 6.89935 11.44 6.90697 10.7195 6.94027Z" fill="white"/>
<defs>
<linearGradient id="paint0_linear_2214_6686" x1="26.4811" y1="27.1207" x2="-0.518939" y2="0.120727" gradientUnits="userSpaceOnUse">
<stop stop-color="#FBE18A"/>
<stop offset="0.21" stop-color="#FCBB45"/>
<stop offset="0.38" stop-color="#F75274"/>
<stop offset="0.52" stop-color="#D53692"/>
<stop offset="0.74" stop-color="#8F39CE"/>
<stop offset="1" stop-color="#5B4FE9"/>
</linearGradient>
</defs>
</svg>
