<svg width="27" height="28" viewBox="0 0 27 28" fill="none" xmlns="http://www.w3.org/2000/svg">
<rect y="0.120728" width="27" height="27" rx="1.18655" fill="#006699"/>
<path d="M10.3949 19.0918V11.7983H7.97284V19.0918H10.3952H10.3949ZM9.18439 10.8027C10.0288 10.8027 10.5546 10.2427 10.5546 9.54275C10.5388 8.82689 10.0288 8.28247 9.20045 8.28247C8.37149 8.28247 7.83008 8.82689 7.83008 9.54269C7.83008 10.2426 8.35562 10.8026 9.16852 10.8026H9.1842L9.18439 10.8027ZM11.7356 19.0918H14.1575V15.0192C14.1575 14.8016 14.1733 14.5833 14.2373 14.4278C14.4123 13.9921 14.8108 13.5411 15.4801 13.5411C16.3563 13.5411 16.707 14.2099 16.707 15.1904V19.0918H19.1288V14.91C19.1288 12.6698 17.9341 11.6273 16.3406 11.6273C15.0341 11.6273 14.4603 12.3582 14.1416 12.856H14.1577V11.7986H11.7357C11.7673 12.4828 11.7355 19.0921 11.7355 19.0921L11.7356 19.0918Z" fill="white"/>
</svg>
