<svg width="16" height="17" viewBox="0 0 16 17" fill="none" xmlns="http://www.w3.org/2000/svg">
<g id="Frame">
<path id="Vector" d="M12.0213 11.1994L14.8767 14.054L13.9333 14.9974L11.0787 12.142C10.0165 12.9935 8.69532 13.4566 7.33398 13.4547C4.02198 13.4547 1.33398 10.7667 1.33398 7.45471C1.33398 4.14271 4.02198 1.45471 7.33398 1.45471C10.646 1.45471 13.334 4.14271 13.334 7.45471C13.3359 8.81605 12.8728 10.1372 12.0213 11.1994ZM10.684 10.7047C11.5301 9.83464 12.0026 8.66833 12.0007 7.45471C12.0007 4.87605 9.91198 2.78805 7.33398 2.78805C4.75532 2.78805 2.66732 4.87605 2.66732 7.45471C2.66732 10.0327 4.75532 12.1214 7.33398 12.1214C8.5476 12.1233 9.71391 11.6508 10.584 10.8047L10.684 10.7047Z" fill="#6F2B8C"/>
</g>
</svg>
