<svg width="27" height="28" viewBox="0 0 27 28" fill="none" xmlns="http://www.w3.org/2000/svg">
<rect y="0.120728" width="27" height="27" rx="1.18655" fill="#33CCFF"/>
<path d="M20.201 9.34606C19.7552 9.53809 19.2866 9.67181 18.8066 9.74391C19.031 9.70541 19.3612 9.30114 19.4926 9.13751C19.6923 8.89068 19.8444 8.60891 19.9414 8.3065C19.9414 8.28404 19.9638 8.25196 19.9414 8.23592C19.9301 8.22974 19.9174 8.2265 19.9045 8.2265C19.8916 8.2265 19.879 8.22974 19.8677 8.23592C19.3465 8.5184 18.7918 8.734 18.2167 8.87762C18.1967 8.88375 18.1754 8.8843 18.155 8.87921C18.1347 8.87412 18.1161 8.86359 18.1013 8.84874C18.0566 8.79539 18.0084 8.74502 17.9571 8.69794C17.7225 8.48761 17.4564 8.31546 17.1685 8.18779C16.7798 8.02819 16.36 7.95907 15.9407 7.98565C15.5339 8.01137 15.1367 8.12058 14.7739 8.3065C14.4166 8.50252 14.1025 8.76881 13.8506 9.08938C13.5857 9.41933 13.3944 9.80224 13.2897 10.2124C13.2033 10.6025 13.1935 11.0057 13.2608 11.3995C13.2608 11.4669 13.2608 11.4765 13.2031 11.4669C10.9175 11.13 9.04216 10.3182 7.50986 8.57602C7.44254 8.49901 7.40728 8.49901 7.35278 8.57602C6.68601 9.58991 7.00978 11.1942 7.84325 11.9867C7.95545 12.0925 8.07085 12.1952 8.19266 12.2915C7.81052 12.2643 7.43772 12.1607 7.09633 11.9867C7.03222 11.9449 6.99696 11.9674 6.99375 12.0444C6.98466 12.1512 6.98466 12.2585 6.99375 12.3653C7.06064 12.8769 7.26209 13.3616 7.5775 13.7697C7.89291 14.1778 8.31097 14.4948 8.78892 14.6882C8.90543 14.7382 9.02683 14.7758 9.15116 14.8005C8.79739 14.8702 8.43455 14.8811 8.07726 14.8326C8.00033 14.8166 7.97147 14.8583 8.00033 14.9321C8.47156 16.2155 9.49416 16.6069 10.2443 16.8251C10.3469 16.8411 10.4494 16.8411 10.5648 16.8668C10.5648 16.8668 10.5648 16.8668 10.5456 16.886C10.3244 17.2903 9.43005 17.563 9.01972 17.7042C8.27078 17.9735 7.47226 18.0764 6.6796 18.0058C6.55458 17.9866 6.52572 17.9898 6.49367 18.0058C6.46161 18.0219 6.49367 18.0572 6.52893 18.0892C6.68921 18.1951 6.8495 18.2882 7.01619 18.378C7.51244 18.6489 8.03708 18.8641 8.58055 19.0197C11.3951 19.7962 14.5623 19.225 16.6748 17.1235C18.3354 15.4743 18.9188 13.1995 18.9188 10.9214C18.9188 10.8348 19.0246 10.7835 19.0855 10.7386C19.5056 10.4109 19.876 10.024 20.185 9.58991C20.2385 9.5252 20.266 9.44281 20.262 9.35889C20.262 9.31077 20.262 9.32039 20.201 9.34606Z" fill="white"/>
</svg>
