<svg width="72" height="73" viewBox="0 0 72 73" fill="none" xmlns="http://www.w3.org/2000/svg">
<g clip-path="url(#clip0_1197_6116)">
<path d="M26.684 52.5641L8.41694 36.9828C5.50983 34.503 6.25198 29.7307 9.75608 28.3939L31.7622 19.9983L53.7684 11.6027C57.2725 10.2659 60.9075 13.3677 60.3105 17.1843L56.5709 41.1582L52.8312 65.1321C52.2372 68.9481 47.857 70.6191 44.9499 68.1393L26.6829 52.558L26.684 52.5641Z" fill="#6F2B8C"/>
<path d="M33.3928 31.3542C34.7187 30.2983 36.3158 29.6382 38.0003 29.45V39.395H47.9453C47.7571 41.0795 47.097 42.6766 46.0411 44.0025C44.9852 45.3284 43.5763 46.3293 41.9767 46.8898C40.3771 47.4504 38.6517 47.5478 36.9991 47.171C35.3465 46.7942 33.8339 45.9585 32.6354 44.7599C31.4368 43.5614 30.601 42.0488 30.2242 40.3962C29.8474 38.7436 29.9449 37.0182 30.5055 35.4186C31.066 33.8189 32.0669 32.4101 33.3928 31.3542Z" stroke="white" stroke-width="2" stroke-linecap="round" stroke-linejoin="round"/>
<path d="M42 35.395H47.488C47.0391 34.1296 46.3135 32.9803 45.3641 32.0309C44.4147 31.0815 43.2654 30.3559 42 29.907V35.395Z" stroke="white" stroke-width="2" stroke-linecap="round" stroke-linejoin="round"/>
</g>
<defs>
<clipPath id="clip0_1197_6116">
<rect width="72" height="72" fill="white" transform="translate(0 0.515869)"/>
</clipPath>
</defs>
</svg>
