<svg width="24" height="24" viewBox="0 0 24 24" fill="none" xmlns="http://www.w3.org/2000/svg">
<path d="M12 22.4995C17.799 22.4995 22.5 17.7985 22.5 11.9995C22.5 6.20052 17.799 1.49951 12 1.49951C6.20101 1.49951 1.5 6.20052 1.5 11.9995C1.5 17.7985 6.20101 22.4995 12 22.4995Z" fill="white"/>
<path d="M15.9103 15.2107L16.3767 12.2471H13.4589V10.3247C13.4589 9.51379 13.8657 8.72281 15.1726 8.72281H16.5V6.19975C16.5 6.19975 15.2959 5.99951 14.1452 5.99951C11.7411 5.99951 10.1712 7.41921 10.1712 9.98834V12.2471H7.5V15.2107H10.1712V22.3754C10.7075 22.4575 11.2562 22.4995 11.8151 22.4995C12.374 22.4995 12.9226 22.4575 13.4589 22.3754V15.2107H15.9103Z" fill="#6F2B8C"/>
</svg>
