<svg width="24" height="24" viewBox="0 0 24 24" fill="none" xmlns="http://www.w3.org/2000/svg">
<g clip-path="url(#clip0_848_2542)">
<path d="M19 6.49951C19 7.32794 18.3284 7.99951 17.5 7.99951C16.6716 7.99951 16 7.32794 16 6.49951C16 5.67108 16.6716 4.99951 17.5 4.99951C18.3284 4.99951 19 5.67108 19 6.49951Z" fill="white"/>
<path fill-rule="evenodd" clip-rule="evenodd" d="M12 16.9995C14.7614 16.9995 17 14.7609 17 11.9995C17 9.23809 14.7614 6.99951 12 6.99951C9.23858 6.99951 7 9.23809 7 11.9995C7 14.7609 9.23858 16.9995 12 16.9995ZM12 14.9995C13.6569 14.9995 15 13.6564 15 11.9995C15 10.3426 13.6569 8.99951 12 8.99951C10.3431 8.99951 9 10.3426 9 11.9995C9 13.6564 10.3431 14.9995 12 14.9995Z" fill="white"/>
<path fill-rule="evenodd" clip-rule="evenodd" d="M2 11.5995C2 8.2392 2 6.55904 2.65396 5.27557C3.2292 4.14659 4.14708 3.22871 5.27606 2.65347C6.55953 1.99951 8.23969 1.99951 11.6 1.99951H12.4C15.7603 1.99951 17.4405 1.99951 18.7239 2.65347C19.8529 3.22871 20.7708 4.14659 21.346 5.27557C22 6.55904 22 8.2392 22 11.5995V12.3995C22 15.7598 22 17.44 21.346 18.7234C20.7708 19.8524 19.8529 20.7703 18.7239 21.3455C17.4405 21.9995 15.7603 21.9995 12.4 21.9995H11.6C8.23969 21.9995 6.55953 21.9995 5.27606 21.3455C4.14708 20.7703 3.2292 19.8524 2.65396 18.7234C2 17.44 2 15.7598 2 12.3995V11.5995ZM11.6 3.99951H12.4C14.1132 3.99951 15.2777 4.00107 16.1779 4.07461C17.0548 4.14625 17.5032 4.2761 17.816 4.43548C18.5686 4.81898 19.1805 5.4309 19.564 6.18355C19.7234 6.49635 19.8533 6.94475 19.9249 7.82159C19.9984 8.72176 20 9.88635 20 11.5995V12.3995C20 14.1127 19.9984 15.2772 19.9249 16.1774C19.8533 17.0543 19.7234 17.5027 19.564 17.8155C19.1805 18.5681 18.5686 19.18 17.816 19.5635C17.5032 19.7229 17.0548 19.8528 16.1779 19.9244C15.2777 19.9979 14.1132 19.9995 12.4 19.9995H11.6C9.88684 19.9995 8.72225 19.9979 7.82208 19.9244C6.94524 19.8528 6.49684 19.7229 6.18404 19.5635C5.43139 19.18 4.81947 18.5681 4.43597 17.8155C4.27659 17.5027 4.14674 17.0543 4.0751 16.1774C4.00156 15.2772 4 14.1127 4 12.3995V11.5995C4 9.88635 4.00156 8.72176 4.0751 7.82159C4.14674 6.94475 4.27659 6.49635 4.43597 6.18355C4.81947 5.4309 5.43139 4.81898 6.18404 4.43548C6.49684 4.2761 6.94524 4.14625 7.82208 4.07461C8.72225 4.00107 9.88684 3.99951 11.6 3.99951Z" fill="white"/>
</g>
<defs>
<clipPath id="clip0_848_2542">
<rect width="24" height="24" fill="white" transform="translate(0 -0.000488281)"/>
</clipPath>
</defs>
</svg>
