<svg width="24" height="24" viewBox="0 0 24 24" fill="none" xmlns="http://www.w3.org/2000/svg">
<path d="M8.84156 20.9995C6.41531 20.9995 4.15363 20.2938 2.25 19.0762C3.86624 19.1808 6.71855 18.9303 8.49268 17.2381C5.82381 17.1156 4.6202 15.0687 4.4632 14.194C4.68997 14.2814 5.77148 14.3864 6.382 14.1415C3.31192 13.3717 2.84095 10.6775 2.94561 9.85524C3.52125 10.2576 4.49809 10.3976 4.88185 10.3626C2.02109 8.31569 3.05027 5.23658 3.55613 4.57177C5.60912 7.41601 8.6859 9.01344 12.4923 9.10229C12.4205 8.78753 12.3826 8.45983 12.3826 8.12324C12.3826 5.7077 14.3351 3.74951 16.7435 3.74951C18.0019 3.74951 19.1358 4.28408 19.9318 5.13914C20.7727 4.94209 22.0382 4.48081 22.6569 4.08191C22.3451 5.20159 21.3742 6.13563 20.7869 6.48182C20.7821 6.46999 20.7918 6.49359 20.7869 6.48182C21.3028 6.40379 22.6986 6.13554 23.25 5.76143C22.9773 6.39045 21.948 7.43631 21.1033 8.02183C21.2605 14.953 15.9574 20.9995 8.84156 20.9995Z" fill="white"/>
</svg>
