<svg width="34" height="35" viewBox="0 0 34 35" fill="none" xmlns="http://www.w3.org/2000/svg">
<path d="M0.5 12.2096C0.5 10.0856 0.500389 8.52268 0.601278 7.28786C0.70169 6.05887 0.899157 5.19901 1.26901 4.47313C1.94545 3.14554 3.02481 2.06618 4.3524 1.38974C5.07828 1.01988 5.93815 0.822417 7.16713 0.722005C8.40195 0.621116 9.96488 0.620728 12.0889 0.620728H21.9111C24.0351 0.620728 25.598 0.621116 26.8329 0.722005C28.0619 0.822417 28.9217 1.01988 29.6476 1.38974C30.9752 2.06618 32.0546 3.14554 32.731 4.47313C33.1008 5.19901 33.2983 6.05887 33.3987 7.28786C33.4996 8.52268 33.5 10.0856 33.5 12.2096V22.0318C33.5 24.1558 33.4996 25.7188 33.3987 26.9536C33.2983 28.1826 33.1008 29.0424 32.731 29.7683C32.0546 31.0959 30.9752 32.1753 29.6476 32.8517C28.9217 33.2216 28.0619 33.419 26.8329 33.5195C25.598 33.6203 24.0351 33.6207 21.9111 33.6207H12.0889C9.96488 33.6207 8.40195 33.6203 7.16713 33.5195C5.93815 33.419 5.07828 33.2216 4.3524 32.8517C3.02481 32.1753 1.94545 31.0959 1.26901 29.7683C0.899157 29.0424 0.70169 28.1826 0.601278 26.9536C0.500389 25.7188 0.5 24.1558 0.5 22.0318V12.2096Z" fill="white" stroke="#E5E7EB"/>
<path fill-rule="evenodd" clip-rule="evenodd" d="M25 13.9323L24.9999 13.9748C24.9998 13.9927 24.9996 14.0106 24.9994 14.0285C24.9998 14.0494 25 14.0705 25 14.0917C25 17.428 22.4007 20.3812 20.6614 22.3574C20.1567 22.9308 19.7244 23.422 19.449 23.8164C18.4694 25.2193 17.9524 26.7391 17.8163 27.3236C17.8163 27.7639 17.4509 28.1207 17 28.1207C16.5491 28.1207 16.1837 27.7639 16.1837 27.3236C16.0476 26.7391 15.5306 25.2193 14.551 23.8164C14.2756 23.422 13.8433 22.9308 13.3386 22.3574C11.5993 20.3812 9 17.428 9 14.0917C9 14.0705 9.0002 14.0494 9.0006 14.0285C9.0002 13.9965 9 13.9644 9 13.9323C9 9.61809 12.5817 6.12073 17 6.12073C21.4183 6.12073 25 9.61809 25 13.9323ZM17 16.8019C18.7132 16.8019 20.102 15.4458 20.102 13.7729C20.102 12.1 18.7132 10.7439 17 10.7439C15.2868 10.7439 13.898 12.1 13.898 13.7729C13.898 15.4458 15.2868 16.8019 17 16.8019Z" fill="#34A851"/>
<path d="M24.1035 10.3393C23.1239 8.49619 21.4142 7.0825 19.3485 6.4635L14.7539 11.6822C15.3188 11.1042 16.1155 10.7442 16.9982 10.7442C18.7114 10.7442 20.1003 12.1003 20.1003 13.7732C20.1003 14.4556 19.8691 15.0854 19.4792 15.5918L24.1035 10.3393Z" fill="#4285F5"/>
<path d="M13.432 22.4632C13.4014 22.4283 13.3705 22.3932 13.3393 22.3578C12.1927 21.0551 10.6726 19.328 9.76953 17.3465L14.5449 11.9225C14.1397 12.4343 13.8986 13.0763 13.8986 13.7733C13.8986 15.4462 15.2874 16.8023 17.0006 16.8023C17.8685 16.8023 18.6531 16.4543 19.2161 15.8934L13.432 22.4632Z" fill="#F9BB0E"/>
<path d="M10.8929 8.88635C9.71207 10.2476 9 12.0088 9 13.9324C9 13.9645 9.0002 13.9966 9.0006 14.0286C9.0002 14.0495 9 14.0706 9 14.0918C9 15.229 9.30196 16.3216 9.76889 17.3462L14.5362 11.9313L10.8929 8.88635Z" fill="#E74335"/>
<path d="M19.3479 6.46327C18.6048 6.2406 17.8156 6.12073 16.9977 6.12073C14.5495 6.12073 12.3581 7.1946 10.8906 8.88626L14.5339 11.9312L14.5419 11.9222C14.6081 11.8385 14.6788 11.7582 14.7535 11.6818L19.3479 6.46327Z" fill="#1A73E6"/>
</svg>
