<svg width="71" height="72" viewBox="0 0 71 72" fill="none" xmlns="http://www.w3.org/2000/svg">
<g id="Group 1000002103" filter="url(#filter0_dd_2707_3767)">
<path id="Vector" d="M63 34.5757C63 19.4127 50.6878 7.12061 35.5 7.12061C20.3122 7.12061 8 19.4127 8 34.5757C8 49.7387 20.3122 62.0308 35.5 62.0308C50.6878 62.0308 63 49.7387 63 34.5757Z" fill="#F3E8FF"/>
<g id="Clip path group">
<mask id="mask0_2707_3767" style="mask-type:luminance" maskUnits="userSpaceOnUse" x="16" y="17" width="37" height="38">
<g id="clip0_366_5359">
<path id="Vector_2" d="M16.02 17.9883H52.6152V54.5238H16.02V17.9883Z" fill="white"/>
</g>
</mask>
<g mask="url(#mask0_2707_3767)">
<g id="Group">
<path id="Vector_3" d="M49.6398 34.1366C50.3639 35.0826 50.3639 36.3593 49.6398 37.3031C47.3584 40.2762 41.8859 46.3976 35.4967 46.3976C29.1075 46.3976 23.635 40.2762 21.3537 37.3031C21.0019 36.8512 20.8105 36.2941 20.8105 35.7198C20.8105 35.1467 21.0019 34.5896 21.3537 34.1366C23.635 31.1646 29.1075 25.0432 35.4967 25.0432C41.8859 25.0432 47.3584 31.1646 49.6398 34.1366Z" stroke="#6F2B8C" stroke-width="2" stroke-linecap="round" stroke-linejoin="round"/>
<path id="Vector_4" d="M35.4954 40.2957C38.0266 40.2957 40.0788 38.2469 40.0788 35.7199C40.0788 33.1929 38.0266 31.144 35.4954 31.144C32.9643 31.144 30.9121 33.1929 30.9121 35.7199C30.9121 38.2469 32.9643 40.2957 35.4954 40.2957Z" stroke="#6F2B8C" stroke-width="2" stroke-linecap="round" stroke-linejoin="round"/>
</g>
</g>
</g>
</g>
<defs>
<filter id="filter0_dd_2707_3767" x="0" y="0.120605" width="71" height="70.9102" filterUnits="userSpaceOnUse" color-interpolation-filters="sRGB">
<feFlood flood-opacity="0" result="BackgroundImageFix"/>
<feColorMatrix in="SourceAlpha" type="matrix" values="0 0 0 0 0 0 0 0 0 0 0 0 0 0 0 0 0 0 127 0" result="hardAlpha"/>
<feOffset dy="1"/>
<feGaussianBlur stdDeviation="4"/>
<feColorMatrix type="matrix" values="0 0 0 0 0.0627451 0 0 0 0 0.0941176 0 0 0 0 0.156863 0 0 0 0.12 0"/>
<feBlend mode="normal" in2="BackgroundImageFix" result="effect1_dropShadow_2707_3767"/>
<feColorMatrix in="SourceAlpha" type="matrix" values="0 0 0 0 0 0 0 0 0 0 0 0 0 0 0 0 0 0 127 0" result="hardAlpha"/>
<feOffset dy="1"/>
<feGaussianBlur stdDeviation="3"/>
<feColorMatrix type="matrix" values="0 0 0 0 0.0627451 0 0 0 0 0.0941176 0 0 0 0 0.156863 0 0 0 0.3 0"/>
<feBlend mode="normal" in2="effect1_dropShadow_2707_3767" result="effect2_dropShadow_2707_3767"/>
<feBlend mode="normal" in="SourceGraphic" in2="effect2_dropShadow_2707_3767" result="shape"/>
</filter>
</defs>
</svg>
