<svg width="71" height="72" viewBox="0 0 71 72" fill="none" xmlns="http://www.w3.org/2000/svg">
<g id="Group 1000002106" filter="url(#filter0_dd_2707_3779)">
<path id="Vector" d="M63 34.5757C63 19.4127 50.6878 7.12061 35.5 7.12061C20.3122 7.12061 8 19.4127 8 34.5757C8 49.7387 20.3122 62.0308 35.5 62.0308C50.6878 62.0308 63 49.7387 63 34.5757Z" fill="#FFF4EF"/>
<path id="Vector_2" d="M44.6667 30.0001H47.7227V22.3733H50.7775V30.0001C50.7775 30.8089 50.4555 31.5845 49.8826 32.1565C49.3096 32.7284 48.5328 33.0499 47.7227 33.0499H44.6667V36.1008L40.0834 31.525L44.6667 26.9491V30.0001ZM38.556 31.525C38.556 30.9221 38.3761 30.3318 38.0404 29.8296C37.7047 29.3286 37.228 28.9374 36.67 28.7063C36.1108 28.4752 35.4966 28.4157 34.9042 28.5335C34.3107 28.6502 33.7664 28.9408 33.339 29.3675C32.9116 29.7942 32.6206 30.3376 32.5037 30.9301C32.3857 31.5216 32.4464 32.1347 32.6767 32.6918C32.9082 33.2501 33.3001 33.726 33.8031 34.0612C34.305 34.3963 34.8962 34.5759 35.5001 34.5759C36.3102 34.5759 37.0882 34.2545 37.6611 33.6825C38.234 33.1105 38.556 32.3338 38.556 31.525ZM20.2227 33.0499V40.6767H23.2775V33.0499H26.3334V36.1008L30.9167 31.525L26.3334 26.9491V30.0001H23.2775C22.4674 30.0001 21.6905 30.3215 21.1176 30.8935C20.5446 31.4655 20.2227 32.2411 20.2227 33.0499ZM40.0834 40.6767L35.5001 36.1008L30.9167 40.6767H33.9727V43.7276C33.9727 44.5364 34.2946 45.312 34.8676 45.884C35.4405 46.456 36.2174 46.7774 37.0275 46.7774H44.6667V43.7276H37.0275V40.6767" fill="#F26B66"/>
</g>
<defs>
<filter id="filter0_dd_2707_3779" x="0" y="0.120605" width="71" height="70.9102" filterUnits="userSpaceOnUse" color-interpolation-filters="sRGB">
<feFlood flood-opacity="0" result="BackgroundImageFix"/>
<feColorMatrix in="SourceAlpha" type="matrix" values="0 0 0 0 0 0 0 0 0 0 0 0 0 0 0 0 0 0 127 0" result="hardAlpha"/>
<feOffset dy="1"/>
<feGaussianBlur stdDeviation="4"/>
<feColorMatrix type="matrix" values="0 0 0 0 0.0627451 0 0 0 0 0.0941176 0 0 0 0 0.156863 0 0 0 0.12 0"/>
<feBlend mode="normal" in2="BackgroundImageFix" result="effect1_dropShadow_2707_3779"/>
<feColorMatrix in="SourceAlpha" type="matrix" values="0 0 0 0 0 0 0 0 0 0 0 0 0 0 0 0 0 0 127 0" result="hardAlpha"/>
<feOffset dy="1"/>
<feGaussianBlur stdDeviation="3"/>
<feColorMatrix type="matrix" values="0 0 0 0 0.0627451 0 0 0 0 0.0941176 0 0 0 0 0.156863 0 0 0 0.3 0"/>
<feBlend mode="normal" in2="effect1_dropShadow_2707_3779" result="effect2_dropShadow_2707_3779"/>
<feBlend mode="normal" in="SourceGraphic" in2="effect2_dropShadow_2707_3779" result="shape"/>
</filter>
</defs>
</svg>
