<svg width="22" height="23" viewBox="0 0 22 23" fill="none" xmlns="http://www.w3.org/2000/svg">
<g id="alerts 1">
<path id="Vector" d="M17.1046 15.8775C17.1046 16.2362 16.8147 16.5261 16.4559 16.5261H4.82078C4.46199 16.5261 4.17213 16.2362 4.17213 15.8775V11.1545C4.17213 7.58289 7.06672 4.6883 10.6384 4.6883C14.21 4.6883 17.1046 7.58289 17.1046 11.1545V15.8775ZM15.6451 11.1545C15.6451 8.38965 13.4032 6.14776 10.6384 6.14776C7.87348 6.14776 5.63159 8.38965 5.63159 11.1545V15.0666H12.8276V11.6004C12.8276 11.4889 12.9188 11.3977 13.0303 11.3977H13.9221C14.0336 11.3977 14.1249 11.4889 14.1249 11.6004V15.0666H15.6451V11.1545ZM16.6201 6.03627L15.8174 5.23357C15.7546 5.17073 15.7546 5.06735 15.8174 5.00451L17.1938 3.62816C17.2242 3.59798 17.2654 3.58105 17.3083 3.58105C17.3512 3.58105 17.3923 3.59798 17.4228 3.62816L18.2255 4.43087C18.2557 4.46134 18.2726 4.5025 18.2726 4.54539C18.2726 4.58828 18.2557 4.62944 18.2255 4.65992L16.8492 6.03627C16.7863 6.09911 16.685 6.09911 16.6201 6.03627ZM3.04713 4.43087L3.84983 3.62816C3.88031 3.59798 3.92146 3.58105 3.96435 3.58105C4.00725 3.58105 4.04841 3.59798 4.07888 3.62816L5.45523 5.00451C5.48541 5.03499 5.50234 5.07615 5.50234 5.11904C5.50234 5.16193 5.48541 5.20309 5.45523 5.23357L4.65253 6.03627C4.58969 6.09911 4.48632 6.09911 4.42348 6.03627L3.04713 4.65992C2.98429 4.59505 2.98429 4.4937 3.04713 4.43087ZM4.15185 17.8234H17.1249C17.4836 17.8234 17.7735 18.1133 17.7735 18.4721V18.9585C17.7735 19.0477 17.7005 19.1207 17.6113 19.1207H3.66537C3.57618 19.1207 3.50321 19.0477 3.50321 18.9585V18.4721C3.50321 18.1133 3.79307 17.8234 4.15185 17.8234ZM11.2059 3.391H10.0708C9.98159 3.391 9.90861 3.31803 9.90861 3.22884V1.28289C9.90861 1.1937 9.98159 1.12073 10.0708 1.12073H11.2059C11.2951 1.12073 11.3681 1.1937 11.3681 1.28289V3.22884C11.3681 3.31803 11.2951 3.391 11.2059 3.391Z" fill="#2026D2"/>
</g>
</svg>
