<svg width="22" height="22" viewBox="0 0 22 22" fill="none" xmlns="http://www.w3.org/2000/svg">
<g id="security 1">
<path id="Vector" d="M16.0001 8.99986H5.50001C4.67158 8.99986 4 9.67144 4 10.4999V16.4999C4 17.3283 4.67158 17.9999 5.50001 17.9999H16.0001C16.8285 17.9999 17.5001 17.3283 17.5001 16.4999V10.4999C17.5001 9.67144 16.8285 8.99986 16.0001 8.99986Z" stroke="#6F2B8C" stroke-width="1.7705" stroke-linecap="round" stroke-linejoin="round"/>
<path id="Vector_2" d="M6.25 9.00003V5.25001C6.25 4.65327 6.48706 4.08097 6.90901 3.65901C7.33097 3.23705 7.90327 3 8.50001 3H13C13.5968 3 14.1691 3.23705 14.591 3.65901C15.013 4.08097 15.2501 4.65327 15.2501 5.25001V6.00001" stroke="#6F2B8C" stroke-width="1.7705" stroke-linecap="round" stroke-linejoin="round"/>
</g>
</svg>
