<svg width="37" height="30" viewBox="0 0 37 30" fill="none" xmlns="http://www.w3.org/2000/svg">
<g id="Group 11">
<path id="Vector" d="M23.4782 8.43154H24.6067L27.823 5.21531L27.981 3.84982C26.1385 2.2236 23.9119 1.09392 21.5114 0.5675C19.111 0.0410768 16.616 0.135289 14.262 0.841236C11.9081 1.54718 9.77305 2.84156 8.05847 4.6021C6.3439 6.36263 5.10643 8.5312 4.46298 10.903C4.82128 10.7561 5.21819 10.7323 5.59148 10.8352L12.0239 9.77446C12.0239 9.77446 12.3512 9.23278 12.5205 9.26663C13.8988 7.75293 15.8035 6.82331 17.8448 6.66806C19.886 6.51282 21.9095 7.14369 23.5008 8.43154H23.4782Z" fill="#EA4335"/>
<path id="Vector_2" d="M32.4047 10.9032C31.6654 8.18082 30.1475 5.73345 28.0374 3.86133L23.5233 8.37533C24.4641 9.14403 25.218 10.1163 25.7283 11.2189C26.2385 12.3214 26.4917 13.5254 26.4687 14.7401V15.5413C26.9963 15.5413 27.5187 15.6452 28.0062 15.8471C28.4936 16.049 28.9365 16.3449 29.3095 16.718C29.6826 17.0911 29.9785 17.5339 30.1804 18.0214C30.3823 18.5088 30.4862 19.0312 30.4862 19.5588C30.4862 20.0864 30.3823 20.6088 30.1804 21.0962C29.9785 21.5836 29.6826 22.0265 29.3095 22.3996C28.9365 22.7726 28.4936 23.0685 28.0062 23.2704C27.5187 23.4723 26.9963 23.5762 26.4687 23.5762H18.4338L17.6326 24.3888V29.2075L18.4338 30.0087H26.4687C28.7125 30.0262 30.9022 29.321 32.7141 27.9975C34.526 26.6739 35.8637 24.8024 36.5295 22.6596C37.1952 20.5168 37.1536 18.2167 36.4107 16.0994C35.6679 13.9822 34.2632 12.1603 32.4047 10.9032Z" fill="#4285F4"/>
<path id="Vector_3" d="M10.3875 29.963H18.4224V23.5306H10.3875C9.815 23.5304 9.24926 23.4073 8.72856 23.1694L7.60006 23.5193L4.36126 26.7355L4.07913 27.864C5.89538 29.2355 8.11158 29.9729 10.3875 29.963Z" fill="#34A853"/>
<path id="Vector_4" d="M10.3875 9.09723C8.21045 9.11024 6.09179 9.80289 4.32747 11.0784C2.56315 12.354 1.24128 14.1487 0.546475 16.212C-0.148326 18.2753 -0.181356 20.504 0.451998 22.587C1.08535 24.67 2.35346 26.5031 4.07921 27.8304L8.73992 23.1696C8.14764 22.9021 7.62912 22.4948 7.22886 21.9827C6.82859 21.4707 6.55853 20.8692 6.44183 20.2298C6.32514 19.5905 6.36531 18.9323 6.55889 18.3119C6.75246 17.6915 7.09367 17.1273 7.55324 16.6677C8.0128 16.2082 8.577 15.867 9.19742 15.6734C9.81785 15.4798 10.476 15.4396 11.1153 15.5563C11.7547 15.673 12.3562 15.9431 12.8682 16.3433C13.3803 16.7436 13.7876 17.2621 14.0552 17.8544L18.7159 13.1937C17.7376 11.9148 16.4768 10.8796 15.032 10.1689C13.5872 9.45829 11.9976 9.09149 10.3875 9.09723Z" fill="#FBBC05"/>
</g>
</svg>
