<svg width="27" height="28" viewBox="0 0 27 28" fill="none" xmlns="http://www.w3.org/2000/svg">
<path fill-rule="evenodd" clip-rule="evenodd" d="M9.01706 13.6274C8.89623 13.2375 8.63403 12.8911 8.2479 12.6697L2.52843 9.38006C1.72061 8.91742 0.691502 9.19171 0.227868 9.9919C-0.2387 10.7966 0.0359245 11.8203 0.843055 12.2843L4.03947 14.1195L0.843055 15.9595C0.0359245 16.4228 -0.240081 17.4467 0.227868 18.2485C0.691502 19.0507 1.72061 19.3259 2.52843 18.8633L8.2479 15.5757C8.65009 15.3447 8.91884 14.9784 9.03173 14.5688C9.06971 14.4371 9.08662 14.3054 9.09318 14.173C9.09767 13.9908 9.07419 13.806 9.01706 13.6274ZM10.569 10.5464C11.44 10.484 12.1277 9.75867 12.1277 8.87618V2.29881C12.1277 1.37127 11.3718 0.620464 10.4439 0.620464C9.51142 0.620464 8.75849 1.37127 8.75849 2.29881V5.97762L5.5512 4.13674C4.747 3.67046 3.71858 3.94631 3.25133 4.74719C2.787 5.54963 3.06163 6.57854 3.86738 7.04188L9.59134 10.3274C9.89893 10.506 10.2402 10.5744 10.569 10.5464ZM16.4314 17.6945C15.5583 17.7586 14.872 18.4852 14.872 19.367V25.9452C14.872 26.8696 15.6236 27.6206 16.5567 27.6206C17.489 27.6206 18.2421 26.8696 18.2421 25.9452V22.2641L21.4471 24.108C22.2529 24.5713 23.2818 24.2963 23.7463 23.4953C24.2098 22.6899 23.9367 21.6655 23.1303 21.2021L17.407 17.9137C17.0994 17.7373 16.7588 17.6682 16.4314 17.6945ZM3.86738 21.2021C3.06163 21.6655 2.787 22.6899 3.25133 23.4953C3.71858 24.2963 4.747 24.5713 5.5512 24.108L8.75849 22.2641V25.9452C8.75849 26.8696 9.51142 27.6206 10.4439 27.6206C11.3718 27.6206 12.1277 26.8696 12.1277 25.9452V19.367C12.1277 18.4852 11.44 17.7586 10.569 17.6945C10.2402 17.6682 9.89893 17.7373 9.59134 17.9137L3.86738 21.2021ZM14.1471 11.112C14.0789 11.0421 13.9477 10.9855 13.8481 10.9855H13.1487C13.0527 10.9855 12.9195 11.0421 12.8499 11.112L10.4723 13.4766C10.4043 13.5435 10.3493 13.6775 10.3493 13.7716V14.4695C10.3493 14.5659 10.4043 14.6996 10.4723 14.7674L12.8499 17.1328C12.9195 17.2017 13.0527 17.257 13.1487 17.257H13.8481C13.9456 17.257 14.0789 17.2017 14.1471 17.1328L16.526 14.7674C16.594 14.6996 16.6489 14.5659 16.6489 14.4695V13.7716C16.6489 13.6775 16.594 13.5435 16.526 13.4766L14.1471 11.112ZM14.6245 14.1334C14.6245 14.229 14.5667 14.3621 14.4985 14.4328L13.8093 15.1153C13.7419 15.1829 13.608 15.2389 13.512 15.2389H13.4849C13.389 15.2389 13.2557 15.1829 13.1889 15.1153L12.4998 14.4328C12.431 14.3621 12.3781 14.229 12.3781 14.1334V14.1062C12.3781 14.0121 12.431 13.8804 12.4998 13.8112L13.1889 13.1273C13.2564 13.0596 13.389 13.0038 13.4849 13.0038H13.512C13.608 13.0038 13.7419 13.0596 13.8093 13.1273L14.4985 13.8112C14.5667 13.8804 14.6245 14.0121 14.6245 14.1062V14.1334ZM23.1303 7.04188C23.9367 6.57854 24.2098 5.54963 23.7463 4.74719C23.2818 3.94631 22.252 3.67046 21.4471 4.13674L18.2421 5.97762V2.29881C18.2421 1.37127 17.489 0.620464 16.5567 0.620464C15.6236 0.620464 14.872 1.37127 14.872 2.29881V8.87618C14.872 9.75867 15.5583 10.484 16.4314 10.5464C16.7588 10.5744 17.0994 10.506 17.407 10.3274L23.1303 7.04188ZM22.9596 14.1195L26.156 12.2843C26.9631 11.8203 27.2393 10.7966 26.7727 9.9919C26.3068 9.19171 25.2763 8.91742 24.4721 9.38006L18.7482 12.6697C18.3659 12.8911 18.1014 13.2375 17.9835 13.6274C17.9278 13.806 17.9014 13.9908 17.9081 14.173C17.911 14.3054 17.9307 14.4371 17.9673 14.5688C18.0816 14.9784 18.3505 15.3447 18.7482 15.5757L24.4721 18.8633C25.2763 19.3259 26.3068 19.0507 26.7727 18.2485C27.2393 17.4467 26.9631 16.4228 26.156 15.9595L22.9596 14.1195Z" fill="#29B5E8"/>
</svg>
