<svg width="77" height="45" viewBox="0 0 77 45" fill="none" xmlns="http://www.w3.org/2000/svg">
<g id="Group 10">
<rect id="Rectangle 13" y="0.120605" width="77" height="44" rx="6" fill="white"/>
<path id="Vector" d="M58.6184 15.1206C55.0447 15.1206 52.0644 17.5288 51.3832 20.7272V15.1206L43.9804 22.1204L36.5986 15.1206V20.7272C35.9174 17.5288 32.937 15.1206 29.3633 15.1206C25.7901 15.1206 22.81 17.5283 22.1284 20.7262C21.8643 19.488 21.2559 18.3681 20.4016 17.4607C19.0497 16.0248 17.0832 15.1206 14.8937 15.1206H10V29.1206H14.8937C17.0831 29.1206 19.0496 28.2164 20.4014 26.7806C21.2558 25.8732 21.8642 24.7533 22.1284 23.515C22.8101 26.7129 25.7901 29.1206 29.3633 29.1206C32.937 29.1206 35.9174 26.7124 36.5986 23.5139V29.1206H39.045V20.7488L43.9804 25.4288L48.8943 20.7488V29.1205H51.3832V23.5138C52.0644 26.7123 55.0448 29.1205 58.6184 29.1205C62.6951 29.1205 66 25.9865 66 22.1206C66 18.2546 62.6951 15.1206 58.6184 15.1206ZM15.2143 26.7805H12.4464V17.4607H15.2161C17.786 17.6183 19.8193 19.6436 19.8193 22.1205C19.8193 24.598 17.785 26.6238 15.2143 26.7805ZM29.3633 26.7914C26.643 26.7914 24.4377 24.7002 24.4377 22.1205C24.4377 19.5408 26.643 17.4496 29.3633 17.4496C32.0837 17.4496 34.2889 19.5408 34.2889 22.1205C34.2889 24.7002 32.0837 26.7914 29.3633 26.7914ZM58.6184 26.7914C55.898 26.7914 53.6928 24.7002 53.6928 22.1205C53.6928 19.5408 55.898 17.4496 58.6184 17.4496C61.3386 17.4496 63.544 19.5408 63.544 22.1205C63.544 24.7002 61.3386 26.7914 58.6184 26.7914Z" fill="#99CCEE"/>
</g>
</svg>
