<svg width="232" height="264" viewBox="0 0 232 264" fill="none" xmlns="http://www.w3.org/2000/svg">
<path fill-rule="evenodd" clip-rule="evenodd" d="M124.398 257.003C127.246 257.003 129.528 254.701 129.528 251.873C129.528 249.046 127.226 246.744 124.398 246.744C121.57 246.744 119.267 249.046 119.267 251.873C119.267 254.701 121.57 257.003 124.398 257.003ZM104.117 22.0885L37.3355 60.6418C25.0337 67.7506 17.0547 81.5644 17.0547 95.7618V172.868C17.0547 187.066 25.0337 200.88 37.3355 207.989L104.117 246.542C106.945 248.178 109.975 249.43 113.086 250.318C113.025 250.823 112.985 251.348 112.985 251.873C112.985 258.174 118.095 263.284 124.398 263.284C130.7 263.284 135.811 258.174 135.811 251.873C135.811 251.348 135.77 250.823 135.71 250.318C138.841 249.43 141.85 248.178 144.678 246.542L211.46 207.989C223.761 200.88 231.74 187.066 231.74 172.868V95.7618C231.74 81.5644 223.761 67.7506 211.46 60.6418L144.658 22.0885C132.356 14.9796 116.398 14.9796 104.097 22.0885H104.117Z" fill="#6F2C8E"/>
<path fill-rule="evenodd" clip-rule="evenodd" d="M109.229 30.9142L42.4482 69.4675C33.2976 74.7588 27.2578 85.1999 27.2578 95.7621V172.869C27.2578 183.431 33.2976 193.892 42.4482 199.163L109.229 237.717C118.38 243.008 130.46 243.008 139.61 237.717L206.391 199.163C215.542 193.872 221.582 183.431 221.582 172.869V95.7621C221.582 85.1999 215.542 74.7588 206.391 69.4675L139.59 30.9142C130.439 25.623 118.36 25.623 109.209 30.9142" fill="url(#paint0_linear_1197_6433)"/>
<path fill-rule="evenodd" clip-rule="evenodd" d="M110.783 33.62L44.0015 72.1733C35.8205 76.8991 30.3867 86.3102 30.3867 95.7617V172.868C30.3867 182.32 35.8205 191.731 44.0015 196.457L110.783 235.01C118.964 239.736 129.831 239.736 138.012 235.01L204.794 196.457C212.975 191.731 218.408 182.32 218.408 172.868V95.7617C218.408 86.3102 212.975 76.8991 204.794 72.1733L137.992 33.62C129.811 28.8942 118.944 28.8942 110.763 33.62" fill="url(#paint1_linear_1197_6433)"/>
<path d="M0.0486381 167.496C0.0486381 165.699 2.77564 165.699 2.77564 167.496V178.442C2.77564 180.24 0.0486381 180.24 0.0486381 178.442V167.496ZM0.0486381 142.878C0.0486381 141.081 2.77564 141.081 2.77564 142.878V153.824C2.77564 155.621 0.0486381 155.621 0.0486381 153.824V142.878ZM0.0486381 118.26C0.0486381 116.462 2.77564 116.462 2.77564 118.26V129.206C2.77564 131.003 0.0486381 131.003 0.0486381 129.206V118.26ZM0.0486381 101.841C0.0486381 100.043 2.77564 100.043 2.77564 101.841C2.77564 103.638 3.19984 105.94 1.40204 105.94C-0.395762 105.94 0.0486381 103.638 0.0486381 101.841ZM3.24024 77.101C3.72504 75.6873 6.59344 75.7075 5.64404 78.5551C4.25024 82.675 4.06844 84.2502 3.32104 88.3499C3.03824 89.8646 0.230438 90.3695 0.715238 87.2594L3.24024 77.101ZM16.3096 55.7543C17.3802 54.6435 19.8648 55.9764 17.966 57.996L11.6838 66.0338C10.8556 67.3264 8.06804 66.5387 9.72444 64.0345L16.3096 55.7745V55.7543ZM36.6511 41.3953C38.2064 40.4865 39.5801 42.8695 38.0247 43.7581L28.6114 49.2311C27.2984 50.0592 25.1572 48.1406 27.6418 46.6057L36.6511 41.3751V41.3953ZM50.8719 33.1757C52.4273 32.2669 53.8009 34.6499 52.2455 35.5386C50.6901 36.4474 48.8923 37.962 48.0035 36.407C47.1147 34.8519 49.3165 34.0643 50.8719 33.1757ZM72.2031 20.8766C73.7585 19.9678 75.1321 22.3509 73.5767 23.2395L64.1029 28.7125C62.5475 29.6213 61.1739 27.2382 62.7293 26.3496L72.2031 20.8766ZM93.5343 8.5573C95.0897 7.6485 96.4633 10.0316 94.9079 10.9202L85.4341 16.3932C83.8787 17.302 82.5051 14.9189 84.0605 14.0303L93.5343 8.5573ZM117.067 0.176143C118.562 -0.0258122 119.754 2.55922 116.865 2.96313L107.008 5.22503C105.533 5.70972 103.937 3.32665 106.664 2.45824L117.067 0.176143ZM133.813 0.479077C135.348 0.721423 135.651 3.5286 132.904 3.1045C131.409 2.88235 129.329 2.96313 129.51 1.30709C129.712 -0.550897 132.561 0.277121 133.793 0.479077H133.813ZM157.063 9.52668C158.619 10.4355 157.265 12.7984 155.69 11.8896C152.215 9.8902 149.791 8.37554 146.175 6.84067C144.741 6.23481 145.125 3.38724 147.751 4.53838C151.246 6.07324 153.69 7.56771 157.063 9.52668ZM178.395 21.846C179.95 22.7548 178.596 25.1177 177.021 24.2089L167.547 18.7359C165.992 17.8271 167.365 15.4642 168.921 16.373L178.395 21.846ZM199.726 34.1653C201.281 35.0741 199.928 37.4369 198.352 36.5281L188.878 31.0551C187.323 30.1463 188.697 27.7835 190.252 28.6923L199.726 34.1653ZM211.684 34.3672L219.38 47.0702L204.533 46.7673L211.684 34.3874V34.3672ZM2.79584 194.861C2.79584 196.659 0.0688381 196.659 0.0688381 194.861C0.0688381 193.064 -0.355362 190.762 1.44244 190.762C3.24024 190.762 2.81604 193.064 2.81604 194.861H2.79584Z" fill="#6F2C8E"/>
<path d="M78.2451 136.024H80.9307C80.8447 137.048 80.5583 137.961 80.0713 138.763C79.5843 139.558 78.9004 140.185 78.0195 140.643C77.1387 141.101 76.068 141.331 74.8076 141.331C73.8408 141.331 72.9707 141.159 72.1973 140.815C71.4238 140.464 70.7614 139.97 70.21 139.333C69.6585 138.688 69.236 137.911 68.9424 137.001C68.6559 136.092 68.5127 135.075 68.5127 133.951V132.651C68.5127 131.527 68.6595 130.51 68.9531 129.6C69.2539 128.691 69.6836 127.914 70.2422 127.269C70.8008 126.617 71.4704 126.12 72.251 125.776C73.0387 125.432 73.9232 125.26 74.9043 125.26C76.1504 125.26 77.2031 125.489 78.0625 125.948C78.9219 126.406 79.5879 127.04 80.0605 127.849C80.5404 128.658 80.834 129.586 80.9414 130.631H78.2559C78.1842 129.958 78.0267 129.382 77.7832 128.902C77.5469 128.422 77.196 128.057 76.7305 127.806C76.265 127.548 75.6562 127.419 74.9043 127.419C74.2884 127.419 73.7513 127.534 73.293 127.763C72.8346 127.992 72.4515 128.329 72.1436 128.773C71.8356 129.217 71.6029 129.765 71.4453 130.417C71.2949 131.061 71.2197 131.799 71.2197 132.629V133.951C71.2197 134.738 71.2878 135.455 71.4238 136.099C71.5671 136.736 71.7819 137.284 72.0684 137.743C72.362 138.201 72.7344 138.556 73.1855 138.806C73.6367 139.057 74.1774 139.182 74.8076 139.182C75.5739 139.182 76.1934 139.06 76.666 138.817C77.1458 138.573 77.5075 138.219 77.751 137.753C78.0016 137.281 78.1663 136.704 78.2451 136.024ZM85.8936 124.616V141.116H83.2939V124.616H85.8936ZM88.2354 135.433V135.186C88.2354 134.348 88.3571 133.571 88.6006 132.855C88.8441 132.132 89.195 131.505 89.6533 130.975C90.1188 130.438 90.6846 130.023 91.3506 129.729C92.0238 129.428 92.7829 129.278 93.6279 129.278C94.4801 129.278 95.2393 129.428 95.9053 129.729C96.5785 130.023 97.1478 130.438 97.6133 130.975C98.0788 131.505 98.4333 132.132 98.6768 132.855C98.9202 133.571 99.042 134.348 99.042 135.186V135.433C99.042 136.271 98.9202 137.048 98.6768 137.764C98.4333 138.48 98.0788 139.107 97.6133 139.644C97.1478 140.174 96.582 140.589 95.916 140.89C95.25 141.184 94.4945 141.331 93.6494 141.331C92.7972 141.331 92.0345 141.184 91.3613 140.89C90.6953 140.589 90.1296 140.174 89.6641 139.644C89.1986 139.107 88.8441 138.48 88.6006 137.764C88.3571 137.048 88.2354 136.271 88.2354 135.433ZM90.8242 135.186V135.433C90.8242 135.956 90.8779 136.45 90.9854 136.916C91.0928 137.381 91.2611 137.789 91.4902 138.14C91.7194 138.491 92.013 138.767 92.3711 138.967C92.7292 139.168 93.1553 139.268 93.6494 139.268C94.1292 139.268 94.5446 139.168 94.8955 138.967C95.2536 138.767 95.5472 138.491 95.7764 138.14C96.0055 137.789 96.1738 137.381 96.2812 136.916C96.3958 136.45 96.4531 135.956 96.4531 135.433V135.186C96.4531 134.67 96.3958 134.183 96.2812 133.725C96.1738 133.26 96.002 132.848 95.7656 132.49C95.5365 132.132 95.2428 131.852 94.8848 131.652C94.5339 131.444 94.1149 131.34 93.6279 131.34C93.141 131.34 92.7184 131.444 92.3604 131.652C92.0094 131.852 91.7194 132.132 91.4902 132.49C91.2611 132.848 91.0928 133.26 90.9854 133.725C90.8779 134.183 90.8242 134.67 90.8242 135.186ZM108.205 138.376V129.493H110.805V141.116H108.355L108.205 138.376ZM108.57 135.959L109.44 135.938C109.44 136.719 109.354 137.438 109.183 138.097C109.011 138.749 108.746 139.318 108.388 139.805C108.03 140.285 107.571 140.661 107.013 140.933C106.454 141.198 105.785 141.331 105.004 141.331C104.438 141.331 103.919 141.248 103.446 141.083C102.974 140.919 102.565 140.665 102.222 140.321C101.885 139.977 101.624 139.529 101.438 138.978C101.251 138.427 101.158 137.768 101.158 137.001V129.493H103.747V137.023C103.747 137.445 103.797 137.8 103.897 138.086C103.998 138.366 104.134 138.591 104.306 138.763C104.478 138.935 104.678 139.057 104.907 139.128C105.136 139.2 105.38 139.236 105.638 139.236C106.375 139.236 106.955 139.093 107.378 138.806C107.808 138.513 108.112 138.119 108.291 137.625C108.477 137.13 108.57 136.575 108.57 135.959ZM120.548 138.709V124.616H123.147V141.116H120.795L120.548 138.709ZM112.985 135.433V135.208C112.985 134.327 113.089 133.525 113.297 132.801C113.505 132.071 113.805 131.444 114.199 130.921C114.593 130.391 115.073 129.987 115.639 129.708C116.204 129.421 116.842 129.278 117.551 129.278C118.253 129.278 118.868 129.414 119.398 129.686C119.928 129.958 120.38 130.348 120.752 130.857C121.124 131.358 121.422 131.96 121.644 132.662C121.866 133.356 122.023 134.13 122.116 134.982V135.702C122.023 136.532 121.866 137.292 121.644 137.979C121.422 138.667 121.124 139.261 120.752 139.762C120.38 140.264 119.925 140.65 119.388 140.922C118.858 141.194 118.238 141.331 117.529 141.331C116.827 141.331 116.194 141.184 115.628 140.89C115.069 140.597 114.593 140.185 114.199 139.655C113.805 139.125 113.505 138.502 113.297 137.786C113.089 137.062 112.985 136.278 112.985 135.433ZM115.574 135.208V135.433C115.574 135.963 115.621 136.457 115.714 136.916C115.814 137.374 115.968 137.778 116.176 138.129C116.383 138.473 116.652 138.745 116.981 138.946C117.318 139.139 117.719 139.236 118.185 139.236C118.772 139.236 119.255 139.107 119.635 138.849C120.014 138.591 120.312 138.244 120.526 137.807C120.748 137.363 120.899 136.869 120.978 136.325V134.38C120.935 133.958 120.845 133.564 120.709 133.199C120.58 132.833 120.405 132.515 120.183 132.243C119.961 131.963 119.685 131.749 119.355 131.598C119.033 131.441 118.65 131.362 118.206 131.362C117.733 131.362 117.332 131.462 117.003 131.663C116.674 131.863 116.401 132.139 116.187 132.49C115.979 132.841 115.825 133.249 115.725 133.714C115.624 134.18 115.574 134.678 115.574 135.208ZM133.9 131.974V141.116H131.312V129.493H133.75L133.9 131.974ZM133.438 134.875L132.601 134.864C132.608 134.04 132.722 133.285 132.944 132.597C133.174 131.91 133.489 131.319 133.89 130.825C134.298 130.331 134.785 129.951 135.351 129.686C135.916 129.414 136.547 129.278 137.241 129.278C137.8 129.278 138.305 129.357 138.756 129.514C139.214 129.665 139.604 129.912 139.927 130.255C140.256 130.599 140.507 131.047 140.679 131.598C140.851 132.142 140.937 132.812 140.937 133.607V141.116H138.337V133.596C138.337 133.038 138.255 132.597 138.09 132.275C137.932 131.945 137.7 131.713 137.392 131.577C137.091 131.433 136.715 131.362 136.264 131.362C135.82 131.362 135.422 131.455 135.071 131.641C134.72 131.827 134.423 132.082 134.18 132.404C133.943 132.726 133.761 133.098 133.632 133.521C133.503 133.944 133.438 134.395 133.438 134.875ZM150.132 138.785V133.242C150.132 132.826 150.057 132.468 149.906 132.167C149.756 131.867 149.527 131.634 149.219 131.469C148.918 131.305 148.538 131.222 148.08 131.222C147.658 131.222 147.292 131.294 146.984 131.437C146.676 131.58 146.437 131.774 146.265 132.017C146.093 132.261 146.007 132.536 146.007 132.844H143.429C143.429 132.386 143.54 131.942 143.762 131.512C143.984 131.083 144.306 130.699 144.729 130.363C145.151 130.026 145.656 129.761 146.243 129.568C146.83 129.375 147.489 129.278 148.22 129.278C149.093 129.278 149.867 129.425 150.54 129.718C151.22 130.012 151.754 130.456 152.141 131.05C152.535 131.638 152.731 132.375 152.731 133.263V138.43C152.731 138.96 152.767 139.436 152.839 139.859C152.918 140.274 153.029 140.636 153.172 140.944V141.116H150.519C150.397 140.836 150.3 140.482 150.229 140.052C150.164 139.615 150.132 139.193 150.132 138.785ZM150.508 134.047L150.529 135.648H148.671C148.191 135.648 147.769 135.694 147.403 135.788C147.038 135.874 146.734 136.002 146.49 136.174C146.247 136.346 146.064 136.554 145.942 136.797C145.821 137.041 145.76 137.317 145.76 137.625C145.76 137.932 145.831 138.215 145.975 138.473C146.118 138.724 146.326 138.921 146.598 139.064C146.877 139.207 147.214 139.279 147.607 139.279C148.137 139.279 148.599 139.171 148.993 138.957C149.394 138.735 149.709 138.466 149.938 138.151C150.168 137.829 150.289 137.524 150.304 137.238L151.142 138.387C151.056 138.681 150.909 138.996 150.701 139.333C150.493 139.669 150.221 139.991 149.885 140.299C149.555 140.6 149.158 140.847 148.692 141.041C148.234 141.234 147.704 141.331 147.103 141.331C146.343 141.331 145.667 141.18 145.072 140.879C144.478 140.571 144.012 140.16 143.676 139.644C143.339 139.121 143.171 138.53 143.171 137.872C143.171 137.256 143.285 136.711 143.515 136.239C143.751 135.759 144.095 135.358 144.546 135.036C145.004 134.713 145.563 134.47 146.222 134.305C146.881 134.133 147.632 134.047 148.478 134.047H150.508ZM160.767 129.493V131.383H154.214V129.493H160.767ZM156.104 126.646H158.693V137.904C158.693 138.262 158.743 138.538 158.844 138.731C158.951 138.917 159.098 139.042 159.284 139.107C159.47 139.171 159.689 139.204 159.939 139.204C160.118 139.204 160.29 139.193 160.455 139.171C160.62 139.15 160.752 139.128 160.853 139.107L160.863 141.083C160.648 141.148 160.398 141.205 160.111 141.255C159.832 141.306 159.51 141.331 159.145 141.331C158.55 141.331 158.024 141.227 157.565 141.019C157.107 140.804 156.749 140.457 156.491 139.977C156.233 139.497 156.104 138.86 156.104 138.065V126.646ZM165.536 129.493V141.116H162.937V129.493H165.536ZM162.765 126.442C162.765 126.048 162.894 125.722 163.151 125.464C163.416 125.199 163.782 125.067 164.247 125.067C164.705 125.067 165.067 125.199 165.332 125.464C165.597 125.722 165.729 126.048 165.729 126.442C165.729 126.829 165.597 127.151 165.332 127.409C165.067 127.667 164.705 127.795 164.247 127.795C163.782 127.795 163.416 127.667 163.151 127.409C162.894 127.151 162.765 126.829 162.765 126.442ZM172.153 139.064L175 129.493H177.686L173.646 141.116H171.971L172.153 139.064ZM169.973 129.493L172.873 139.107L173.013 141.116H171.337L167.276 129.493H169.973ZM184.26 141.331C183.4 141.331 182.623 141.191 181.929 140.912C181.241 140.625 180.654 140.228 180.167 139.719C179.687 139.211 179.318 138.613 179.061 137.925C178.803 137.238 178.674 136.497 178.674 135.702V135.272C178.674 134.362 178.806 133.539 179.071 132.801C179.336 132.064 179.705 131.433 180.178 130.911C180.65 130.381 181.209 129.976 181.854 129.697C182.498 129.417 183.196 129.278 183.948 129.278C184.779 129.278 185.506 129.417 186.129 129.697C186.752 129.976 187.268 130.37 187.676 130.878C188.091 131.38 188.399 131.978 188.6 132.672C188.807 133.367 188.911 134.133 188.911 134.971V136.078H179.931V134.219H186.354V134.015C186.34 133.55 186.247 133.113 186.075 132.705C185.91 132.296 185.656 131.967 185.312 131.716C184.969 131.466 184.51 131.34 183.938 131.34C183.508 131.34 183.125 131.433 182.788 131.62C182.459 131.799 182.183 132.06 181.961 132.404C181.739 132.748 181.567 133.163 181.445 133.65C181.331 134.13 181.273 134.67 181.273 135.272V135.702C181.273 136.21 181.341 136.683 181.478 137.12C181.621 137.549 181.828 137.925 182.101 138.248C182.373 138.57 182.702 138.824 183.089 139.01C183.476 139.189 183.916 139.279 184.41 139.279C185.033 139.279 185.588 139.153 186.075 138.903C186.562 138.652 186.985 138.298 187.343 137.839L188.707 139.161C188.456 139.526 188.131 139.877 187.729 140.213C187.328 140.543 186.838 140.811 186.258 141.019C185.685 141.227 185.019 141.331 184.26 141.331Z" fill="#313E5B"/>
<path d="M78.2451 136.024H80.9307C80.8447 137.048 80.5583 137.961 80.0713 138.763C79.5843 139.558 78.9004 140.185 78.0195 140.643C77.1387 141.101 76.068 141.331 74.8076 141.331C73.8408 141.331 72.9707 141.159 72.1973 140.815C71.4238 140.464 70.7614 139.97 70.21 139.333C69.6585 138.688 69.236 137.911 68.9424 137.001C68.6559 136.092 68.5127 135.075 68.5127 133.951V132.651C68.5127 131.527 68.6595 130.51 68.9531 129.6C69.2539 128.691 69.6836 127.914 70.2422 127.269C70.8008 126.617 71.4704 126.12 72.251 125.776C73.0387 125.432 73.9232 125.26 74.9043 125.26C76.1504 125.26 77.2031 125.489 78.0625 125.948C78.9219 126.406 79.5879 127.04 80.0605 127.849C80.5404 128.658 80.834 129.586 80.9414 130.631H78.2559C78.1842 129.958 78.0267 129.382 77.7832 128.902C77.5469 128.422 77.196 128.057 76.7305 127.806C76.265 127.548 75.6562 127.419 74.9043 127.419C74.2884 127.419 73.7513 127.534 73.293 127.763C72.8346 127.992 72.4515 128.329 72.1436 128.773C71.8356 129.217 71.6029 129.765 71.4453 130.417C71.2949 131.061 71.2197 131.799 71.2197 132.629V133.951C71.2197 134.738 71.2878 135.455 71.4238 136.099C71.5671 136.736 71.7819 137.284 72.0684 137.743C72.362 138.201 72.7344 138.556 73.1855 138.806C73.6367 139.057 74.1774 139.182 74.8076 139.182C75.5739 139.182 76.1934 139.06 76.666 138.817C77.1458 138.573 77.5075 138.219 77.751 137.753C78.0016 137.281 78.1663 136.704 78.2451 136.024ZM85.8936 124.616V141.116H83.2939V124.616H85.8936ZM88.2354 135.433V135.186C88.2354 134.348 88.3571 133.571 88.6006 132.855C88.8441 132.132 89.195 131.505 89.6533 130.975C90.1188 130.438 90.6846 130.023 91.3506 129.729C92.0238 129.428 92.7829 129.278 93.6279 129.278C94.4801 129.278 95.2393 129.428 95.9053 129.729C96.5785 130.023 97.1478 130.438 97.6133 130.975C98.0788 131.505 98.4333 132.132 98.6768 132.855C98.9202 133.571 99.042 134.348 99.042 135.186V135.433C99.042 136.271 98.9202 137.048 98.6768 137.764C98.4333 138.48 98.0788 139.107 97.6133 139.644C97.1478 140.174 96.582 140.589 95.916 140.89C95.25 141.184 94.4945 141.331 93.6494 141.331C92.7972 141.331 92.0345 141.184 91.3613 140.89C90.6953 140.589 90.1296 140.174 89.6641 139.644C89.1986 139.107 88.8441 138.48 88.6006 137.764C88.3571 137.048 88.2354 136.271 88.2354 135.433ZM90.8242 135.186V135.433C90.8242 135.956 90.8779 136.45 90.9854 136.916C91.0928 137.381 91.2611 137.789 91.4902 138.14C91.7194 138.491 92.013 138.767 92.3711 138.967C92.7292 139.168 93.1553 139.268 93.6494 139.268C94.1292 139.268 94.5446 139.168 94.8955 138.967C95.2536 138.767 95.5472 138.491 95.7764 138.14C96.0055 137.789 96.1738 137.381 96.2812 136.916C96.3958 136.45 96.4531 135.956 96.4531 135.433V135.186C96.4531 134.67 96.3958 134.183 96.2812 133.725C96.1738 133.26 96.002 132.848 95.7656 132.49C95.5365 132.132 95.2428 131.852 94.8848 131.652C94.5339 131.444 94.1149 131.34 93.6279 131.34C93.141 131.34 92.7184 131.444 92.3604 131.652C92.0094 131.852 91.7194 132.132 91.4902 132.49C91.2611 132.848 91.0928 133.26 90.9854 133.725C90.8779 134.183 90.8242 134.67 90.8242 135.186ZM108.205 138.376V129.493H110.805V141.116H108.355L108.205 138.376ZM108.57 135.959L109.44 135.938C109.44 136.719 109.354 137.438 109.183 138.097C109.011 138.749 108.746 139.318 108.388 139.805C108.03 140.285 107.571 140.661 107.013 140.933C106.454 141.198 105.785 141.331 105.004 141.331C104.438 141.331 103.919 141.248 103.446 141.083C102.974 140.919 102.565 140.665 102.222 140.321C101.885 139.977 101.624 139.529 101.438 138.978C101.251 138.427 101.158 137.768 101.158 137.001V129.493H103.747V137.023C103.747 137.445 103.797 137.8 103.897 138.086C103.998 138.366 104.134 138.591 104.306 138.763C104.478 138.935 104.678 139.057 104.907 139.128C105.136 139.2 105.38 139.236 105.638 139.236C106.375 139.236 106.955 139.093 107.378 138.806C107.808 138.513 108.112 138.119 108.291 137.625C108.477 137.13 108.57 136.575 108.57 135.959ZM120.548 138.709V124.616H123.147V141.116H120.795L120.548 138.709ZM112.985 135.433V135.208C112.985 134.327 113.089 133.525 113.297 132.801C113.505 132.071 113.805 131.444 114.199 130.921C114.593 130.391 115.073 129.987 115.639 129.708C116.204 129.421 116.842 129.278 117.551 129.278C118.253 129.278 118.868 129.414 119.398 129.686C119.928 129.958 120.38 130.348 120.752 130.857C121.124 131.358 121.422 131.96 121.644 132.662C121.866 133.356 122.023 134.13 122.116 134.982V135.702C122.023 136.532 121.866 137.292 121.644 137.979C121.422 138.667 121.124 139.261 120.752 139.762C120.38 140.264 119.925 140.65 119.388 140.922C118.858 141.194 118.238 141.331 117.529 141.331C116.827 141.331 116.194 141.184 115.628 140.89C115.069 140.597 114.593 140.185 114.199 139.655C113.805 139.125 113.505 138.502 113.297 137.786C113.089 137.062 112.985 136.278 112.985 135.433ZM115.574 135.208V135.433C115.574 135.963 115.621 136.457 115.714 136.916C115.814 137.374 115.968 137.778 116.176 138.129C116.383 138.473 116.652 138.745 116.981 138.946C117.318 139.139 117.719 139.236 118.185 139.236C118.772 139.236 119.255 139.107 119.635 138.849C120.014 138.591 120.312 138.244 120.526 137.807C120.748 137.363 120.899 136.869 120.978 136.325V134.38C120.935 133.958 120.845 133.564 120.709 133.199C120.58 132.833 120.405 132.515 120.183 132.243C119.961 131.963 119.685 131.749 119.355 131.598C119.033 131.441 118.65 131.362 118.206 131.362C117.733 131.362 117.332 131.462 117.003 131.663C116.674 131.863 116.401 132.139 116.187 132.49C115.979 132.841 115.825 133.249 115.725 133.714C115.624 134.18 115.574 134.678 115.574 135.208ZM133.9 131.974V141.116H131.312V129.493H133.75L133.9 131.974ZM133.438 134.875L132.601 134.864C132.608 134.04 132.722 133.285 132.944 132.597C133.174 131.91 133.489 131.319 133.89 130.825C134.298 130.331 134.785 129.951 135.351 129.686C135.916 129.414 136.547 129.278 137.241 129.278C137.8 129.278 138.305 129.357 138.756 129.514C139.214 129.665 139.604 129.912 139.927 130.255C140.256 130.599 140.507 131.047 140.679 131.598C140.851 132.142 140.937 132.812 140.937 133.607V141.116H138.337V133.596C138.337 133.038 138.255 132.597 138.09 132.275C137.932 131.945 137.7 131.713 137.392 131.577C137.091 131.433 136.715 131.362 136.264 131.362C135.82 131.362 135.422 131.455 135.071 131.641C134.72 131.827 134.423 132.082 134.18 132.404C133.943 132.726 133.761 133.098 133.632 133.521C133.503 133.944 133.438 134.395 133.438 134.875ZM150.132 138.785V133.242C150.132 132.826 150.057 132.468 149.906 132.167C149.756 131.867 149.527 131.634 149.219 131.469C148.918 131.305 148.538 131.222 148.08 131.222C147.658 131.222 147.292 131.294 146.984 131.437C146.676 131.58 146.437 131.774 146.265 132.017C146.093 132.261 146.007 132.536 146.007 132.844H143.429C143.429 132.386 143.54 131.942 143.762 131.512C143.984 131.083 144.306 130.699 144.729 130.363C145.151 130.026 145.656 129.761 146.243 129.568C146.83 129.375 147.489 129.278 148.22 129.278C149.093 129.278 149.867 129.425 150.54 129.718C151.22 130.012 151.754 130.456 152.141 131.05C152.535 131.638 152.731 132.375 152.731 133.263V138.43C152.731 138.96 152.767 139.436 152.839 139.859C152.918 140.274 153.029 140.636 153.172 140.944V141.116H150.519C150.397 140.836 150.3 140.482 150.229 140.052C150.164 139.615 150.132 139.193 150.132 138.785ZM150.508 134.047L150.529 135.648H148.671C148.191 135.648 147.769 135.694 147.403 135.788C147.038 135.874 146.734 136.002 146.49 136.174C146.247 136.346 146.064 136.554 145.942 136.797C145.821 137.041 145.76 137.317 145.76 137.625C145.76 137.932 145.831 138.215 145.975 138.473C146.118 138.724 146.326 138.921 146.598 139.064C146.877 139.207 147.214 139.279 147.607 139.279C148.137 139.279 148.599 139.171 148.993 138.957C149.394 138.735 149.709 138.466 149.938 138.151C150.168 137.829 150.289 137.524 150.304 137.238L151.142 138.387C151.056 138.681 150.909 138.996 150.701 139.333C150.493 139.669 150.221 139.991 149.885 140.299C149.555 140.6 149.158 140.847 148.692 141.041C148.234 141.234 147.704 141.331 147.103 141.331C146.343 141.331 145.667 141.18 145.072 140.879C144.478 140.571 144.012 140.16 143.676 139.644C143.339 139.121 143.171 138.53 143.171 137.872C143.171 137.256 143.285 136.711 143.515 136.239C143.751 135.759 144.095 135.358 144.546 135.036C145.004 134.713 145.563 134.47 146.222 134.305C146.881 134.133 147.632 134.047 148.478 134.047H150.508ZM160.767 129.493V131.383H154.214V129.493H160.767ZM156.104 126.646H158.693V137.904C158.693 138.262 158.743 138.538 158.844 138.731C158.951 138.917 159.098 139.042 159.284 139.107C159.47 139.171 159.689 139.204 159.939 139.204C160.118 139.204 160.29 139.193 160.455 139.171C160.62 139.15 160.752 139.128 160.853 139.107L160.863 141.083C160.648 141.148 160.398 141.205 160.111 141.255C159.832 141.306 159.51 141.331 159.145 141.331C158.55 141.331 158.024 141.227 157.565 141.019C157.107 140.804 156.749 140.457 156.491 139.977C156.233 139.497 156.104 138.86 156.104 138.065V126.646ZM165.536 129.493V141.116H162.937V129.493H165.536ZM162.765 126.442C162.765 126.048 162.894 125.722 163.151 125.464C163.416 125.199 163.782 125.067 164.247 125.067C164.705 125.067 165.067 125.199 165.332 125.464C165.597 125.722 165.729 126.048 165.729 126.442C165.729 126.829 165.597 127.151 165.332 127.409C165.067 127.667 164.705 127.795 164.247 127.795C163.782 127.795 163.416 127.667 163.151 127.409C162.894 127.151 162.765 126.829 162.765 126.442ZM172.153 139.064L175 129.493H177.686L173.646 141.116H171.971L172.153 139.064ZM169.973 129.493L172.873 139.107L173.013 141.116H171.337L167.276 129.493H169.973ZM184.26 141.331C183.4 141.331 182.623 141.191 181.929 140.912C181.241 140.625 180.654 140.228 180.167 139.719C179.687 139.211 179.318 138.613 179.061 137.925C178.803 137.238 178.674 136.497 178.674 135.702V135.272C178.674 134.362 178.806 133.539 179.071 132.801C179.336 132.064 179.705 131.433 180.178 130.911C180.65 130.381 181.209 129.976 181.854 129.697C182.498 129.417 183.196 129.278 183.948 129.278C184.779 129.278 185.506 129.417 186.129 129.697C186.752 129.976 187.268 130.37 187.676 130.878C188.091 131.38 188.399 131.978 188.6 132.672C188.807 133.367 188.911 134.133 188.911 134.971V136.078H179.931V134.219H186.354V134.015C186.34 133.55 186.247 133.113 186.075 132.705C185.91 132.296 185.656 131.967 185.312 131.716C184.969 131.466 184.51 131.34 183.938 131.34C183.508 131.34 183.125 131.433 182.788 131.62C182.459 131.799 182.183 132.06 181.961 132.404C181.739 132.748 181.567 133.163 181.445 133.65C181.331 134.13 181.273 134.67 181.273 135.272V135.702C181.273 136.21 181.341 136.683 181.478 137.12C181.621 137.549 181.828 137.925 182.101 138.248C182.373 138.57 182.702 138.824 183.089 139.01C183.476 139.189 183.916 139.279 184.41 139.279C185.033 139.279 185.588 139.153 186.075 138.903C186.562 138.652 186.985 138.298 187.343 137.839L188.707 139.161C188.456 139.526 188.131 139.877 187.729 140.213C187.328 140.543 186.838 140.811 186.258 141.019C185.685 141.227 185.019 141.331 184.26 141.331Z" fill="black" fill-opacity="0.2"/>
<path d="M78.2451 136.024H80.9307C80.8447 137.048 80.5583 137.961 80.0713 138.763C79.5843 139.558 78.9004 140.185 78.0195 140.643C77.1387 141.101 76.068 141.331 74.8076 141.331C73.8408 141.331 72.9707 141.159 72.1973 140.815C71.4238 140.464 70.7614 139.97 70.21 139.333C69.6585 138.688 69.236 137.911 68.9424 137.001C68.6559 136.092 68.5127 135.075 68.5127 133.951V132.651C68.5127 131.527 68.6595 130.51 68.9531 129.6C69.2539 128.691 69.6836 127.914 70.2422 127.269C70.8008 126.617 71.4704 126.12 72.251 125.776C73.0387 125.432 73.9232 125.26 74.9043 125.26C76.1504 125.26 77.2031 125.489 78.0625 125.948C78.9219 126.406 79.5879 127.04 80.0605 127.849C80.5404 128.658 80.834 129.586 80.9414 130.631H78.2559C78.1842 129.958 78.0267 129.382 77.7832 128.902C77.5469 128.422 77.196 128.057 76.7305 127.806C76.265 127.548 75.6562 127.419 74.9043 127.419C74.2884 127.419 73.7513 127.534 73.293 127.763C72.8346 127.992 72.4515 128.329 72.1436 128.773C71.8356 129.217 71.6029 129.765 71.4453 130.417C71.2949 131.061 71.2197 131.799 71.2197 132.629V133.951C71.2197 134.738 71.2878 135.455 71.4238 136.099C71.5671 136.736 71.7819 137.284 72.0684 137.743C72.362 138.201 72.7344 138.556 73.1855 138.806C73.6367 139.057 74.1774 139.182 74.8076 139.182C75.5739 139.182 76.1934 139.06 76.666 138.817C77.1458 138.573 77.5075 138.219 77.751 137.753C78.0016 137.281 78.1663 136.704 78.2451 136.024ZM85.8936 124.616V141.116H83.2939V124.616H85.8936ZM88.2354 135.433V135.186C88.2354 134.348 88.3571 133.571 88.6006 132.855C88.8441 132.132 89.195 131.505 89.6533 130.975C90.1188 130.438 90.6846 130.023 91.3506 129.729C92.0238 129.428 92.7829 129.278 93.6279 129.278C94.4801 129.278 95.2393 129.428 95.9053 129.729C96.5785 130.023 97.1478 130.438 97.6133 130.975C98.0788 131.505 98.4333 132.132 98.6768 132.855C98.9202 133.571 99.042 134.348 99.042 135.186V135.433C99.042 136.271 98.9202 137.048 98.6768 137.764C98.4333 138.48 98.0788 139.107 97.6133 139.644C97.1478 140.174 96.582 140.589 95.916 140.89C95.25 141.184 94.4945 141.331 93.6494 141.331C92.7972 141.331 92.0345 141.184 91.3613 140.89C90.6953 140.589 90.1296 140.174 89.6641 139.644C89.1986 139.107 88.8441 138.48 88.6006 137.764C88.3571 137.048 88.2354 136.271 88.2354 135.433ZM90.8242 135.186V135.433C90.8242 135.956 90.8779 136.45 90.9854 136.916C91.0928 137.381 91.2611 137.789 91.4902 138.14C91.7194 138.491 92.013 138.767 92.3711 138.967C92.7292 139.168 93.1553 139.268 93.6494 139.268C94.1292 139.268 94.5446 139.168 94.8955 138.967C95.2536 138.767 95.5472 138.491 95.7764 138.14C96.0055 137.789 96.1738 137.381 96.2812 136.916C96.3958 136.45 96.4531 135.956 96.4531 135.433V135.186C96.4531 134.67 96.3958 134.183 96.2812 133.725C96.1738 133.26 96.002 132.848 95.7656 132.49C95.5365 132.132 95.2428 131.852 94.8848 131.652C94.5339 131.444 94.1149 131.34 93.6279 131.34C93.141 131.34 92.7184 131.444 92.3604 131.652C92.0094 131.852 91.7194 132.132 91.4902 132.49C91.2611 132.848 91.0928 133.26 90.9854 133.725C90.8779 134.183 90.8242 134.67 90.8242 135.186ZM108.205 138.376V129.493H110.805V141.116H108.355L108.205 138.376ZM108.57 135.959L109.44 135.938C109.44 136.719 109.354 137.438 109.183 138.097C109.011 138.749 108.746 139.318 108.388 139.805C108.03 140.285 107.571 140.661 107.013 140.933C106.454 141.198 105.785 141.331 105.004 141.331C104.438 141.331 103.919 141.248 103.446 141.083C102.974 140.919 102.565 140.665 102.222 140.321C101.885 139.977 101.624 139.529 101.438 138.978C101.251 138.427 101.158 137.768 101.158 137.001V129.493H103.747V137.023C103.747 137.445 103.797 137.8 103.897 138.086C103.998 138.366 104.134 138.591 104.306 138.763C104.478 138.935 104.678 139.057 104.907 139.128C105.136 139.2 105.38 139.236 105.638 139.236C106.375 139.236 106.955 139.093 107.378 138.806C107.808 138.513 108.112 138.119 108.291 137.625C108.477 137.13 108.57 136.575 108.57 135.959ZM120.548 138.709V124.616H123.147V141.116H120.795L120.548 138.709ZM112.985 135.433V135.208C112.985 134.327 113.089 133.525 113.297 132.801C113.505 132.071 113.805 131.444 114.199 130.921C114.593 130.391 115.073 129.987 115.639 129.708C116.204 129.421 116.842 129.278 117.551 129.278C118.253 129.278 118.868 129.414 119.398 129.686C119.928 129.958 120.38 130.348 120.752 130.857C121.124 131.358 121.422 131.96 121.644 132.662C121.866 133.356 122.023 134.13 122.116 134.982V135.702C122.023 136.532 121.866 137.292 121.644 137.979C121.422 138.667 121.124 139.261 120.752 139.762C120.38 140.264 119.925 140.65 119.388 140.922C118.858 141.194 118.238 141.331 117.529 141.331C116.827 141.331 116.194 141.184 115.628 140.89C115.069 140.597 114.593 140.185 114.199 139.655C113.805 139.125 113.505 138.502 113.297 137.786C113.089 137.062 112.985 136.278 112.985 135.433ZM115.574 135.208V135.433C115.574 135.963 115.621 136.457 115.714 136.916C115.814 137.374 115.968 137.778 116.176 138.129C116.383 138.473 116.652 138.745 116.981 138.946C117.318 139.139 117.719 139.236 118.185 139.236C118.772 139.236 119.255 139.107 119.635 138.849C120.014 138.591 120.312 138.244 120.526 137.807C120.748 137.363 120.899 136.869 120.978 136.325V134.38C120.935 133.958 120.845 133.564 120.709 133.199C120.58 132.833 120.405 132.515 120.183 132.243C119.961 131.963 119.685 131.749 119.355 131.598C119.033 131.441 118.65 131.362 118.206 131.362C117.733 131.362 117.332 131.462 117.003 131.663C116.674 131.863 116.401 132.139 116.187 132.49C115.979 132.841 115.825 133.249 115.725 133.714C115.624 134.18 115.574 134.678 115.574 135.208ZM133.9 131.974V141.116H131.312V129.493H133.75L133.9 131.974ZM133.438 134.875L132.601 134.864C132.608 134.04 132.722 133.285 132.944 132.597C133.174 131.91 133.489 131.319 133.89 130.825C134.298 130.331 134.785 129.951 135.351 129.686C135.916 129.414 136.547 129.278 137.241 129.278C137.8 129.278 138.305 129.357 138.756 129.514C139.214 129.665 139.604 129.912 139.927 130.255C140.256 130.599 140.507 131.047 140.679 131.598C140.851 132.142 140.937 132.812 140.937 133.607V141.116H138.337V133.596C138.337 133.038 138.255 132.597 138.09 132.275C137.932 131.945 137.7 131.713 137.392 131.577C137.091 131.433 136.715 131.362 136.264 131.362C135.82 131.362 135.422 131.455 135.071 131.641C134.72 131.827 134.423 132.082 134.18 132.404C133.943 132.726 133.761 133.098 133.632 133.521C133.503 133.944 133.438 134.395 133.438 134.875ZM150.132 138.785V133.242C150.132 132.826 150.057 132.468 149.906 132.167C149.756 131.867 149.527 131.634 149.219 131.469C148.918 131.305 148.538 131.222 148.08 131.222C147.658 131.222 147.292 131.294 146.984 131.437C146.676 131.58 146.437 131.774 146.265 132.017C146.093 132.261 146.007 132.536 146.007 132.844H143.429C143.429 132.386 143.54 131.942 143.762 131.512C143.984 131.083 144.306 130.699 144.729 130.363C145.151 130.026 145.656 129.761 146.243 129.568C146.83 129.375 147.489 129.278 148.22 129.278C149.093 129.278 149.867 129.425 150.54 129.718C151.22 130.012 151.754 130.456 152.141 131.05C152.535 131.638 152.731 132.375 152.731 133.263V138.43C152.731 138.96 152.767 139.436 152.839 139.859C152.918 140.274 153.029 140.636 153.172 140.944V141.116H150.519C150.397 140.836 150.3 140.482 150.229 140.052C150.164 139.615 150.132 139.193 150.132 138.785ZM150.508 134.047L150.529 135.648H148.671C148.191 135.648 147.769 135.694 147.403 135.788C147.038 135.874 146.734 136.002 146.49 136.174C146.247 136.346 146.064 136.554 145.942 136.797C145.821 137.041 145.76 137.317 145.76 137.625C145.76 137.932 145.831 138.215 145.975 138.473C146.118 138.724 146.326 138.921 146.598 139.064C146.877 139.207 147.214 139.279 147.607 139.279C148.137 139.279 148.599 139.171 148.993 138.957C149.394 138.735 149.709 138.466 149.938 138.151C150.168 137.829 150.289 137.524 150.304 137.238L151.142 138.387C151.056 138.681 150.909 138.996 150.701 139.333C150.493 139.669 150.221 139.991 149.885 140.299C149.555 140.6 149.158 140.847 148.692 141.041C148.234 141.234 147.704 141.331 147.103 141.331C146.343 141.331 145.667 141.18 145.072 140.879C144.478 140.571 144.012 140.16 143.676 139.644C143.339 139.121 143.171 138.53 143.171 137.872C143.171 137.256 143.285 136.711 143.515 136.239C143.751 135.759 144.095 135.358 144.546 135.036C145.004 134.713 145.563 134.47 146.222 134.305C146.881 134.133 147.632 134.047 148.478 134.047H150.508ZM160.767 129.493V131.383H154.214V129.493H160.767ZM156.104 126.646H158.693V137.904C158.693 138.262 158.743 138.538 158.844 138.731C158.951 138.917 159.098 139.042 159.284 139.107C159.47 139.171 159.689 139.204 159.939 139.204C160.118 139.204 160.29 139.193 160.455 139.171C160.62 139.15 160.752 139.128 160.853 139.107L160.863 141.083C160.648 141.148 160.398 141.205 160.111 141.255C159.832 141.306 159.51 141.331 159.145 141.331C158.55 141.331 158.024 141.227 157.565 141.019C157.107 140.804 156.749 140.457 156.491 139.977C156.233 139.497 156.104 138.86 156.104 138.065V126.646ZM165.536 129.493V141.116H162.937V129.493H165.536ZM162.765 126.442C162.765 126.048 162.894 125.722 163.151 125.464C163.416 125.199 163.782 125.067 164.247 125.067C164.705 125.067 165.067 125.199 165.332 125.464C165.597 125.722 165.729 126.048 165.729 126.442C165.729 126.829 165.597 127.151 165.332 127.409C165.067 127.667 164.705 127.795 164.247 127.795C163.782 127.795 163.416 127.667 163.151 127.409C162.894 127.151 162.765 126.829 162.765 126.442ZM172.153 139.064L175 129.493H177.686L173.646 141.116H171.971L172.153 139.064ZM169.973 129.493L172.873 139.107L173.013 141.116H171.337L167.276 129.493H169.973ZM184.26 141.331C183.4 141.331 182.623 141.191 181.929 140.912C181.241 140.625 180.654 140.228 180.167 139.719C179.687 139.211 179.318 138.613 179.061 137.925C178.803 137.238 178.674 136.497 178.674 135.702V135.272C178.674 134.362 178.806 133.539 179.071 132.801C179.336 132.064 179.705 131.433 180.178 130.911C180.65 130.381 181.209 129.976 181.854 129.697C182.498 129.417 183.196 129.278 183.948 129.278C184.779 129.278 185.506 129.417 186.129 129.697C186.752 129.976 187.268 130.37 187.676 130.878C188.091 131.38 188.399 131.978 188.6 132.672C188.807 133.367 188.911 134.133 188.911 134.971V136.078H179.931V134.219H186.354V134.015C186.34 133.55 186.247 133.113 186.075 132.705C185.91 132.296 185.656 131.967 185.312 131.716C184.969 131.466 184.51 131.34 183.938 131.34C183.508 131.34 183.125 131.433 182.788 131.62C182.459 131.799 182.183 132.06 181.961 132.404C181.739 132.748 181.567 133.163 181.445 133.65C181.331 134.13 181.273 134.67 181.273 135.272V135.702C181.273 136.21 181.341 136.683 181.478 137.12C181.621 137.549 181.828 137.925 182.101 138.248C182.373 138.57 182.702 138.824 183.089 139.01C183.476 139.189 183.916 139.279 184.41 139.279C185.033 139.279 185.588 139.153 186.075 138.903C186.562 138.652 186.985 138.298 187.343 137.839L188.707 139.161C188.456 139.526 188.131 139.877 187.729 140.213C187.328 140.543 186.838 140.811 186.258 141.019C185.685 141.227 185.019 141.331 184.26 141.331Z" fill="black" fill-opacity="0.2"/>
<path d="M78.2451 136.024H80.9307C80.8447 137.048 80.5583 137.961 80.0713 138.763C79.5843 139.558 78.9004 140.185 78.0195 140.643C77.1387 141.101 76.068 141.331 74.8076 141.331C73.8408 141.331 72.9707 141.159 72.1973 140.815C71.4238 140.464 70.7614 139.97 70.21 139.333C69.6585 138.688 69.236 137.911 68.9424 137.001C68.6559 136.092 68.5127 135.075 68.5127 133.951V132.651C68.5127 131.527 68.6595 130.51 68.9531 129.6C69.2539 128.691 69.6836 127.914 70.2422 127.269C70.8008 126.617 71.4704 126.12 72.251 125.776C73.0387 125.432 73.9232 125.26 74.9043 125.26C76.1504 125.26 77.2031 125.489 78.0625 125.948C78.9219 126.406 79.5879 127.04 80.0605 127.849C80.5404 128.658 80.834 129.586 80.9414 130.631H78.2559C78.1842 129.958 78.0267 129.382 77.7832 128.902C77.5469 128.422 77.196 128.057 76.7305 127.806C76.265 127.548 75.6562 127.419 74.9043 127.419C74.2884 127.419 73.7513 127.534 73.293 127.763C72.8346 127.992 72.4515 128.329 72.1436 128.773C71.8356 129.217 71.6029 129.765 71.4453 130.417C71.2949 131.061 71.2197 131.799 71.2197 132.629V133.951C71.2197 134.738 71.2878 135.455 71.4238 136.099C71.5671 136.736 71.7819 137.284 72.0684 137.743C72.362 138.201 72.7344 138.556 73.1855 138.806C73.6367 139.057 74.1774 139.182 74.8076 139.182C75.5739 139.182 76.1934 139.06 76.666 138.817C77.1458 138.573 77.5075 138.219 77.751 137.753C78.0016 137.281 78.1663 136.704 78.2451 136.024ZM85.8936 124.616V141.116H83.2939V124.616H85.8936ZM88.2354 135.433V135.186C88.2354 134.348 88.3571 133.571 88.6006 132.855C88.8441 132.132 89.195 131.505 89.6533 130.975C90.1188 130.438 90.6846 130.023 91.3506 129.729C92.0238 129.428 92.7829 129.278 93.6279 129.278C94.4801 129.278 95.2393 129.428 95.9053 129.729C96.5785 130.023 97.1478 130.438 97.6133 130.975C98.0788 131.505 98.4333 132.132 98.6768 132.855C98.9202 133.571 99.042 134.348 99.042 135.186V135.433C99.042 136.271 98.9202 137.048 98.6768 137.764C98.4333 138.48 98.0788 139.107 97.6133 139.644C97.1478 140.174 96.582 140.589 95.916 140.89C95.25 141.184 94.4945 141.331 93.6494 141.331C92.7972 141.331 92.0345 141.184 91.3613 140.89C90.6953 140.589 90.1296 140.174 89.6641 139.644C89.1986 139.107 88.8441 138.48 88.6006 137.764C88.3571 137.048 88.2354 136.271 88.2354 135.433ZM90.8242 135.186V135.433C90.8242 135.956 90.8779 136.45 90.9854 136.916C91.0928 137.381 91.2611 137.789 91.4902 138.14C91.7194 138.491 92.013 138.767 92.3711 138.967C92.7292 139.168 93.1553 139.268 93.6494 139.268C94.1292 139.268 94.5446 139.168 94.8955 138.967C95.2536 138.767 95.5472 138.491 95.7764 138.14C96.0055 137.789 96.1738 137.381 96.2812 136.916C96.3958 136.45 96.4531 135.956 96.4531 135.433V135.186C96.4531 134.67 96.3958 134.183 96.2812 133.725C96.1738 133.26 96.002 132.848 95.7656 132.49C95.5365 132.132 95.2428 131.852 94.8848 131.652C94.5339 131.444 94.1149 131.34 93.6279 131.34C93.141 131.34 92.7184 131.444 92.3604 131.652C92.0094 131.852 91.7194 132.132 91.4902 132.49C91.2611 132.848 91.0928 133.26 90.9854 133.725C90.8779 134.183 90.8242 134.67 90.8242 135.186ZM108.205 138.376V129.493H110.805V141.116H108.355L108.205 138.376ZM108.57 135.959L109.44 135.938C109.44 136.719 109.354 137.438 109.183 138.097C109.011 138.749 108.746 139.318 108.388 139.805C108.03 140.285 107.571 140.661 107.013 140.933C106.454 141.198 105.785 141.331 105.004 141.331C104.438 141.331 103.919 141.248 103.446 141.083C102.974 140.919 102.565 140.665 102.222 140.321C101.885 139.977 101.624 139.529 101.438 138.978C101.251 138.427 101.158 137.768 101.158 137.001V129.493H103.747V137.023C103.747 137.445 103.797 137.8 103.897 138.086C103.998 138.366 104.134 138.591 104.306 138.763C104.478 138.935 104.678 139.057 104.907 139.128C105.136 139.2 105.38 139.236 105.638 139.236C106.375 139.236 106.955 139.093 107.378 138.806C107.808 138.513 108.112 138.119 108.291 137.625C108.477 137.13 108.57 136.575 108.57 135.959ZM120.548 138.709V124.616H123.147V141.116H120.795L120.548 138.709ZM112.985 135.433V135.208C112.985 134.327 113.089 133.525 113.297 132.801C113.505 132.071 113.805 131.444 114.199 130.921C114.593 130.391 115.073 129.987 115.639 129.708C116.204 129.421 116.842 129.278 117.551 129.278C118.253 129.278 118.868 129.414 119.398 129.686C119.928 129.958 120.38 130.348 120.752 130.857C121.124 131.358 121.422 131.96 121.644 132.662C121.866 133.356 122.023 134.13 122.116 134.982V135.702C122.023 136.532 121.866 137.292 121.644 137.979C121.422 138.667 121.124 139.261 120.752 139.762C120.38 140.264 119.925 140.65 119.388 140.922C118.858 141.194 118.238 141.331 117.529 141.331C116.827 141.331 116.194 141.184 115.628 140.89C115.069 140.597 114.593 140.185 114.199 139.655C113.805 139.125 113.505 138.502 113.297 137.786C113.089 137.062 112.985 136.278 112.985 135.433ZM115.574 135.208V135.433C115.574 135.963 115.621 136.457 115.714 136.916C115.814 137.374 115.968 137.778 116.176 138.129C116.383 138.473 116.652 138.745 116.981 138.946C117.318 139.139 117.719 139.236 118.185 139.236C118.772 139.236 119.255 139.107 119.635 138.849C120.014 138.591 120.312 138.244 120.526 137.807C120.748 137.363 120.899 136.869 120.978 136.325V134.38C120.935 133.958 120.845 133.564 120.709 133.199C120.58 132.833 120.405 132.515 120.183 132.243C119.961 131.963 119.685 131.749 119.355 131.598C119.033 131.441 118.65 131.362 118.206 131.362C117.733 131.362 117.332 131.462 117.003 131.663C116.674 131.863 116.401 132.139 116.187 132.49C115.979 132.841 115.825 133.249 115.725 133.714C115.624 134.18 115.574 134.678 115.574 135.208ZM133.9 131.974V141.116H131.312V129.493H133.75L133.9 131.974ZM133.438 134.875L132.601 134.864C132.608 134.04 132.722 133.285 132.944 132.597C133.174 131.91 133.489 131.319 133.89 130.825C134.298 130.331 134.785 129.951 135.351 129.686C135.916 129.414 136.547 129.278 137.241 129.278C137.8 129.278 138.305 129.357 138.756 129.514C139.214 129.665 139.604 129.912 139.927 130.255C140.256 130.599 140.507 131.047 140.679 131.598C140.851 132.142 140.937 132.812 140.937 133.607V141.116H138.337V133.596C138.337 133.038 138.255 132.597 138.09 132.275C137.932 131.945 137.7 131.713 137.392 131.577C137.091 131.433 136.715 131.362 136.264 131.362C135.82 131.362 135.422 131.455 135.071 131.641C134.72 131.827 134.423 132.082 134.18 132.404C133.943 132.726 133.761 133.098 133.632 133.521C133.503 133.944 133.438 134.395 133.438 134.875ZM150.132 138.785V133.242C150.132 132.826 150.057 132.468 149.906 132.167C149.756 131.867 149.527 131.634 149.219 131.469C148.918 131.305 148.538 131.222 148.08 131.222C147.658 131.222 147.292 131.294 146.984 131.437C146.676 131.58 146.437 131.774 146.265 132.017C146.093 132.261 146.007 132.536 146.007 132.844H143.429C143.429 132.386 143.54 131.942 143.762 131.512C143.984 131.083 144.306 130.699 144.729 130.363C145.151 130.026 145.656 129.761 146.243 129.568C146.83 129.375 147.489 129.278 148.22 129.278C149.093 129.278 149.867 129.425 150.54 129.718C151.22 130.012 151.754 130.456 152.141 131.05C152.535 131.638 152.731 132.375 152.731 133.263V138.43C152.731 138.96 152.767 139.436 152.839 139.859C152.918 140.274 153.029 140.636 153.172 140.944V141.116H150.519C150.397 140.836 150.3 140.482 150.229 140.052C150.164 139.615 150.132 139.193 150.132 138.785ZM150.508 134.047L150.529 135.648H148.671C148.191 135.648 147.769 135.694 147.403 135.788C147.038 135.874 146.734 136.002 146.49 136.174C146.247 136.346 146.064 136.554 145.942 136.797C145.821 137.041 145.76 137.317 145.76 137.625C145.76 137.932 145.831 138.215 145.975 138.473C146.118 138.724 146.326 138.921 146.598 139.064C146.877 139.207 147.214 139.279 147.607 139.279C148.137 139.279 148.599 139.171 148.993 138.957C149.394 138.735 149.709 138.466 149.938 138.151C150.168 137.829 150.289 137.524 150.304 137.238L151.142 138.387C151.056 138.681 150.909 138.996 150.701 139.333C150.493 139.669 150.221 139.991 149.885 140.299C149.555 140.6 149.158 140.847 148.692 141.041C148.234 141.234 147.704 141.331 147.103 141.331C146.343 141.331 145.667 141.18 145.072 140.879C144.478 140.571 144.012 140.16 143.676 139.644C143.339 139.121 143.171 138.53 143.171 137.872C143.171 137.256 143.285 136.711 143.515 136.239C143.751 135.759 144.095 135.358 144.546 135.036C145.004 134.713 145.563 134.47 146.222 134.305C146.881 134.133 147.632 134.047 148.478 134.047H150.508ZM160.767 129.493V131.383H154.214V129.493H160.767ZM156.104 126.646H158.693V137.904C158.693 138.262 158.743 138.538 158.844 138.731C158.951 138.917 159.098 139.042 159.284 139.107C159.47 139.171 159.689 139.204 159.939 139.204C160.118 139.204 160.29 139.193 160.455 139.171C160.62 139.15 160.752 139.128 160.853 139.107L160.863 141.083C160.648 141.148 160.398 141.205 160.111 141.255C159.832 141.306 159.51 141.331 159.145 141.331C158.55 141.331 158.024 141.227 157.565 141.019C157.107 140.804 156.749 140.457 156.491 139.977C156.233 139.497 156.104 138.86 156.104 138.065V126.646ZM165.536 129.493V141.116H162.937V129.493H165.536ZM162.765 126.442C162.765 126.048 162.894 125.722 163.151 125.464C163.416 125.199 163.782 125.067 164.247 125.067C164.705 125.067 165.067 125.199 165.332 125.464C165.597 125.722 165.729 126.048 165.729 126.442C165.729 126.829 165.597 127.151 165.332 127.409C165.067 127.667 164.705 127.795 164.247 127.795C163.782 127.795 163.416 127.667 163.151 127.409C162.894 127.151 162.765 126.829 162.765 126.442ZM172.153 139.064L175 129.493H177.686L173.646 141.116H171.971L172.153 139.064ZM169.973 129.493L172.873 139.107L173.013 141.116H171.337L167.276 129.493H169.973ZM184.26 141.331C183.4 141.331 182.623 141.191 181.929 140.912C181.241 140.625 180.654 140.228 180.167 139.719C179.687 139.211 179.318 138.613 179.061 137.925C178.803 137.238 178.674 136.497 178.674 135.702V135.272C178.674 134.362 178.806 133.539 179.071 132.801C179.336 132.064 179.705 131.433 180.178 130.911C180.65 130.381 181.209 129.976 181.854 129.697C182.498 129.417 183.196 129.278 183.948 129.278C184.779 129.278 185.506 129.417 186.129 129.697C186.752 129.976 187.268 130.37 187.676 130.878C188.091 131.38 188.399 131.978 188.6 132.672C188.807 133.367 188.911 134.133 188.911 134.971V136.078H179.931V134.219H186.354V134.015C186.34 133.55 186.247 133.113 186.075 132.705C185.91 132.296 185.656 131.967 185.312 131.716C184.969 131.466 184.51 131.34 183.938 131.34C183.508 131.34 183.125 131.433 182.788 131.62C182.459 131.799 182.183 132.06 181.961 132.404C181.739 132.748 181.567 133.163 181.445 133.65C181.331 134.13 181.273 134.67 181.273 135.272V135.702C181.273 136.21 181.341 136.683 181.478 137.12C181.621 137.549 181.828 137.925 182.101 138.248C182.373 138.57 182.702 138.824 183.089 139.01C183.476 139.189 183.916 139.279 184.41 139.279C185.033 139.279 185.588 139.153 186.075 138.903C186.562 138.652 186.985 138.298 187.343 137.839L188.707 139.161C188.456 139.526 188.131 139.877 187.729 140.213C187.328 140.543 186.838 140.811 186.258 141.019C185.685 141.227 185.019 141.331 184.26 141.331Z" fill="black" fill-opacity="0.2"/>
<path d="M78.2451 136.024H80.9307C80.8447 137.048 80.5583 137.961 80.0713 138.763C79.5843 139.558 78.9004 140.185 78.0195 140.643C77.1387 141.101 76.068 141.331 74.8076 141.331C73.8408 141.331 72.9707 141.159 72.1973 140.815C71.4238 140.464 70.7614 139.97 70.21 139.333C69.6585 138.688 69.236 137.911 68.9424 137.001C68.6559 136.092 68.5127 135.075 68.5127 133.951V132.651C68.5127 131.527 68.6595 130.51 68.9531 129.6C69.2539 128.691 69.6836 127.914 70.2422 127.269C70.8008 126.617 71.4704 126.12 72.251 125.776C73.0387 125.432 73.9232 125.26 74.9043 125.26C76.1504 125.26 77.2031 125.489 78.0625 125.948C78.9219 126.406 79.5879 127.04 80.0605 127.849C80.5404 128.658 80.834 129.586 80.9414 130.631H78.2559C78.1842 129.958 78.0267 129.382 77.7832 128.902C77.5469 128.422 77.196 128.057 76.7305 127.806C76.265 127.548 75.6562 127.419 74.9043 127.419C74.2884 127.419 73.7513 127.534 73.293 127.763C72.8346 127.992 72.4515 128.329 72.1436 128.773C71.8356 129.217 71.6029 129.765 71.4453 130.417C71.2949 131.061 71.2197 131.799 71.2197 132.629V133.951C71.2197 134.738 71.2878 135.455 71.4238 136.099C71.5671 136.736 71.7819 137.284 72.0684 137.743C72.362 138.201 72.7344 138.556 73.1855 138.806C73.6367 139.057 74.1774 139.182 74.8076 139.182C75.5739 139.182 76.1934 139.06 76.666 138.817C77.1458 138.573 77.5075 138.219 77.751 137.753C78.0016 137.281 78.1663 136.704 78.2451 136.024ZM85.8936 124.616V141.116H83.2939V124.616H85.8936ZM88.2354 135.433V135.186C88.2354 134.348 88.3571 133.571 88.6006 132.855C88.8441 132.132 89.195 131.505 89.6533 130.975C90.1188 130.438 90.6846 130.023 91.3506 129.729C92.0238 129.428 92.7829 129.278 93.6279 129.278C94.4801 129.278 95.2393 129.428 95.9053 129.729C96.5785 130.023 97.1478 130.438 97.6133 130.975C98.0788 131.505 98.4333 132.132 98.6768 132.855C98.9202 133.571 99.042 134.348 99.042 135.186V135.433C99.042 136.271 98.9202 137.048 98.6768 137.764C98.4333 138.48 98.0788 139.107 97.6133 139.644C97.1478 140.174 96.582 140.589 95.916 140.89C95.25 141.184 94.4945 141.331 93.6494 141.331C92.7972 141.331 92.0345 141.184 91.3613 140.89C90.6953 140.589 90.1296 140.174 89.6641 139.644C89.1986 139.107 88.8441 138.48 88.6006 137.764C88.3571 137.048 88.2354 136.271 88.2354 135.433ZM90.8242 135.186V135.433C90.8242 135.956 90.8779 136.45 90.9854 136.916C91.0928 137.381 91.2611 137.789 91.4902 138.14C91.7194 138.491 92.013 138.767 92.3711 138.967C92.7292 139.168 93.1553 139.268 93.6494 139.268C94.1292 139.268 94.5446 139.168 94.8955 138.967C95.2536 138.767 95.5472 138.491 95.7764 138.14C96.0055 137.789 96.1738 137.381 96.2812 136.916C96.3958 136.45 96.4531 135.956 96.4531 135.433V135.186C96.4531 134.67 96.3958 134.183 96.2812 133.725C96.1738 133.26 96.002 132.848 95.7656 132.49C95.5365 132.132 95.2428 131.852 94.8848 131.652C94.5339 131.444 94.1149 131.34 93.6279 131.34C93.141 131.34 92.7184 131.444 92.3604 131.652C92.0094 131.852 91.7194 132.132 91.4902 132.49C91.2611 132.848 91.0928 133.26 90.9854 133.725C90.8779 134.183 90.8242 134.67 90.8242 135.186ZM108.205 138.376V129.493H110.805V141.116H108.355L108.205 138.376ZM108.57 135.959L109.44 135.938C109.44 136.719 109.354 137.438 109.183 138.097C109.011 138.749 108.746 139.318 108.388 139.805C108.03 140.285 107.571 140.661 107.013 140.933C106.454 141.198 105.785 141.331 105.004 141.331C104.438 141.331 103.919 141.248 103.446 141.083C102.974 140.919 102.565 140.665 102.222 140.321C101.885 139.977 101.624 139.529 101.438 138.978C101.251 138.427 101.158 137.768 101.158 137.001V129.493H103.747V137.023C103.747 137.445 103.797 137.8 103.897 138.086C103.998 138.366 104.134 138.591 104.306 138.763C104.478 138.935 104.678 139.057 104.907 139.128C105.136 139.2 105.38 139.236 105.638 139.236C106.375 139.236 106.955 139.093 107.378 138.806C107.808 138.513 108.112 138.119 108.291 137.625C108.477 137.13 108.57 136.575 108.57 135.959ZM120.548 138.709V124.616H123.147V141.116H120.795L120.548 138.709ZM112.985 135.433V135.208C112.985 134.327 113.089 133.525 113.297 132.801C113.505 132.071 113.805 131.444 114.199 130.921C114.593 130.391 115.073 129.987 115.639 129.708C116.204 129.421 116.842 129.278 117.551 129.278C118.253 129.278 118.868 129.414 119.398 129.686C119.928 129.958 120.38 130.348 120.752 130.857C121.124 131.358 121.422 131.96 121.644 132.662C121.866 133.356 122.023 134.13 122.116 134.982V135.702C122.023 136.532 121.866 137.292 121.644 137.979C121.422 138.667 121.124 139.261 120.752 139.762C120.38 140.264 119.925 140.65 119.388 140.922C118.858 141.194 118.238 141.331 117.529 141.331C116.827 141.331 116.194 141.184 115.628 140.89C115.069 140.597 114.593 140.185 114.199 139.655C113.805 139.125 113.505 138.502 113.297 137.786C113.089 137.062 112.985 136.278 112.985 135.433ZM115.574 135.208V135.433C115.574 135.963 115.621 136.457 115.714 136.916C115.814 137.374 115.968 137.778 116.176 138.129C116.383 138.473 116.652 138.745 116.981 138.946C117.318 139.139 117.719 139.236 118.185 139.236C118.772 139.236 119.255 139.107 119.635 138.849C120.014 138.591 120.312 138.244 120.526 137.807C120.748 137.363 120.899 136.869 120.978 136.325V134.38C120.935 133.958 120.845 133.564 120.709 133.199C120.58 132.833 120.405 132.515 120.183 132.243C119.961 131.963 119.685 131.749 119.355 131.598C119.033 131.441 118.65 131.362 118.206 131.362C117.733 131.362 117.332 131.462 117.003 131.663C116.674 131.863 116.401 132.139 116.187 132.49C115.979 132.841 115.825 133.249 115.725 133.714C115.624 134.18 115.574 134.678 115.574 135.208ZM133.9 131.974V141.116H131.312V129.493H133.75L133.9 131.974ZM133.438 134.875L132.601 134.864C132.608 134.04 132.722 133.285 132.944 132.597C133.174 131.91 133.489 131.319 133.89 130.825C134.298 130.331 134.785 129.951 135.351 129.686C135.916 129.414 136.547 129.278 137.241 129.278C137.8 129.278 138.305 129.357 138.756 129.514C139.214 129.665 139.604 129.912 139.927 130.255C140.256 130.599 140.507 131.047 140.679 131.598C140.851 132.142 140.937 132.812 140.937 133.607V141.116H138.337V133.596C138.337 133.038 138.255 132.597 138.09 132.275C137.932 131.945 137.7 131.713 137.392 131.577C137.091 131.433 136.715 131.362 136.264 131.362C135.82 131.362 135.422 131.455 135.071 131.641C134.72 131.827 134.423 132.082 134.18 132.404C133.943 132.726 133.761 133.098 133.632 133.521C133.503 133.944 133.438 134.395 133.438 134.875ZM150.132 138.785V133.242C150.132 132.826 150.057 132.468 149.906 132.167C149.756 131.867 149.527 131.634 149.219 131.469C148.918 131.305 148.538 131.222 148.08 131.222C147.658 131.222 147.292 131.294 146.984 131.437C146.676 131.58 146.437 131.774 146.265 132.017C146.093 132.261 146.007 132.536 146.007 132.844H143.429C143.429 132.386 143.54 131.942 143.762 131.512C143.984 131.083 144.306 130.699 144.729 130.363C145.151 130.026 145.656 129.761 146.243 129.568C146.83 129.375 147.489 129.278 148.22 129.278C149.093 129.278 149.867 129.425 150.54 129.718C151.22 130.012 151.754 130.456 152.141 131.05C152.535 131.638 152.731 132.375 152.731 133.263V138.43C152.731 138.96 152.767 139.436 152.839 139.859C152.918 140.274 153.029 140.636 153.172 140.944V141.116H150.519C150.397 140.836 150.3 140.482 150.229 140.052C150.164 139.615 150.132 139.193 150.132 138.785ZM150.508 134.047L150.529 135.648H148.671C148.191 135.648 147.769 135.694 147.403 135.788C147.038 135.874 146.734 136.002 146.49 136.174C146.247 136.346 146.064 136.554 145.942 136.797C145.821 137.041 145.76 137.317 145.76 137.625C145.76 137.932 145.831 138.215 145.975 138.473C146.118 138.724 146.326 138.921 146.598 139.064C146.877 139.207 147.214 139.279 147.607 139.279C148.137 139.279 148.599 139.171 148.993 138.957C149.394 138.735 149.709 138.466 149.938 138.151C150.168 137.829 150.289 137.524 150.304 137.238L151.142 138.387C151.056 138.681 150.909 138.996 150.701 139.333C150.493 139.669 150.221 139.991 149.885 140.299C149.555 140.6 149.158 140.847 148.692 141.041C148.234 141.234 147.704 141.331 147.103 141.331C146.343 141.331 145.667 141.18 145.072 140.879C144.478 140.571 144.012 140.16 143.676 139.644C143.339 139.121 143.171 138.53 143.171 137.872C143.171 137.256 143.285 136.711 143.515 136.239C143.751 135.759 144.095 135.358 144.546 135.036C145.004 134.713 145.563 134.47 146.222 134.305C146.881 134.133 147.632 134.047 148.478 134.047H150.508ZM160.767 129.493V131.383H154.214V129.493H160.767ZM156.104 126.646H158.693V137.904C158.693 138.262 158.743 138.538 158.844 138.731C158.951 138.917 159.098 139.042 159.284 139.107C159.47 139.171 159.689 139.204 159.939 139.204C160.118 139.204 160.29 139.193 160.455 139.171C160.62 139.15 160.752 139.128 160.853 139.107L160.863 141.083C160.648 141.148 160.398 141.205 160.111 141.255C159.832 141.306 159.51 141.331 159.145 141.331C158.55 141.331 158.024 141.227 157.565 141.019C157.107 140.804 156.749 140.457 156.491 139.977C156.233 139.497 156.104 138.86 156.104 138.065V126.646ZM165.536 129.493V141.116H162.937V129.493H165.536ZM162.765 126.442C162.765 126.048 162.894 125.722 163.151 125.464C163.416 125.199 163.782 125.067 164.247 125.067C164.705 125.067 165.067 125.199 165.332 125.464C165.597 125.722 165.729 126.048 165.729 126.442C165.729 126.829 165.597 127.151 165.332 127.409C165.067 127.667 164.705 127.795 164.247 127.795C163.782 127.795 163.416 127.667 163.151 127.409C162.894 127.151 162.765 126.829 162.765 126.442ZM172.153 139.064L175 129.493H177.686L173.646 141.116H171.971L172.153 139.064ZM169.973 129.493L172.873 139.107L173.013 141.116H171.337L167.276 129.493H169.973ZM184.26 141.331C183.4 141.331 182.623 141.191 181.929 140.912C181.241 140.625 180.654 140.228 180.167 139.719C179.687 139.211 179.318 138.613 179.061 137.925C178.803 137.238 178.674 136.497 178.674 135.702V135.272C178.674 134.362 178.806 133.539 179.071 132.801C179.336 132.064 179.705 131.433 180.178 130.911C180.65 130.381 181.209 129.976 181.854 129.697C182.498 129.417 183.196 129.278 183.948 129.278C184.779 129.278 185.506 129.417 186.129 129.697C186.752 129.976 187.268 130.37 187.676 130.878C188.091 131.38 188.399 131.978 188.6 132.672C188.807 133.367 188.911 134.133 188.911 134.971V136.078H179.931V134.219H186.354V134.015C186.34 133.55 186.247 133.113 186.075 132.705C185.91 132.296 185.656 131.967 185.312 131.716C184.969 131.466 184.51 131.34 183.938 131.34C183.508 131.34 183.125 131.433 182.788 131.62C182.459 131.799 182.183 132.06 181.961 132.404C181.739 132.748 181.567 133.163 181.445 133.65C181.331 134.13 181.273 134.67 181.273 135.272V135.702C181.273 136.21 181.341 136.683 181.478 137.12C181.621 137.549 181.828 137.925 182.101 138.248C182.373 138.57 182.702 138.824 183.089 139.01C183.476 139.189 183.916 139.279 184.41 139.279C185.033 139.279 185.588 139.153 186.075 138.903C186.562 138.652 186.985 138.298 187.343 137.839L188.707 139.161C188.456 139.526 188.131 139.877 187.729 140.213C187.328 140.543 186.838 140.811 186.258 141.019C185.685 141.227 185.019 141.331 184.26 141.331Z" fill="black" fill-opacity="0.2"/>
<path d="M78.2451 136.024H80.9307C80.8447 137.048 80.5583 137.961 80.0713 138.763C79.5843 139.558 78.9004 140.185 78.0195 140.643C77.1387 141.101 76.068 141.331 74.8076 141.331C73.8408 141.331 72.9707 141.159 72.1973 140.815C71.4238 140.464 70.7614 139.97 70.21 139.333C69.6585 138.688 69.236 137.911 68.9424 137.001C68.6559 136.092 68.5127 135.075 68.5127 133.951V132.651C68.5127 131.527 68.6595 130.51 68.9531 129.6C69.2539 128.691 69.6836 127.914 70.2422 127.269C70.8008 126.617 71.4704 126.12 72.251 125.776C73.0387 125.432 73.9232 125.26 74.9043 125.26C76.1504 125.26 77.2031 125.489 78.0625 125.948C78.9219 126.406 79.5879 127.04 80.0605 127.849C80.5404 128.658 80.834 129.586 80.9414 130.631H78.2559C78.1842 129.958 78.0267 129.382 77.7832 128.902C77.5469 128.422 77.196 128.057 76.7305 127.806C76.265 127.548 75.6562 127.419 74.9043 127.419C74.2884 127.419 73.7513 127.534 73.293 127.763C72.8346 127.992 72.4515 128.329 72.1436 128.773C71.8356 129.217 71.6029 129.765 71.4453 130.417C71.2949 131.061 71.2197 131.799 71.2197 132.629V133.951C71.2197 134.738 71.2878 135.455 71.4238 136.099C71.5671 136.736 71.7819 137.284 72.0684 137.743C72.362 138.201 72.7344 138.556 73.1855 138.806C73.6367 139.057 74.1774 139.182 74.8076 139.182C75.5739 139.182 76.1934 139.06 76.666 138.817C77.1458 138.573 77.5075 138.219 77.751 137.753C78.0016 137.281 78.1663 136.704 78.2451 136.024ZM85.8936 124.616V141.116H83.2939V124.616H85.8936ZM88.2354 135.433V135.186C88.2354 134.348 88.3571 133.571 88.6006 132.855C88.8441 132.132 89.195 131.505 89.6533 130.975C90.1188 130.438 90.6846 130.023 91.3506 129.729C92.0238 129.428 92.7829 129.278 93.6279 129.278C94.4801 129.278 95.2393 129.428 95.9053 129.729C96.5785 130.023 97.1478 130.438 97.6133 130.975C98.0788 131.505 98.4333 132.132 98.6768 132.855C98.9202 133.571 99.042 134.348 99.042 135.186V135.433C99.042 136.271 98.9202 137.048 98.6768 137.764C98.4333 138.48 98.0788 139.107 97.6133 139.644C97.1478 140.174 96.582 140.589 95.916 140.89C95.25 141.184 94.4945 141.331 93.6494 141.331C92.7972 141.331 92.0345 141.184 91.3613 140.89C90.6953 140.589 90.1296 140.174 89.6641 139.644C89.1986 139.107 88.8441 138.48 88.6006 137.764C88.3571 137.048 88.2354 136.271 88.2354 135.433ZM90.8242 135.186V135.433C90.8242 135.956 90.8779 136.45 90.9854 136.916C91.0928 137.381 91.2611 137.789 91.4902 138.14C91.7194 138.491 92.013 138.767 92.3711 138.967C92.7292 139.168 93.1553 139.268 93.6494 139.268C94.1292 139.268 94.5446 139.168 94.8955 138.967C95.2536 138.767 95.5472 138.491 95.7764 138.14C96.0055 137.789 96.1738 137.381 96.2812 136.916C96.3958 136.45 96.4531 135.956 96.4531 135.433V135.186C96.4531 134.67 96.3958 134.183 96.2812 133.725C96.1738 133.26 96.002 132.848 95.7656 132.49C95.5365 132.132 95.2428 131.852 94.8848 131.652C94.5339 131.444 94.1149 131.34 93.6279 131.34C93.141 131.34 92.7184 131.444 92.3604 131.652C92.0094 131.852 91.7194 132.132 91.4902 132.49C91.2611 132.848 91.0928 133.26 90.9854 133.725C90.8779 134.183 90.8242 134.67 90.8242 135.186ZM108.205 138.376V129.493H110.805V141.116H108.355L108.205 138.376ZM108.57 135.959L109.44 135.938C109.44 136.719 109.354 137.438 109.183 138.097C109.011 138.749 108.746 139.318 108.388 139.805C108.03 140.285 107.571 140.661 107.013 140.933C106.454 141.198 105.785 141.331 105.004 141.331C104.438 141.331 103.919 141.248 103.446 141.083C102.974 140.919 102.565 140.665 102.222 140.321C101.885 139.977 101.624 139.529 101.438 138.978C101.251 138.427 101.158 137.768 101.158 137.001V129.493H103.747V137.023C103.747 137.445 103.797 137.8 103.897 138.086C103.998 138.366 104.134 138.591 104.306 138.763C104.478 138.935 104.678 139.057 104.907 139.128C105.136 139.2 105.38 139.236 105.638 139.236C106.375 139.236 106.955 139.093 107.378 138.806C107.808 138.513 108.112 138.119 108.291 137.625C108.477 137.13 108.57 136.575 108.57 135.959ZM120.548 138.709V124.616H123.147V141.116H120.795L120.548 138.709ZM112.985 135.433V135.208C112.985 134.327 113.089 133.525 113.297 132.801C113.505 132.071 113.805 131.444 114.199 130.921C114.593 130.391 115.073 129.987 115.639 129.708C116.204 129.421 116.842 129.278 117.551 129.278C118.253 129.278 118.868 129.414 119.398 129.686C119.928 129.958 120.38 130.348 120.752 130.857C121.124 131.358 121.422 131.96 121.644 132.662C121.866 133.356 122.023 134.13 122.116 134.982V135.702C122.023 136.532 121.866 137.292 121.644 137.979C121.422 138.667 121.124 139.261 120.752 139.762C120.38 140.264 119.925 140.65 119.388 140.922C118.858 141.194 118.238 141.331 117.529 141.331C116.827 141.331 116.194 141.184 115.628 140.89C115.069 140.597 114.593 140.185 114.199 139.655C113.805 139.125 113.505 138.502 113.297 137.786C113.089 137.062 112.985 136.278 112.985 135.433ZM115.574 135.208V135.433C115.574 135.963 115.621 136.457 115.714 136.916C115.814 137.374 115.968 137.778 116.176 138.129C116.383 138.473 116.652 138.745 116.981 138.946C117.318 139.139 117.719 139.236 118.185 139.236C118.772 139.236 119.255 139.107 119.635 138.849C120.014 138.591 120.312 138.244 120.526 137.807C120.748 137.363 120.899 136.869 120.978 136.325V134.38C120.935 133.958 120.845 133.564 120.709 133.199C120.58 132.833 120.405 132.515 120.183 132.243C119.961 131.963 119.685 131.749 119.355 131.598C119.033 131.441 118.65 131.362 118.206 131.362C117.733 131.362 117.332 131.462 117.003 131.663C116.674 131.863 116.401 132.139 116.187 132.49C115.979 132.841 115.825 133.249 115.725 133.714C115.624 134.18 115.574 134.678 115.574 135.208ZM133.9 131.974V141.116H131.312V129.493H133.75L133.9 131.974ZM133.438 134.875L132.601 134.864C132.608 134.04 132.722 133.285 132.944 132.597C133.174 131.91 133.489 131.319 133.89 130.825C134.298 130.331 134.785 129.951 135.351 129.686C135.916 129.414 136.547 129.278 137.241 129.278C137.8 129.278 138.305 129.357 138.756 129.514C139.214 129.665 139.604 129.912 139.927 130.255C140.256 130.599 140.507 131.047 140.679 131.598C140.851 132.142 140.937 132.812 140.937 133.607V141.116H138.337V133.596C138.337 133.038 138.255 132.597 138.09 132.275C137.932 131.945 137.7 131.713 137.392 131.577C137.091 131.433 136.715 131.362 136.264 131.362C135.82 131.362 135.422 131.455 135.071 131.641C134.72 131.827 134.423 132.082 134.18 132.404C133.943 132.726 133.761 133.098 133.632 133.521C133.503 133.944 133.438 134.395 133.438 134.875ZM150.132 138.785V133.242C150.132 132.826 150.057 132.468 149.906 132.167C149.756 131.867 149.527 131.634 149.219 131.469C148.918 131.305 148.538 131.222 148.08 131.222C147.658 131.222 147.292 131.294 146.984 131.437C146.676 131.58 146.437 131.774 146.265 132.017C146.093 132.261 146.007 132.536 146.007 132.844H143.429C143.429 132.386 143.54 131.942 143.762 131.512C143.984 131.083 144.306 130.699 144.729 130.363C145.151 130.026 145.656 129.761 146.243 129.568C146.83 129.375 147.489 129.278 148.22 129.278C149.093 129.278 149.867 129.425 150.54 129.718C151.22 130.012 151.754 130.456 152.141 131.05C152.535 131.638 152.731 132.375 152.731 133.263V138.43C152.731 138.96 152.767 139.436 152.839 139.859C152.918 140.274 153.029 140.636 153.172 140.944V141.116H150.519C150.397 140.836 150.3 140.482 150.229 140.052C150.164 139.615 150.132 139.193 150.132 138.785ZM150.508 134.047L150.529 135.648H148.671C148.191 135.648 147.769 135.694 147.403 135.788C147.038 135.874 146.734 136.002 146.49 136.174C146.247 136.346 146.064 136.554 145.942 136.797C145.821 137.041 145.76 137.317 145.76 137.625C145.76 137.932 145.831 138.215 145.975 138.473C146.118 138.724 146.326 138.921 146.598 139.064C146.877 139.207 147.214 139.279 147.607 139.279C148.137 139.279 148.599 139.171 148.993 138.957C149.394 138.735 149.709 138.466 149.938 138.151C150.168 137.829 150.289 137.524 150.304 137.238L151.142 138.387C151.056 138.681 150.909 138.996 150.701 139.333C150.493 139.669 150.221 139.991 149.885 140.299C149.555 140.6 149.158 140.847 148.692 141.041C148.234 141.234 147.704 141.331 147.103 141.331C146.343 141.331 145.667 141.18 145.072 140.879C144.478 140.571 144.012 140.16 143.676 139.644C143.339 139.121 143.171 138.53 143.171 137.872C143.171 137.256 143.285 136.711 143.515 136.239C143.751 135.759 144.095 135.358 144.546 135.036C145.004 134.713 145.563 134.47 146.222 134.305C146.881 134.133 147.632 134.047 148.478 134.047H150.508ZM160.767 129.493V131.383H154.214V129.493H160.767ZM156.104 126.646H158.693V137.904C158.693 138.262 158.743 138.538 158.844 138.731C158.951 138.917 159.098 139.042 159.284 139.107C159.47 139.171 159.689 139.204 159.939 139.204C160.118 139.204 160.29 139.193 160.455 139.171C160.62 139.15 160.752 139.128 160.853 139.107L160.863 141.083C160.648 141.148 160.398 141.205 160.111 141.255C159.832 141.306 159.51 141.331 159.145 141.331C158.55 141.331 158.024 141.227 157.565 141.019C157.107 140.804 156.749 140.457 156.491 139.977C156.233 139.497 156.104 138.86 156.104 138.065V126.646ZM165.536 129.493V141.116H162.937V129.493H165.536ZM162.765 126.442C162.765 126.048 162.894 125.722 163.151 125.464C163.416 125.199 163.782 125.067 164.247 125.067C164.705 125.067 165.067 125.199 165.332 125.464C165.597 125.722 165.729 126.048 165.729 126.442C165.729 126.829 165.597 127.151 165.332 127.409C165.067 127.667 164.705 127.795 164.247 127.795C163.782 127.795 163.416 127.667 163.151 127.409C162.894 127.151 162.765 126.829 162.765 126.442ZM172.153 139.064L175 129.493H177.686L173.646 141.116H171.971L172.153 139.064ZM169.973 129.493L172.873 139.107L173.013 141.116H171.337L167.276 129.493H169.973ZM184.26 141.331C183.4 141.331 182.623 141.191 181.929 140.912C181.241 140.625 180.654 140.228 180.167 139.719C179.687 139.211 179.318 138.613 179.061 137.925C178.803 137.238 178.674 136.497 178.674 135.702V135.272C178.674 134.362 178.806 133.539 179.071 132.801C179.336 132.064 179.705 131.433 180.178 130.911C180.65 130.381 181.209 129.976 181.854 129.697C182.498 129.417 183.196 129.278 183.948 129.278C184.779 129.278 185.506 129.417 186.129 129.697C186.752 129.976 187.268 130.37 187.676 130.878C188.091 131.38 188.399 131.978 188.6 132.672C188.807 133.367 188.911 134.133 188.911 134.971V136.078H179.931V134.219H186.354V134.015C186.34 133.55 186.247 133.113 186.075 132.705C185.91 132.296 185.656 131.967 185.312 131.716C184.969 131.466 184.51 131.34 183.938 131.34C183.508 131.34 183.125 131.433 182.788 131.62C182.459 131.799 182.183 132.06 181.961 132.404C181.739 132.748 181.567 133.163 181.445 133.65C181.331 134.13 181.273 134.67 181.273 135.272V135.702C181.273 136.21 181.341 136.683 181.478 137.12C181.621 137.549 181.828 137.925 182.101 138.248C182.373 138.57 182.702 138.824 183.089 139.01C183.476 139.189 183.916 139.279 184.41 139.279C185.033 139.279 185.588 139.153 186.075 138.903C186.562 138.652 186.985 138.298 187.343 137.839L188.707 139.161C188.456 139.526 188.131 139.877 187.729 140.213C187.328 140.543 186.838 140.811 186.258 141.019C185.685 141.227 185.019 141.331 184.26 141.331Z" fill="black" fill-opacity="0.2"/>
<defs>
<linearGradient id="paint0_linear_1197_6433" x1="27.2376" y1="134.315" x2="221.562" y2="134.315" gradientUnits="userSpaceOnUse">
<stop stop-color="white"/>
<stop offset="0.29" stop-color="#FAFAFA"/>
<stop offset="0.6" stop-color="#EDEEEE"/>
<stop offset="0.92" stop-color="#D7D9DA"/>
<stop offset="1" stop-color="#D1D3D4"/>
</linearGradient>
<linearGradient id="paint1_linear_1197_6433" x1="30.3867" y1="134.315" x2="218.429" y2="134.315" gradientUnits="userSpaceOnUse">
<stop stop-color="#D1D3D4"/>
<stop offset="0.08" stop-color="#D7D9DA"/>
<stop offset="0.4" stop-color="#EDEEEE"/>
<stop offset="0.71" stop-color="#FAFAFA"/>
<stop offset="1" stop-color="white"/>
</linearGradient>
</defs>
</svg>
