<svg width="212" height="240" viewBox="0 0 212 240" fill="none" xmlns="http://www.w3.org/2000/svg">
<path fill-rule="evenodd" clip-rule="evenodd" d="M113.935 234.193C116.527 234.193 118.604 232.098 118.604 229.525C118.604 226.952 116.508 224.858 113.935 224.858C111.362 224.858 109.266 226.952 109.266 229.525C109.266 232.098 111.362 234.193 113.935 234.193ZM95.4806 20.433L34.7133 55.5145C23.5193 61.9832 16.2588 74.553 16.2588 87.4719V157.635C16.2588 170.554 23.5193 183.124 34.7133 189.592L95.4806 224.674C98.054 226.162 100.811 227.302 103.642 228.11C103.587 228.57 103.55 229.047 103.55 229.525C103.55 235.259 108.2 239.908 113.935 239.908C119.67 239.908 124.32 235.259 124.32 229.525C124.32 229.047 124.284 228.57 124.228 228.11C127.077 227.302 129.816 226.162 132.39 224.674L193.157 189.592C204.351 183.124 211.611 170.554 211.611 157.635V87.4719C211.611 74.553 204.351 61.9832 193.157 55.5145L132.371 20.433C121.177 13.9644 106.656 13.9644 95.4623 20.433H95.4806Z" fill="#6F2C8E"/>
<path fill-rule="evenodd" clip-rule="evenodd" d="M100.133 28.4641L39.3654 63.5456C31.0389 68.3603 25.543 77.8612 25.543 87.4723V157.635C25.543 167.246 31.0389 176.766 39.3654 181.562L100.133 216.643C108.459 221.458 119.451 221.458 127.778 216.643L188.545 181.562C196.872 176.747 202.368 167.246 202.368 157.635V87.4723C202.368 77.8612 196.872 68.3603 188.545 63.5456L127.759 28.4641C119.433 23.6493 108.441 23.6493 100.114 28.4641" fill="url(#paint0_linear_1376_24864)"/>
<path fill-rule="evenodd" clip-rule="evenodd" d="M101.547 30.9258L40.7794 66.0073C33.3351 70.3075 28.3906 78.8711 28.3906 87.4715V157.634C28.3906 166.235 33.3351 174.798 40.7794 179.099L101.547 214.18C108.991 218.48 118.88 218.48 126.324 214.18L187.092 179.099C194.536 174.798 199.48 166.235 199.48 157.634V87.4715C199.48 78.8711 194.536 70.3075 187.092 66.0073L126.306 30.9258C118.862 26.6256 108.973 26.6256 101.528 30.9258" fill="url(#paint1_linear_1376_24864)"/>
<path d="M0.784492 152.746C0.784492 151.111 3.26592 151.111 3.26592 152.746V162.707C3.26592 164.342 0.784492 164.342 0.784492 162.707V152.746ZM0.784492 130.345C0.784492 128.709 3.26592 128.709 3.26592 130.345V140.305C3.26592 141.941 0.784492 141.941 0.784492 140.305V130.345ZM0.784492 107.944C0.784492 106.308 3.26592 106.308 3.26592 107.944V117.904C3.26592 119.539 0.784492 119.539 0.784492 117.904V107.944ZM0.784492 93.0031C0.784492 91.3676 3.26592 91.3676 3.26592 93.0031C3.26592 94.6387 3.65192 96.7337 2.01602 96.7337C0.380112 96.7337 0.784492 94.6387 0.784492 93.0031ZM3.68868 70.4915C4.12982 69.2051 6.73992 69.2235 5.87601 71.8146C4.60773 75.5635 4.4423 76.9969 3.7622 80.7274C3.50487 82.1056 0.949921 82.5651 1.39106 79.735L3.68868 70.4915ZM15.5811 51.0671C16.5553 50.0564 18.8162 51.2692 17.0884 53.1069L11.3719 60.4209C10.6183 61.597 8.08173 60.8803 9.58896 58.6016L15.5811 51.0855V51.0671ZM34.0908 38.0011C35.5061 37.1742 36.756 39.3426 35.3407 40.1512L26.7751 45.1313C25.5804 45.8848 23.632 44.139 25.8929 42.7424L34.0908 37.9827V38.0011ZM47.0309 30.5217C48.4463 29.6948 49.6962 31.8632 48.2808 32.6718C46.8655 33.4988 45.2296 34.877 44.4208 33.462C43.6121 32.047 45.6156 31.3303 47.0309 30.5217ZM66.4412 19.3302C67.8565 18.5032 69.1064 20.6717 67.6911 21.4803L59.0705 26.4604C57.6551 27.2874 56.4052 25.1189 57.8206 24.3103L66.4412 19.3302ZM85.8515 8.1203C87.2668 7.29334 88.5167 9.46182 87.1014 10.2704L78.4807 15.2505C77.0654 16.0775 75.8155 13.909 77.2308 13.1004L85.8515 8.1203ZM107.265 0.493896C108.625 0.310127 109.71 2.66237 107.081 3.02991L98.1116 5.08812C96.7698 5.52916 95.3177 3.36069 97.7991 2.57048L107.265 0.493896ZM122.503 0.769549C123.9 0.990072 124.176 3.54446 121.676 3.15854C120.316 2.9564 118.423 3.02991 118.588 1.523C118.772 -0.167672 121.363 0.58578 122.485 0.769549H122.503ZM143.66 9.00239C145.075 9.82935 143.843 11.9794 142.41 11.1525C139.248 9.33318 137.042 7.95491 133.752 6.55827C132.447 6.00696 132.796 3.41582 135.186 4.4633C138.366 5.85995 140.59 7.21984 143.66 9.00239ZM163.07 20.2123C164.485 21.0393 163.254 23.1894 161.82 22.3624L153.199 17.3823C151.784 16.5553 153.034 14.4052 154.449 15.2322L163.07 20.2123ZM182.48 31.4222C183.895 32.2492 182.664 34.3993 181.23 33.5723L172.61 28.5922C171.194 27.7652 172.444 25.6151 173.859 26.4421L182.48 31.4222ZM193.362 31.606L200.365 43.165L186.855 42.8894L193.362 31.6243V31.606ZM3.2843 177.647C3.2843 179.283 0.802873 179.283 0.802873 177.647C0.802873 176.012 0.416874 173.917 2.05278 173.917C3.68868 173.917 3.30268 176.012 3.30268 177.647H3.2843Z" fill="#6F2C8E"/>
<path d="M66.9512 125.721H69.6367C69.5508 126.745 69.2643 127.658 68.7773 128.46C68.2904 129.255 67.6064 129.882 66.7256 130.34C65.8447 130.798 64.7741 131.027 63.5137 131.027C62.5469 131.027 61.6768 130.855 60.9033 130.512C60.1299 130.161 59.4674 129.667 58.916 129.029C58.3646 128.385 57.9421 127.608 57.6484 126.698C57.362 125.789 57.2188 124.772 57.2188 123.647V122.348C57.2188 121.223 57.3656 120.206 57.6592 119.297C57.96 118.387 58.3896 117.61 58.9482 116.966C59.5068 116.314 60.1764 115.816 60.957 115.473C61.7448 115.129 62.6292 114.957 63.6104 114.957C64.8564 114.957 65.9092 115.186 66.7686 115.645C67.6279 116.103 68.2939 116.737 68.7666 117.546C69.2464 118.355 69.54 119.283 69.6475 120.328H66.9619C66.8903 119.655 66.7327 119.078 66.4893 118.599C66.2529 118.119 65.902 117.754 65.4365 117.503C64.971 117.245 64.3623 117.116 63.6104 117.116C62.9945 117.116 62.4574 117.231 61.999 117.46C61.5407 117.689 61.1576 118.026 60.8496 118.47C60.5417 118.914 60.3089 119.462 60.1514 120.113C60.001 120.758 59.9258 121.495 59.9258 122.326V123.647C59.9258 124.435 59.9938 125.151 60.1299 125.796C60.2731 126.433 60.488 126.981 60.7744 127.439C61.068 127.898 61.4404 128.252 61.8916 128.503C62.3428 128.754 62.8835 128.879 63.5137 128.879C64.2799 128.879 64.8994 128.757 65.3721 128.514C65.8519 128.27 66.2135 127.916 66.457 127.45C66.7077 126.978 66.8724 126.401 66.9512 125.721ZM74.5996 114.312V130.812H72V114.312H74.5996ZM76.9414 125.13V124.883C76.9414 124.045 77.0632 123.268 77.3066 122.552C77.5501 121.828 77.901 121.202 78.3594 120.672C78.8249 120.135 79.3906 119.719 80.0566 119.426C80.7298 119.125 81.4889 118.975 82.334 118.975C83.1862 118.975 83.9453 119.125 84.6113 119.426C85.2845 119.719 85.8538 120.135 86.3193 120.672C86.7848 121.202 87.1393 121.828 87.3828 122.552C87.6263 123.268 87.748 124.045 87.748 124.883V125.13C87.748 125.968 87.6263 126.745 87.3828 127.461C87.1393 128.177 86.7848 128.804 86.3193 129.341C85.8538 129.871 85.2881 130.286 84.6221 130.587C83.9561 130.881 83.2005 131.027 82.3555 131.027C81.5033 131.027 80.7406 130.881 80.0674 130.587C79.4014 130.286 78.8356 129.871 78.3701 129.341C77.9046 128.804 77.5501 128.177 77.3066 127.461C77.0632 126.745 76.9414 125.968 76.9414 125.13ZM79.5303 124.883V125.13C79.5303 125.653 79.584 126.147 79.6914 126.612C79.7988 127.078 79.9671 127.486 80.1963 127.837C80.4255 128.188 80.7191 128.464 81.0771 128.664C81.4352 128.865 81.8613 128.965 82.3555 128.965C82.8353 128.965 83.2507 128.865 83.6016 128.664C83.9596 128.464 84.2533 128.188 84.4824 127.837C84.7116 127.486 84.8799 127.078 84.9873 126.612C85.1019 126.147 85.1592 125.653 85.1592 125.13V124.883C85.1592 124.367 85.1019 123.88 84.9873 123.422C84.8799 122.956 84.708 122.545 84.4717 122.187C84.2425 121.828 83.9489 121.549 83.5908 121.349C83.2399 121.141 82.821 121.037 82.334 121.037C81.847 121.037 81.4245 121.141 81.0664 121.349C80.7155 121.549 80.4255 121.828 80.1963 122.187C79.9671 122.545 79.7988 122.956 79.6914 123.422C79.584 123.88 79.5303 124.367 79.5303 124.883ZM96.9111 128.073V119.189H99.5107V130.812H97.0615L96.9111 128.073ZM97.2764 125.656L98.1465 125.635C98.1465 126.415 98.0605 127.135 97.8887 127.794C97.7168 128.446 97.4518 129.015 97.0938 129.502C96.7357 129.982 96.2773 130.358 95.7188 130.63C95.1602 130.895 94.4906 131.027 93.71 131.027C93.1442 131.027 92.625 130.945 92.1523 130.78C91.6797 130.616 91.2715 130.361 90.9277 130.018C90.5911 129.674 90.3298 129.226 90.1436 128.675C89.9574 128.123 89.8643 127.465 89.8643 126.698V119.189H92.4531V126.72C92.4531 127.142 92.5033 127.497 92.6035 127.783C92.7038 128.062 92.8398 128.288 93.0117 128.46C93.1836 128.632 93.3841 128.754 93.6133 128.825C93.8424 128.897 94.0859 128.933 94.3438 128.933C95.0814 128.933 95.6615 128.789 96.084 128.503C96.5137 128.209 96.818 127.815 96.9971 127.321C97.1833 126.827 97.2764 126.272 97.2764 125.656ZM109.254 128.406V114.312H111.854V130.812H109.501L109.254 128.406ZM101.691 125.13V124.904C101.691 124.023 101.795 123.221 102.003 122.498C102.211 121.768 102.511 121.141 102.905 120.618C103.299 120.088 103.779 119.684 104.345 119.404C104.91 119.118 105.548 118.975 106.257 118.975C106.959 118.975 107.575 119.111 108.104 119.383C108.634 119.655 109.086 120.045 109.458 120.554C109.83 121.055 110.128 121.657 110.35 122.358C110.572 123.053 110.729 123.826 110.822 124.679V125.398C110.729 126.229 110.572 126.988 110.35 127.676C110.128 128.363 109.83 128.958 109.458 129.459C109.086 129.96 108.631 130.347 108.094 130.619C107.564 130.891 106.944 131.027 106.235 131.027C105.534 131.027 104.9 130.881 104.334 130.587C103.775 130.293 103.299 129.882 102.905 129.352C102.511 128.822 102.211 128.199 102.003 127.482C101.795 126.759 101.691 125.975 101.691 125.13ZM104.28 124.904V125.13C104.28 125.66 104.327 126.154 104.42 126.612C104.52 127.071 104.674 127.475 104.882 127.826C105.09 128.17 105.358 128.442 105.688 128.643C106.024 128.836 106.425 128.933 106.891 128.933C107.478 128.933 107.961 128.804 108.341 128.546C108.72 128.288 109.018 127.941 109.232 127.504C109.454 127.06 109.605 126.566 109.684 126.021V124.077C109.641 123.655 109.551 123.261 109.415 122.896C109.286 122.53 109.111 122.212 108.889 121.939C108.667 121.66 108.391 121.445 108.062 121.295C107.739 121.137 107.356 121.059 106.912 121.059C106.439 121.059 106.038 121.159 105.709 121.359C105.38 121.56 105.107 121.836 104.893 122.187C104.685 122.537 104.531 122.946 104.431 123.411C104.33 123.877 104.28 124.374 104.28 124.904ZM122.606 121.671V130.812H120.018V119.189H122.456L122.606 121.671ZM122.145 124.571L121.307 124.561C121.314 123.737 121.428 122.981 121.65 122.294C121.88 121.606 122.195 121.016 122.596 120.521C123.004 120.027 123.491 119.648 124.057 119.383C124.622 119.111 125.253 118.975 125.947 118.975C126.506 118.975 127.011 119.053 127.462 119.211C127.92 119.361 128.311 119.608 128.633 119.952C128.962 120.296 129.213 120.743 129.385 121.295C129.557 121.839 129.643 122.509 129.643 123.304V130.812H127.043V123.293C127.043 122.734 126.961 122.294 126.796 121.972C126.638 121.642 126.406 121.41 126.098 121.273C125.797 121.13 125.421 121.059 124.97 121.059C124.526 121.059 124.128 121.152 123.777 121.338C123.426 121.524 123.129 121.778 122.886 122.101C122.649 122.423 122.467 122.795 122.338 123.218C122.209 123.64 122.145 124.091 122.145 124.571ZM138.838 128.481V122.938C138.838 122.523 138.763 122.165 138.612 121.864C138.462 121.563 138.233 121.331 137.925 121.166C137.624 121.001 137.244 120.919 136.786 120.919C136.364 120.919 135.998 120.991 135.69 121.134C135.382 121.277 135.143 121.47 134.971 121.714C134.799 121.957 134.713 122.233 134.713 122.541H132.135C132.135 122.083 132.246 121.639 132.468 121.209C132.69 120.779 133.012 120.396 133.435 120.06C133.857 119.723 134.362 119.458 134.949 119.265C135.536 119.071 136.195 118.975 136.926 118.975C137.799 118.975 138.573 119.121 139.246 119.415C139.926 119.709 140.46 120.153 140.847 120.747C141.241 121.334 141.438 122.072 141.438 122.96V128.127C141.438 128.657 141.473 129.133 141.545 129.556C141.624 129.971 141.735 130.333 141.878 130.641V130.812H139.225C139.103 130.533 139.006 130.179 138.935 129.749C138.87 129.312 138.838 128.89 138.838 128.481ZM139.214 123.744L139.235 125.345H137.377C136.897 125.345 136.475 125.391 136.109 125.484C135.744 125.57 135.44 125.699 135.196 125.871C134.953 126.043 134.77 126.251 134.648 126.494C134.527 126.738 134.466 127.013 134.466 127.321C134.466 127.629 134.537 127.912 134.681 128.17C134.824 128.421 135.032 128.618 135.304 128.761C135.583 128.904 135.92 128.976 136.313 128.976C136.843 128.976 137.305 128.868 137.699 128.653C138.1 128.431 138.415 128.163 138.645 127.848C138.874 127.525 138.995 127.221 139.01 126.935L139.848 128.084C139.762 128.378 139.615 128.693 139.407 129.029C139.2 129.366 138.927 129.688 138.591 129.996C138.261 130.297 137.864 130.544 137.398 130.737C136.94 130.931 136.41 131.027 135.809 131.027C135.049 131.027 134.373 130.877 133.778 130.576C133.184 130.268 132.718 129.856 132.382 129.341C132.045 128.818 131.877 128.227 131.877 127.568C131.877 126.952 131.992 126.408 132.221 125.936C132.457 125.456 132.801 125.055 133.252 124.732C133.71 124.41 134.269 124.167 134.928 124.002C135.587 123.83 136.339 123.744 137.184 123.744H139.214ZM149.473 119.189V121.08H142.92V119.189H149.473ZM144.811 116.343H147.399V127.601C147.399 127.959 147.45 128.234 147.55 128.428C147.657 128.614 147.804 128.739 147.99 128.804C148.176 128.868 148.395 128.9 148.646 128.9C148.825 128.9 148.996 128.89 149.161 128.868C149.326 128.847 149.458 128.825 149.559 128.804L149.569 130.78C149.354 130.845 149.104 130.902 148.817 130.952C148.538 131.002 148.216 131.027 147.851 131.027C147.256 131.027 146.73 130.924 146.271 130.716C145.813 130.501 145.455 130.154 145.197 129.674C144.939 129.194 144.811 128.557 144.811 127.762V116.343ZM154.242 119.189V130.812H151.643V119.189H154.242ZM151.471 116.139C151.471 115.745 151.6 115.419 151.857 115.161C152.122 114.896 152.488 114.764 152.953 114.764C153.411 114.764 153.773 114.896 154.038 115.161C154.303 115.419 154.436 115.745 154.436 116.139C154.436 116.525 154.303 116.848 154.038 117.105C153.773 117.363 153.411 117.492 152.953 117.492C152.488 117.492 152.122 117.363 151.857 117.105C151.6 116.848 151.471 116.525 151.471 116.139ZM160.859 128.761L163.706 119.189H166.392L162.353 130.812H160.677L160.859 128.761ZM158.679 119.189L161.579 128.804L161.719 130.812H160.043L155.982 119.189H158.679ZM172.966 131.027C172.106 131.027 171.329 130.888 170.635 130.608C169.947 130.322 169.36 129.924 168.873 129.416C168.393 128.908 168.024 128.31 167.767 127.622C167.509 126.935 167.38 126.193 167.38 125.398V124.969C167.38 124.059 167.512 123.236 167.777 122.498C168.042 121.76 168.411 121.13 168.884 120.607C169.356 120.077 169.915 119.673 170.56 119.394C171.204 119.114 171.902 118.975 172.654 118.975C173.485 118.975 174.212 119.114 174.835 119.394C175.458 119.673 175.974 120.067 176.382 120.575C176.797 121.076 177.105 121.674 177.306 122.369C177.513 123.064 177.617 123.83 177.617 124.668V125.774H168.637V123.916H175.061V123.712C175.046 123.246 174.953 122.81 174.781 122.401C174.617 121.993 174.362 121.664 174.019 121.413C173.675 121.162 173.216 121.037 172.644 121.037C172.214 121.037 171.831 121.13 171.494 121.316C171.165 121.495 170.889 121.757 170.667 122.101C170.445 122.444 170.273 122.86 170.151 123.347C170.037 123.826 169.979 124.367 169.979 124.969V125.398C169.979 125.907 170.048 126.38 170.184 126.816C170.327 127.246 170.535 127.622 170.807 127.944C171.079 128.267 171.408 128.521 171.795 128.707C172.182 128.886 172.622 128.976 173.116 128.976C173.739 128.976 174.294 128.85 174.781 128.6C175.268 128.349 175.691 127.994 176.049 127.536L177.413 128.857C177.162 129.223 176.837 129.574 176.436 129.91C176.035 130.24 175.544 130.508 174.964 130.716C174.391 130.924 173.725 131.027 172.966 131.027Z" fill="#313E5B"/>
<path d="M66.9512 125.721H69.6367C69.5508 126.745 69.2643 127.658 68.7773 128.46C68.2904 129.255 67.6064 129.882 66.7256 130.34C65.8447 130.798 64.7741 131.027 63.5137 131.027C62.5469 131.027 61.6768 130.855 60.9033 130.512C60.1299 130.161 59.4674 129.667 58.916 129.029C58.3646 128.385 57.9421 127.608 57.6484 126.698C57.362 125.789 57.2188 124.772 57.2188 123.647V122.348C57.2188 121.223 57.3656 120.206 57.6592 119.297C57.96 118.387 58.3896 117.61 58.9482 116.966C59.5068 116.314 60.1764 115.816 60.957 115.473C61.7448 115.129 62.6292 114.957 63.6104 114.957C64.8564 114.957 65.9092 115.186 66.7686 115.645C67.6279 116.103 68.2939 116.737 68.7666 117.546C69.2464 118.355 69.54 119.283 69.6475 120.328H66.9619C66.8903 119.655 66.7327 119.078 66.4893 118.599C66.2529 118.119 65.902 117.754 65.4365 117.503C64.971 117.245 64.3623 117.116 63.6104 117.116C62.9945 117.116 62.4574 117.231 61.999 117.46C61.5407 117.689 61.1576 118.026 60.8496 118.47C60.5417 118.914 60.3089 119.462 60.1514 120.113C60.001 120.758 59.9258 121.495 59.9258 122.326V123.647C59.9258 124.435 59.9938 125.151 60.1299 125.796C60.2731 126.433 60.488 126.981 60.7744 127.439C61.068 127.898 61.4404 128.252 61.8916 128.503C62.3428 128.754 62.8835 128.879 63.5137 128.879C64.2799 128.879 64.8994 128.757 65.3721 128.514C65.8519 128.27 66.2135 127.916 66.457 127.45C66.7077 126.978 66.8724 126.401 66.9512 125.721ZM74.5996 114.312V130.812H72V114.312H74.5996ZM76.9414 125.13V124.883C76.9414 124.045 77.0632 123.268 77.3066 122.552C77.5501 121.828 77.901 121.202 78.3594 120.672C78.8249 120.135 79.3906 119.719 80.0566 119.426C80.7298 119.125 81.4889 118.975 82.334 118.975C83.1862 118.975 83.9453 119.125 84.6113 119.426C85.2845 119.719 85.8538 120.135 86.3193 120.672C86.7848 121.202 87.1393 121.828 87.3828 122.552C87.6263 123.268 87.748 124.045 87.748 124.883V125.13C87.748 125.968 87.6263 126.745 87.3828 127.461C87.1393 128.177 86.7848 128.804 86.3193 129.341C85.8538 129.871 85.2881 130.286 84.6221 130.587C83.9561 130.881 83.2005 131.027 82.3555 131.027C81.5033 131.027 80.7406 130.881 80.0674 130.587C79.4014 130.286 78.8356 129.871 78.3701 129.341C77.9046 128.804 77.5501 128.177 77.3066 127.461C77.0632 126.745 76.9414 125.968 76.9414 125.13ZM79.5303 124.883V125.13C79.5303 125.653 79.584 126.147 79.6914 126.612C79.7988 127.078 79.9671 127.486 80.1963 127.837C80.4255 128.188 80.7191 128.464 81.0771 128.664C81.4352 128.865 81.8613 128.965 82.3555 128.965C82.8353 128.965 83.2507 128.865 83.6016 128.664C83.9596 128.464 84.2533 128.188 84.4824 127.837C84.7116 127.486 84.8799 127.078 84.9873 126.612C85.1019 126.147 85.1592 125.653 85.1592 125.13V124.883C85.1592 124.367 85.1019 123.88 84.9873 123.422C84.8799 122.956 84.708 122.545 84.4717 122.187C84.2425 121.828 83.9489 121.549 83.5908 121.349C83.2399 121.141 82.821 121.037 82.334 121.037C81.847 121.037 81.4245 121.141 81.0664 121.349C80.7155 121.549 80.4255 121.828 80.1963 122.187C79.9671 122.545 79.7988 122.956 79.6914 123.422C79.584 123.88 79.5303 124.367 79.5303 124.883ZM96.9111 128.073V119.189H99.5107V130.812H97.0615L96.9111 128.073ZM97.2764 125.656L98.1465 125.635C98.1465 126.415 98.0605 127.135 97.8887 127.794C97.7168 128.446 97.4518 129.015 97.0938 129.502C96.7357 129.982 96.2773 130.358 95.7188 130.63C95.1602 130.895 94.4906 131.027 93.71 131.027C93.1442 131.027 92.625 130.945 92.1523 130.78C91.6797 130.616 91.2715 130.361 90.9277 130.018C90.5911 129.674 90.3298 129.226 90.1436 128.675C89.9574 128.123 89.8643 127.465 89.8643 126.698V119.189H92.4531V126.72C92.4531 127.142 92.5033 127.497 92.6035 127.783C92.7038 128.062 92.8398 128.288 93.0117 128.46C93.1836 128.632 93.3841 128.754 93.6133 128.825C93.8424 128.897 94.0859 128.933 94.3438 128.933C95.0814 128.933 95.6615 128.789 96.084 128.503C96.5137 128.209 96.818 127.815 96.9971 127.321C97.1833 126.827 97.2764 126.272 97.2764 125.656ZM109.254 128.406V114.312H111.854V130.812H109.501L109.254 128.406ZM101.691 125.13V124.904C101.691 124.023 101.795 123.221 102.003 122.498C102.211 121.768 102.511 121.141 102.905 120.618C103.299 120.088 103.779 119.684 104.345 119.404C104.91 119.118 105.548 118.975 106.257 118.975C106.959 118.975 107.575 119.111 108.104 119.383C108.634 119.655 109.086 120.045 109.458 120.554C109.83 121.055 110.128 121.657 110.35 122.358C110.572 123.053 110.729 123.826 110.822 124.679V125.398C110.729 126.229 110.572 126.988 110.35 127.676C110.128 128.363 109.83 128.958 109.458 129.459C109.086 129.96 108.631 130.347 108.094 130.619C107.564 130.891 106.944 131.027 106.235 131.027C105.534 131.027 104.9 130.881 104.334 130.587C103.775 130.293 103.299 129.882 102.905 129.352C102.511 128.822 102.211 128.199 102.003 127.482C101.795 126.759 101.691 125.975 101.691 125.13ZM104.28 124.904V125.13C104.28 125.66 104.327 126.154 104.42 126.612C104.52 127.071 104.674 127.475 104.882 127.826C105.09 128.17 105.358 128.442 105.688 128.643C106.024 128.836 106.425 128.933 106.891 128.933C107.478 128.933 107.961 128.804 108.341 128.546C108.72 128.288 109.018 127.941 109.232 127.504C109.454 127.06 109.605 126.566 109.684 126.021V124.077C109.641 123.655 109.551 123.261 109.415 122.896C109.286 122.53 109.111 122.212 108.889 121.939C108.667 121.66 108.391 121.445 108.062 121.295C107.739 121.137 107.356 121.059 106.912 121.059C106.439 121.059 106.038 121.159 105.709 121.359C105.38 121.56 105.107 121.836 104.893 122.187C104.685 122.537 104.531 122.946 104.431 123.411C104.33 123.877 104.28 124.374 104.28 124.904ZM122.606 121.671V130.812H120.018V119.189H122.456L122.606 121.671ZM122.145 124.571L121.307 124.561C121.314 123.737 121.428 122.981 121.65 122.294C121.88 121.606 122.195 121.016 122.596 120.521C123.004 120.027 123.491 119.648 124.057 119.383C124.622 119.111 125.253 118.975 125.947 118.975C126.506 118.975 127.011 119.053 127.462 119.211C127.92 119.361 128.311 119.608 128.633 119.952C128.962 120.296 129.213 120.743 129.385 121.295C129.557 121.839 129.643 122.509 129.643 123.304V130.812H127.043V123.293C127.043 122.734 126.961 122.294 126.796 121.972C126.638 121.642 126.406 121.41 126.098 121.273C125.797 121.13 125.421 121.059 124.97 121.059C124.526 121.059 124.128 121.152 123.777 121.338C123.426 121.524 123.129 121.778 122.886 122.101C122.649 122.423 122.467 122.795 122.338 123.218C122.209 123.64 122.145 124.091 122.145 124.571ZM138.838 128.481V122.938C138.838 122.523 138.763 122.165 138.612 121.864C138.462 121.563 138.233 121.331 137.925 121.166C137.624 121.001 137.244 120.919 136.786 120.919C136.364 120.919 135.998 120.991 135.69 121.134C135.382 121.277 135.143 121.47 134.971 121.714C134.799 121.957 134.713 122.233 134.713 122.541H132.135C132.135 122.083 132.246 121.639 132.468 121.209C132.69 120.779 133.012 120.396 133.435 120.06C133.857 119.723 134.362 119.458 134.949 119.265C135.536 119.071 136.195 118.975 136.926 118.975C137.799 118.975 138.573 119.121 139.246 119.415C139.926 119.709 140.46 120.153 140.847 120.747C141.241 121.334 141.438 122.072 141.438 122.96V128.127C141.438 128.657 141.473 129.133 141.545 129.556C141.624 129.971 141.735 130.333 141.878 130.641V130.812H139.225C139.103 130.533 139.006 130.179 138.935 129.749C138.87 129.312 138.838 128.89 138.838 128.481ZM139.214 123.744L139.235 125.345H137.377C136.897 125.345 136.475 125.391 136.109 125.484C135.744 125.57 135.44 125.699 135.196 125.871C134.953 126.043 134.77 126.251 134.648 126.494C134.527 126.738 134.466 127.013 134.466 127.321C134.466 127.629 134.537 127.912 134.681 128.17C134.824 128.421 135.032 128.618 135.304 128.761C135.583 128.904 135.92 128.976 136.313 128.976C136.843 128.976 137.305 128.868 137.699 128.653C138.1 128.431 138.415 128.163 138.645 127.848C138.874 127.525 138.995 127.221 139.01 126.935L139.848 128.084C139.762 128.378 139.615 128.693 139.407 129.029C139.2 129.366 138.927 129.688 138.591 129.996C138.261 130.297 137.864 130.544 137.398 130.737C136.94 130.931 136.41 131.027 135.809 131.027C135.049 131.027 134.373 130.877 133.778 130.576C133.184 130.268 132.718 129.856 132.382 129.341C132.045 128.818 131.877 128.227 131.877 127.568C131.877 126.952 131.992 126.408 132.221 125.936C132.457 125.456 132.801 125.055 133.252 124.732C133.71 124.41 134.269 124.167 134.928 124.002C135.587 123.83 136.339 123.744 137.184 123.744H139.214ZM149.473 119.189V121.08H142.92V119.189H149.473ZM144.811 116.343H147.399V127.601C147.399 127.959 147.45 128.234 147.55 128.428C147.657 128.614 147.804 128.739 147.99 128.804C148.176 128.868 148.395 128.9 148.646 128.9C148.825 128.9 148.996 128.89 149.161 128.868C149.326 128.847 149.458 128.825 149.559 128.804L149.569 130.78C149.354 130.845 149.104 130.902 148.817 130.952C148.538 131.002 148.216 131.027 147.851 131.027C147.256 131.027 146.73 130.924 146.271 130.716C145.813 130.501 145.455 130.154 145.197 129.674C144.939 129.194 144.811 128.557 144.811 127.762V116.343ZM154.242 119.189V130.812H151.643V119.189H154.242ZM151.471 116.139C151.471 115.745 151.6 115.419 151.857 115.161C152.122 114.896 152.488 114.764 152.953 114.764C153.411 114.764 153.773 114.896 154.038 115.161C154.303 115.419 154.436 115.745 154.436 116.139C154.436 116.525 154.303 116.848 154.038 117.105C153.773 117.363 153.411 117.492 152.953 117.492C152.488 117.492 152.122 117.363 151.857 117.105C151.6 116.848 151.471 116.525 151.471 116.139ZM160.859 128.761L163.706 119.189H166.392L162.353 130.812H160.677L160.859 128.761ZM158.679 119.189L161.579 128.804L161.719 130.812H160.043L155.982 119.189H158.679ZM172.966 131.027C172.106 131.027 171.329 130.888 170.635 130.608C169.947 130.322 169.36 129.924 168.873 129.416C168.393 128.908 168.024 128.31 167.767 127.622C167.509 126.935 167.38 126.193 167.38 125.398V124.969C167.38 124.059 167.512 123.236 167.777 122.498C168.042 121.76 168.411 121.13 168.884 120.607C169.356 120.077 169.915 119.673 170.56 119.394C171.204 119.114 171.902 118.975 172.654 118.975C173.485 118.975 174.212 119.114 174.835 119.394C175.458 119.673 175.974 120.067 176.382 120.575C176.797 121.076 177.105 121.674 177.306 122.369C177.513 123.064 177.617 123.83 177.617 124.668V125.774H168.637V123.916H175.061V123.712C175.046 123.246 174.953 122.81 174.781 122.401C174.617 121.993 174.362 121.664 174.019 121.413C173.675 121.162 173.216 121.037 172.644 121.037C172.214 121.037 171.831 121.13 171.494 121.316C171.165 121.495 170.889 121.757 170.667 122.101C170.445 122.444 170.273 122.86 170.151 123.347C170.037 123.826 169.979 124.367 169.979 124.969V125.398C169.979 125.907 170.048 126.38 170.184 126.816C170.327 127.246 170.535 127.622 170.807 127.944C171.079 128.267 171.408 128.521 171.795 128.707C172.182 128.886 172.622 128.976 173.116 128.976C173.739 128.976 174.294 128.85 174.781 128.6C175.268 128.349 175.691 127.994 176.049 127.536L177.413 128.857C177.162 129.223 176.837 129.574 176.436 129.91C176.035 130.24 175.544 130.508 174.964 130.716C174.391 130.924 173.725 131.027 172.966 131.027Z" fill="black" fill-opacity="0.2"/>
<path d="M66.9512 125.721H69.6367C69.5508 126.745 69.2643 127.658 68.7773 128.46C68.2904 129.255 67.6064 129.882 66.7256 130.34C65.8447 130.798 64.7741 131.027 63.5137 131.027C62.5469 131.027 61.6768 130.855 60.9033 130.512C60.1299 130.161 59.4674 129.667 58.916 129.029C58.3646 128.385 57.9421 127.608 57.6484 126.698C57.362 125.789 57.2188 124.772 57.2188 123.647V122.348C57.2188 121.223 57.3656 120.206 57.6592 119.297C57.96 118.387 58.3896 117.61 58.9482 116.966C59.5068 116.314 60.1764 115.816 60.957 115.473C61.7448 115.129 62.6292 114.957 63.6104 114.957C64.8564 114.957 65.9092 115.186 66.7686 115.645C67.6279 116.103 68.2939 116.737 68.7666 117.546C69.2464 118.355 69.54 119.283 69.6475 120.328H66.9619C66.8903 119.655 66.7327 119.078 66.4893 118.599C66.2529 118.119 65.902 117.754 65.4365 117.503C64.971 117.245 64.3623 117.116 63.6104 117.116C62.9945 117.116 62.4574 117.231 61.999 117.46C61.5407 117.689 61.1576 118.026 60.8496 118.47C60.5417 118.914 60.3089 119.462 60.1514 120.113C60.001 120.758 59.9258 121.495 59.9258 122.326V123.647C59.9258 124.435 59.9938 125.151 60.1299 125.796C60.2731 126.433 60.488 126.981 60.7744 127.439C61.068 127.898 61.4404 128.252 61.8916 128.503C62.3428 128.754 62.8835 128.879 63.5137 128.879C64.2799 128.879 64.8994 128.757 65.3721 128.514C65.8519 128.27 66.2135 127.916 66.457 127.45C66.7077 126.978 66.8724 126.401 66.9512 125.721ZM74.5996 114.312V130.812H72V114.312H74.5996ZM76.9414 125.13V124.883C76.9414 124.045 77.0632 123.268 77.3066 122.552C77.5501 121.828 77.901 121.202 78.3594 120.672C78.8249 120.135 79.3906 119.719 80.0566 119.426C80.7298 119.125 81.4889 118.975 82.334 118.975C83.1862 118.975 83.9453 119.125 84.6113 119.426C85.2845 119.719 85.8538 120.135 86.3193 120.672C86.7848 121.202 87.1393 121.828 87.3828 122.552C87.6263 123.268 87.748 124.045 87.748 124.883V125.13C87.748 125.968 87.6263 126.745 87.3828 127.461C87.1393 128.177 86.7848 128.804 86.3193 129.341C85.8538 129.871 85.2881 130.286 84.6221 130.587C83.9561 130.881 83.2005 131.027 82.3555 131.027C81.5033 131.027 80.7406 130.881 80.0674 130.587C79.4014 130.286 78.8356 129.871 78.3701 129.341C77.9046 128.804 77.5501 128.177 77.3066 127.461C77.0632 126.745 76.9414 125.968 76.9414 125.13ZM79.5303 124.883V125.13C79.5303 125.653 79.584 126.147 79.6914 126.612C79.7988 127.078 79.9671 127.486 80.1963 127.837C80.4255 128.188 80.7191 128.464 81.0771 128.664C81.4352 128.865 81.8613 128.965 82.3555 128.965C82.8353 128.965 83.2507 128.865 83.6016 128.664C83.9596 128.464 84.2533 128.188 84.4824 127.837C84.7116 127.486 84.8799 127.078 84.9873 126.612C85.1019 126.147 85.1592 125.653 85.1592 125.13V124.883C85.1592 124.367 85.1019 123.88 84.9873 123.422C84.8799 122.956 84.708 122.545 84.4717 122.187C84.2425 121.828 83.9489 121.549 83.5908 121.349C83.2399 121.141 82.821 121.037 82.334 121.037C81.847 121.037 81.4245 121.141 81.0664 121.349C80.7155 121.549 80.4255 121.828 80.1963 122.187C79.9671 122.545 79.7988 122.956 79.6914 123.422C79.584 123.88 79.5303 124.367 79.5303 124.883ZM96.9111 128.073V119.189H99.5107V130.812H97.0615L96.9111 128.073ZM97.2764 125.656L98.1465 125.635C98.1465 126.415 98.0605 127.135 97.8887 127.794C97.7168 128.446 97.4518 129.015 97.0938 129.502C96.7357 129.982 96.2773 130.358 95.7188 130.63C95.1602 130.895 94.4906 131.027 93.71 131.027C93.1442 131.027 92.625 130.945 92.1523 130.78C91.6797 130.616 91.2715 130.361 90.9277 130.018C90.5911 129.674 90.3298 129.226 90.1436 128.675C89.9574 128.123 89.8643 127.465 89.8643 126.698V119.189H92.4531V126.72C92.4531 127.142 92.5033 127.497 92.6035 127.783C92.7038 128.062 92.8398 128.288 93.0117 128.46C93.1836 128.632 93.3841 128.754 93.6133 128.825C93.8424 128.897 94.0859 128.933 94.3438 128.933C95.0814 128.933 95.6615 128.789 96.084 128.503C96.5137 128.209 96.818 127.815 96.9971 127.321C97.1833 126.827 97.2764 126.272 97.2764 125.656ZM109.254 128.406V114.312H111.854V130.812H109.501L109.254 128.406ZM101.691 125.13V124.904C101.691 124.023 101.795 123.221 102.003 122.498C102.211 121.768 102.511 121.141 102.905 120.618C103.299 120.088 103.779 119.684 104.345 119.404C104.91 119.118 105.548 118.975 106.257 118.975C106.959 118.975 107.575 119.111 108.104 119.383C108.634 119.655 109.086 120.045 109.458 120.554C109.83 121.055 110.128 121.657 110.35 122.358C110.572 123.053 110.729 123.826 110.822 124.679V125.398C110.729 126.229 110.572 126.988 110.35 127.676C110.128 128.363 109.83 128.958 109.458 129.459C109.086 129.96 108.631 130.347 108.094 130.619C107.564 130.891 106.944 131.027 106.235 131.027C105.534 131.027 104.9 130.881 104.334 130.587C103.775 130.293 103.299 129.882 102.905 129.352C102.511 128.822 102.211 128.199 102.003 127.482C101.795 126.759 101.691 125.975 101.691 125.13ZM104.28 124.904V125.13C104.28 125.66 104.327 126.154 104.42 126.612C104.52 127.071 104.674 127.475 104.882 127.826C105.09 128.17 105.358 128.442 105.688 128.643C106.024 128.836 106.425 128.933 106.891 128.933C107.478 128.933 107.961 128.804 108.341 128.546C108.72 128.288 109.018 127.941 109.232 127.504C109.454 127.06 109.605 126.566 109.684 126.021V124.077C109.641 123.655 109.551 123.261 109.415 122.896C109.286 122.53 109.111 122.212 108.889 121.939C108.667 121.66 108.391 121.445 108.062 121.295C107.739 121.137 107.356 121.059 106.912 121.059C106.439 121.059 106.038 121.159 105.709 121.359C105.38 121.56 105.107 121.836 104.893 122.187C104.685 122.537 104.531 122.946 104.431 123.411C104.33 123.877 104.28 124.374 104.28 124.904ZM122.606 121.671V130.812H120.018V119.189H122.456L122.606 121.671ZM122.145 124.571L121.307 124.561C121.314 123.737 121.428 122.981 121.65 122.294C121.88 121.606 122.195 121.016 122.596 120.521C123.004 120.027 123.491 119.648 124.057 119.383C124.622 119.111 125.253 118.975 125.947 118.975C126.506 118.975 127.011 119.053 127.462 119.211C127.92 119.361 128.311 119.608 128.633 119.952C128.962 120.296 129.213 120.743 129.385 121.295C129.557 121.839 129.643 122.509 129.643 123.304V130.812H127.043V123.293C127.043 122.734 126.961 122.294 126.796 121.972C126.638 121.642 126.406 121.41 126.098 121.273C125.797 121.13 125.421 121.059 124.97 121.059C124.526 121.059 124.128 121.152 123.777 121.338C123.426 121.524 123.129 121.778 122.886 122.101C122.649 122.423 122.467 122.795 122.338 123.218C122.209 123.64 122.145 124.091 122.145 124.571ZM138.838 128.481V122.938C138.838 122.523 138.763 122.165 138.612 121.864C138.462 121.563 138.233 121.331 137.925 121.166C137.624 121.001 137.244 120.919 136.786 120.919C136.364 120.919 135.998 120.991 135.69 121.134C135.382 121.277 135.143 121.47 134.971 121.714C134.799 121.957 134.713 122.233 134.713 122.541H132.135C132.135 122.083 132.246 121.639 132.468 121.209C132.69 120.779 133.012 120.396 133.435 120.06C133.857 119.723 134.362 119.458 134.949 119.265C135.536 119.071 136.195 118.975 136.926 118.975C137.799 118.975 138.573 119.121 139.246 119.415C139.926 119.709 140.46 120.153 140.847 120.747C141.241 121.334 141.438 122.072 141.438 122.96V128.127C141.438 128.657 141.473 129.133 141.545 129.556C141.624 129.971 141.735 130.333 141.878 130.641V130.812H139.225C139.103 130.533 139.006 130.179 138.935 129.749C138.87 129.312 138.838 128.89 138.838 128.481ZM139.214 123.744L139.235 125.345H137.377C136.897 125.345 136.475 125.391 136.109 125.484C135.744 125.57 135.44 125.699 135.196 125.871C134.953 126.043 134.77 126.251 134.648 126.494C134.527 126.738 134.466 127.013 134.466 127.321C134.466 127.629 134.537 127.912 134.681 128.17C134.824 128.421 135.032 128.618 135.304 128.761C135.583 128.904 135.92 128.976 136.313 128.976C136.843 128.976 137.305 128.868 137.699 128.653C138.1 128.431 138.415 128.163 138.645 127.848C138.874 127.525 138.995 127.221 139.01 126.935L139.848 128.084C139.762 128.378 139.615 128.693 139.407 129.029C139.2 129.366 138.927 129.688 138.591 129.996C138.261 130.297 137.864 130.544 137.398 130.737C136.94 130.931 136.41 131.027 135.809 131.027C135.049 131.027 134.373 130.877 133.778 130.576C133.184 130.268 132.718 129.856 132.382 129.341C132.045 128.818 131.877 128.227 131.877 127.568C131.877 126.952 131.992 126.408 132.221 125.936C132.457 125.456 132.801 125.055 133.252 124.732C133.71 124.41 134.269 124.167 134.928 124.002C135.587 123.83 136.339 123.744 137.184 123.744H139.214ZM149.473 119.189V121.08H142.92V119.189H149.473ZM144.811 116.343H147.399V127.601C147.399 127.959 147.45 128.234 147.55 128.428C147.657 128.614 147.804 128.739 147.99 128.804C148.176 128.868 148.395 128.9 148.646 128.9C148.825 128.9 148.996 128.89 149.161 128.868C149.326 128.847 149.458 128.825 149.559 128.804L149.569 130.78C149.354 130.845 149.104 130.902 148.817 130.952C148.538 131.002 148.216 131.027 147.851 131.027C147.256 131.027 146.73 130.924 146.271 130.716C145.813 130.501 145.455 130.154 145.197 129.674C144.939 129.194 144.811 128.557 144.811 127.762V116.343ZM154.242 119.189V130.812H151.643V119.189H154.242ZM151.471 116.139C151.471 115.745 151.6 115.419 151.857 115.161C152.122 114.896 152.488 114.764 152.953 114.764C153.411 114.764 153.773 114.896 154.038 115.161C154.303 115.419 154.436 115.745 154.436 116.139C154.436 116.525 154.303 116.848 154.038 117.105C153.773 117.363 153.411 117.492 152.953 117.492C152.488 117.492 152.122 117.363 151.857 117.105C151.6 116.848 151.471 116.525 151.471 116.139ZM160.859 128.761L163.706 119.189H166.392L162.353 130.812H160.677L160.859 128.761ZM158.679 119.189L161.579 128.804L161.719 130.812H160.043L155.982 119.189H158.679ZM172.966 131.027C172.106 131.027 171.329 130.888 170.635 130.608C169.947 130.322 169.36 129.924 168.873 129.416C168.393 128.908 168.024 128.31 167.767 127.622C167.509 126.935 167.38 126.193 167.38 125.398V124.969C167.38 124.059 167.512 123.236 167.777 122.498C168.042 121.76 168.411 121.13 168.884 120.607C169.356 120.077 169.915 119.673 170.56 119.394C171.204 119.114 171.902 118.975 172.654 118.975C173.485 118.975 174.212 119.114 174.835 119.394C175.458 119.673 175.974 120.067 176.382 120.575C176.797 121.076 177.105 121.674 177.306 122.369C177.513 123.064 177.617 123.83 177.617 124.668V125.774H168.637V123.916H175.061V123.712C175.046 123.246 174.953 122.81 174.781 122.401C174.617 121.993 174.362 121.664 174.019 121.413C173.675 121.162 173.216 121.037 172.644 121.037C172.214 121.037 171.831 121.13 171.494 121.316C171.165 121.495 170.889 121.757 170.667 122.101C170.445 122.444 170.273 122.86 170.151 123.347C170.037 123.826 169.979 124.367 169.979 124.969V125.398C169.979 125.907 170.048 126.38 170.184 126.816C170.327 127.246 170.535 127.622 170.807 127.944C171.079 128.267 171.408 128.521 171.795 128.707C172.182 128.886 172.622 128.976 173.116 128.976C173.739 128.976 174.294 128.85 174.781 128.6C175.268 128.349 175.691 127.994 176.049 127.536L177.413 128.857C177.162 129.223 176.837 129.574 176.436 129.91C176.035 130.24 175.544 130.508 174.964 130.716C174.391 130.924 173.725 131.027 172.966 131.027Z" fill="black" fill-opacity="0.2"/>
<path d="M66.9512 125.721H69.6367C69.5508 126.745 69.2643 127.658 68.7773 128.46C68.2904 129.255 67.6064 129.882 66.7256 130.34C65.8447 130.798 64.7741 131.027 63.5137 131.027C62.5469 131.027 61.6768 130.855 60.9033 130.512C60.1299 130.161 59.4674 129.667 58.916 129.029C58.3646 128.385 57.9421 127.608 57.6484 126.698C57.362 125.789 57.2188 124.772 57.2188 123.647V122.348C57.2188 121.223 57.3656 120.206 57.6592 119.297C57.96 118.387 58.3896 117.61 58.9482 116.966C59.5068 116.314 60.1764 115.816 60.957 115.473C61.7448 115.129 62.6292 114.957 63.6104 114.957C64.8564 114.957 65.9092 115.186 66.7686 115.645C67.6279 116.103 68.2939 116.737 68.7666 117.546C69.2464 118.355 69.54 119.283 69.6475 120.328H66.9619C66.8903 119.655 66.7327 119.078 66.4893 118.599C66.2529 118.119 65.902 117.754 65.4365 117.503C64.971 117.245 64.3623 117.116 63.6104 117.116C62.9945 117.116 62.4574 117.231 61.999 117.46C61.5407 117.689 61.1576 118.026 60.8496 118.47C60.5417 118.914 60.3089 119.462 60.1514 120.113C60.001 120.758 59.9258 121.495 59.9258 122.326V123.647C59.9258 124.435 59.9938 125.151 60.1299 125.796C60.2731 126.433 60.488 126.981 60.7744 127.439C61.068 127.898 61.4404 128.252 61.8916 128.503C62.3428 128.754 62.8835 128.879 63.5137 128.879C64.2799 128.879 64.8994 128.757 65.3721 128.514C65.8519 128.27 66.2135 127.916 66.457 127.45C66.7077 126.978 66.8724 126.401 66.9512 125.721ZM74.5996 114.312V130.812H72V114.312H74.5996ZM76.9414 125.13V124.883C76.9414 124.045 77.0632 123.268 77.3066 122.552C77.5501 121.828 77.901 121.202 78.3594 120.672C78.8249 120.135 79.3906 119.719 80.0566 119.426C80.7298 119.125 81.4889 118.975 82.334 118.975C83.1862 118.975 83.9453 119.125 84.6113 119.426C85.2845 119.719 85.8538 120.135 86.3193 120.672C86.7848 121.202 87.1393 121.828 87.3828 122.552C87.6263 123.268 87.748 124.045 87.748 124.883V125.13C87.748 125.968 87.6263 126.745 87.3828 127.461C87.1393 128.177 86.7848 128.804 86.3193 129.341C85.8538 129.871 85.2881 130.286 84.6221 130.587C83.9561 130.881 83.2005 131.027 82.3555 131.027C81.5033 131.027 80.7406 130.881 80.0674 130.587C79.4014 130.286 78.8356 129.871 78.3701 129.341C77.9046 128.804 77.5501 128.177 77.3066 127.461C77.0632 126.745 76.9414 125.968 76.9414 125.13ZM79.5303 124.883V125.13C79.5303 125.653 79.584 126.147 79.6914 126.612C79.7988 127.078 79.9671 127.486 80.1963 127.837C80.4255 128.188 80.7191 128.464 81.0771 128.664C81.4352 128.865 81.8613 128.965 82.3555 128.965C82.8353 128.965 83.2507 128.865 83.6016 128.664C83.9596 128.464 84.2533 128.188 84.4824 127.837C84.7116 127.486 84.8799 127.078 84.9873 126.612C85.1019 126.147 85.1592 125.653 85.1592 125.13V124.883C85.1592 124.367 85.1019 123.88 84.9873 123.422C84.8799 122.956 84.708 122.545 84.4717 122.187C84.2425 121.828 83.9489 121.549 83.5908 121.349C83.2399 121.141 82.821 121.037 82.334 121.037C81.847 121.037 81.4245 121.141 81.0664 121.349C80.7155 121.549 80.4255 121.828 80.1963 122.187C79.9671 122.545 79.7988 122.956 79.6914 123.422C79.584 123.88 79.5303 124.367 79.5303 124.883ZM96.9111 128.073V119.189H99.5107V130.812H97.0615L96.9111 128.073ZM97.2764 125.656L98.1465 125.635C98.1465 126.415 98.0605 127.135 97.8887 127.794C97.7168 128.446 97.4518 129.015 97.0938 129.502C96.7357 129.982 96.2773 130.358 95.7188 130.63C95.1602 130.895 94.4906 131.027 93.71 131.027C93.1442 131.027 92.625 130.945 92.1523 130.78C91.6797 130.616 91.2715 130.361 90.9277 130.018C90.5911 129.674 90.3298 129.226 90.1436 128.675C89.9574 128.123 89.8643 127.465 89.8643 126.698V119.189H92.4531V126.72C92.4531 127.142 92.5033 127.497 92.6035 127.783C92.7038 128.062 92.8398 128.288 93.0117 128.46C93.1836 128.632 93.3841 128.754 93.6133 128.825C93.8424 128.897 94.0859 128.933 94.3438 128.933C95.0814 128.933 95.6615 128.789 96.084 128.503C96.5137 128.209 96.818 127.815 96.9971 127.321C97.1833 126.827 97.2764 126.272 97.2764 125.656ZM109.254 128.406V114.312H111.854V130.812H109.501L109.254 128.406ZM101.691 125.13V124.904C101.691 124.023 101.795 123.221 102.003 122.498C102.211 121.768 102.511 121.141 102.905 120.618C103.299 120.088 103.779 119.684 104.345 119.404C104.91 119.118 105.548 118.975 106.257 118.975C106.959 118.975 107.575 119.111 108.104 119.383C108.634 119.655 109.086 120.045 109.458 120.554C109.83 121.055 110.128 121.657 110.35 122.358C110.572 123.053 110.729 123.826 110.822 124.679V125.398C110.729 126.229 110.572 126.988 110.35 127.676C110.128 128.363 109.83 128.958 109.458 129.459C109.086 129.96 108.631 130.347 108.094 130.619C107.564 130.891 106.944 131.027 106.235 131.027C105.534 131.027 104.9 130.881 104.334 130.587C103.775 130.293 103.299 129.882 102.905 129.352C102.511 128.822 102.211 128.199 102.003 127.482C101.795 126.759 101.691 125.975 101.691 125.13ZM104.28 124.904V125.13C104.28 125.66 104.327 126.154 104.42 126.612C104.52 127.071 104.674 127.475 104.882 127.826C105.09 128.17 105.358 128.442 105.688 128.643C106.024 128.836 106.425 128.933 106.891 128.933C107.478 128.933 107.961 128.804 108.341 128.546C108.72 128.288 109.018 127.941 109.232 127.504C109.454 127.06 109.605 126.566 109.684 126.021V124.077C109.641 123.655 109.551 123.261 109.415 122.896C109.286 122.53 109.111 122.212 108.889 121.939C108.667 121.66 108.391 121.445 108.062 121.295C107.739 121.137 107.356 121.059 106.912 121.059C106.439 121.059 106.038 121.159 105.709 121.359C105.38 121.56 105.107 121.836 104.893 122.187C104.685 122.537 104.531 122.946 104.431 123.411C104.33 123.877 104.28 124.374 104.28 124.904ZM122.606 121.671V130.812H120.018V119.189H122.456L122.606 121.671ZM122.145 124.571L121.307 124.561C121.314 123.737 121.428 122.981 121.65 122.294C121.88 121.606 122.195 121.016 122.596 120.521C123.004 120.027 123.491 119.648 124.057 119.383C124.622 119.111 125.253 118.975 125.947 118.975C126.506 118.975 127.011 119.053 127.462 119.211C127.92 119.361 128.311 119.608 128.633 119.952C128.962 120.296 129.213 120.743 129.385 121.295C129.557 121.839 129.643 122.509 129.643 123.304V130.812H127.043V123.293C127.043 122.734 126.961 122.294 126.796 121.972C126.638 121.642 126.406 121.41 126.098 121.273C125.797 121.13 125.421 121.059 124.97 121.059C124.526 121.059 124.128 121.152 123.777 121.338C123.426 121.524 123.129 121.778 122.886 122.101C122.649 122.423 122.467 122.795 122.338 123.218C122.209 123.64 122.145 124.091 122.145 124.571ZM138.838 128.481V122.938C138.838 122.523 138.763 122.165 138.612 121.864C138.462 121.563 138.233 121.331 137.925 121.166C137.624 121.001 137.244 120.919 136.786 120.919C136.364 120.919 135.998 120.991 135.69 121.134C135.382 121.277 135.143 121.47 134.971 121.714C134.799 121.957 134.713 122.233 134.713 122.541H132.135C132.135 122.083 132.246 121.639 132.468 121.209C132.69 120.779 133.012 120.396 133.435 120.06C133.857 119.723 134.362 119.458 134.949 119.265C135.536 119.071 136.195 118.975 136.926 118.975C137.799 118.975 138.573 119.121 139.246 119.415C139.926 119.709 140.46 120.153 140.847 120.747C141.241 121.334 141.438 122.072 141.438 122.96V128.127C141.438 128.657 141.473 129.133 141.545 129.556C141.624 129.971 141.735 130.333 141.878 130.641V130.812H139.225C139.103 130.533 139.006 130.179 138.935 129.749C138.87 129.312 138.838 128.89 138.838 128.481ZM139.214 123.744L139.235 125.345H137.377C136.897 125.345 136.475 125.391 136.109 125.484C135.744 125.57 135.44 125.699 135.196 125.871C134.953 126.043 134.77 126.251 134.648 126.494C134.527 126.738 134.466 127.013 134.466 127.321C134.466 127.629 134.537 127.912 134.681 128.17C134.824 128.421 135.032 128.618 135.304 128.761C135.583 128.904 135.92 128.976 136.313 128.976C136.843 128.976 137.305 128.868 137.699 128.653C138.1 128.431 138.415 128.163 138.645 127.848C138.874 127.525 138.995 127.221 139.01 126.935L139.848 128.084C139.762 128.378 139.615 128.693 139.407 129.029C139.2 129.366 138.927 129.688 138.591 129.996C138.261 130.297 137.864 130.544 137.398 130.737C136.94 130.931 136.41 131.027 135.809 131.027C135.049 131.027 134.373 130.877 133.778 130.576C133.184 130.268 132.718 129.856 132.382 129.341C132.045 128.818 131.877 128.227 131.877 127.568C131.877 126.952 131.992 126.408 132.221 125.936C132.457 125.456 132.801 125.055 133.252 124.732C133.71 124.41 134.269 124.167 134.928 124.002C135.587 123.83 136.339 123.744 137.184 123.744H139.214ZM149.473 119.189V121.08H142.92V119.189H149.473ZM144.811 116.343H147.399V127.601C147.399 127.959 147.45 128.234 147.55 128.428C147.657 128.614 147.804 128.739 147.99 128.804C148.176 128.868 148.395 128.9 148.646 128.9C148.825 128.9 148.996 128.89 149.161 128.868C149.326 128.847 149.458 128.825 149.559 128.804L149.569 130.78C149.354 130.845 149.104 130.902 148.817 130.952C148.538 131.002 148.216 131.027 147.851 131.027C147.256 131.027 146.73 130.924 146.271 130.716C145.813 130.501 145.455 130.154 145.197 129.674C144.939 129.194 144.811 128.557 144.811 127.762V116.343ZM154.242 119.189V130.812H151.643V119.189H154.242ZM151.471 116.139C151.471 115.745 151.6 115.419 151.857 115.161C152.122 114.896 152.488 114.764 152.953 114.764C153.411 114.764 153.773 114.896 154.038 115.161C154.303 115.419 154.436 115.745 154.436 116.139C154.436 116.525 154.303 116.848 154.038 117.105C153.773 117.363 153.411 117.492 152.953 117.492C152.488 117.492 152.122 117.363 151.857 117.105C151.6 116.848 151.471 116.525 151.471 116.139ZM160.859 128.761L163.706 119.189H166.392L162.353 130.812H160.677L160.859 128.761ZM158.679 119.189L161.579 128.804L161.719 130.812H160.043L155.982 119.189H158.679ZM172.966 131.027C172.106 131.027 171.329 130.888 170.635 130.608C169.947 130.322 169.36 129.924 168.873 129.416C168.393 128.908 168.024 128.31 167.767 127.622C167.509 126.935 167.38 126.193 167.38 125.398V124.969C167.38 124.059 167.512 123.236 167.777 122.498C168.042 121.76 168.411 121.13 168.884 120.607C169.356 120.077 169.915 119.673 170.56 119.394C171.204 119.114 171.902 118.975 172.654 118.975C173.485 118.975 174.212 119.114 174.835 119.394C175.458 119.673 175.974 120.067 176.382 120.575C176.797 121.076 177.105 121.674 177.306 122.369C177.513 123.064 177.617 123.83 177.617 124.668V125.774H168.637V123.916H175.061V123.712C175.046 123.246 174.953 122.81 174.781 122.401C174.617 121.993 174.362 121.664 174.019 121.413C173.675 121.162 173.216 121.037 172.644 121.037C172.214 121.037 171.831 121.13 171.494 121.316C171.165 121.495 170.889 121.757 170.667 122.101C170.445 122.444 170.273 122.86 170.151 123.347C170.037 123.826 169.979 124.367 169.979 124.969V125.398C169.979 125.907 170.048 126.38 170.184 126.816C170.327 127.246 170.535 127.622 170.807 127.944C171.079 128.267 171.408 128.521 171.795 128.707C172.182 128.886 172.622 128.976 173.116 128.976C173.739 128.976 174.294 128.85 174.781 128.6C175.268 128.349 175.691 127.994 176.049 127.536L177.413 128.857C177.162 129.223 176.837 129.574 176.436 129.91C176.035 130.24 175.544 130.508 174.964 130.716C174.391 130.924 173.725 131.027 172.966 131.027Z" fill="black" fill-opacity="0.2"/>
<path d="M66.9512 125.721H69.6367C69.5508 126.745 69.2643 127.658 68.7773 128.46C68.2904 129.255 67.6064 129.882 66.7256 130.34C65.8447 130.798 64.7741 131.027 63.5137 131.027C62.5469 131.027 61.6768 130.855 60.9033 130.512C60.1299 130.161 59.4674 129.667 58.916 129.029C58.3646 128.385 57.9421 127.608 57.6484 126.698C57.362 125.789 57.2188 124.772 57.2188 123.647V122.348C57.2188 121.223 57.3656 120.206 57.6592 119.297C57.96 118.387 58.3896 117.61 58.9482 116.966C59.5068 116.314 60.1764 115.816 60.957 115.473C61.7448 115.129 62.6292 114.957 63.6104 114.957C64.8564 114.957 65.9092 115.186 66.7686 115.645C67.6279 116.103 68.2939 116.737 68.7666 117.546C69.2464 118.355 69.54 119.283 69.6475 120.328H66.9619C66.8903 119.655 66.7327 119.078 66.4893 118.599C66.2529 118.119 65.902 117.754 65.4365 117.503C64.971 117.245 64.3623 117.116 63.6104 117.116C62.9945 117.116 62.4574 117.231 61.999 117.46C61.5407 117.689 61.1576 118.026 60.8496 118.47C60.5417 118.914 60.3089 119.462 60.1514 120.113C60.001 120.758 59.9258 121.495 59.9258 122.326V123.647C59.9258 124.435 59.9938 125.151 60.1299 125.796C60.2731 126.433 60.488 126.981 60.7744 127.439C61.068 127.898 61.4404 128.252 61.8916 128.503C62.3428 128.754 62.8835 128.879 63.5137 128.879C64.2799 128.879 64.8994 128.757 65.3721 128.514C65.8519 128.27 66.2135 127.916 66.457 127.45C66.7077 126.978 66.8724 126.401 66.9512 125.721ZM74.5996 114.312V130.812H72V114.312H74.5996ZM76.9414 125.13V124.883C76.9414 124.045 77.0632 123.268 77.3066 122.552C77.5501 121.828 77.901 121.202 78.3594 120.672C78.8249 120.135 79.3906 119.719 80.0566 119.426C80.7298 119.125 81.4889 118.975 82.334 118.975C83.1862 118.975 83.9453 119.125 84.6113 119.426C85.2845 119.719 85.8538 120.135 86.3193 120.672C86.7848 121.202 87.1393 121.828 87.3828 122.552C87.6263 123.268 87.748 124.045 87.748 124.883V125.13C87.748 125.968 87.6263 126.745 87.3828 127.461C87.1393 128.177 86.7848 128.804 86.3193 129.341C85.8538 129.871 85.2881 130.286 84.6221 130.587C83.9561 130.881 83.2005 131.027 82.3555 131.027C81.5033 131.027 80.7406 130.881 80.0674 130.587C79.4014 130.286 78.8356 129.871 78.3701 129.341C77.9046 128.804 77.5501 128.177 77.3066 127.461C77.0632 126.745 76.9414 125.968 76.9414 125.13ZM79.5303 124.883V125.13C79.5303 125.653 79.584 126.147 79.6914 126.612C79.7988 127.078 79.9671 127.486 80.1963 127.837C80.4255 128.188 80.7191 128.464 81.0771 128.664C81.4352 128.865 81.8613 128.965 82.3555 128.965C82.8353 128.965 83.2507 128.865 83.6016 128.664C83.9596 128.464 84.2533 128.188 84.4824 127.837C84.7116 127.486 84.8799 127.078 84.9873 126.612C85.1019 126.147 85.1592 125.653 85.1592 125.13V124.883C85.1592 124.367 85.1019 123.88 84.9873 123.422C84.8799 122.956 84.708 122.545 84.4717 122.187C84.2425 121.828 83.9489 121.549 83.5908 121.349C83.2399 121.141 82.821 121.037 82.334 121.037C81.847 121.037 81.4245 121.141 81.0664 121.349C80.7155 121.549 80.4255 121.828 80.1963 122.187C79.9671 122.545 79.7988 122.956 79.6914 123.422C79.584 123.88 79.5303 124.367 79.5303 124.883ZM96.9111 128.073V119.189H99.5107V130.812H97.0615L96.9111 128.073ZM97.2764 125.656L98.1465 125.635C98.1465 126.415 98.0605 127.135 97.8887 127.794C97.7168 128.446 97.4518 129.015 97.0938 129.502C96.7357 129.982 96.2773 130.358 95.7188 130.63C95.1602 130.895 94.4906 131.027 93.71 131.027C93.1442 131.027 92.625 130.945 92.1523 130.78C91.6797 130.616 91.2715 130.361 90.9277 130.018C90.5911 129.674 90.3298 129.226 90.1436 128.675C89.9574 128.123 89.8643 127.465 89.8643 126.698V119.189H92.4531V126.72C92.4531 127.142 92.5033 127.497 92.6035 127.783C92.7038 128.062 92.8398 128.288 93.0117 128.46C93.1836 128.632 93.3841 128.754 93.6133 128.825C93.8424 128.897 94.0859 128.933 94.3438 128.933C95.0814 128.933 95.6615 128.789 96.084 128.503C96.5137 128.209 96.818 127.815 96.9971 127.321C97.1833 126.827 97.2764 126.272 97.2764 125.656ZM109.254 128.406V114.312H111.854V130.812H109.501L109.254 128.406ZM101.691 125.13V124.904C101.691 124.023 101.795 123.221 102.003 122.498C102.211 121.768 102.511 121.141 102.905 120.618C103.299 120.088 103.779 119.684 104.345 119.404C104.91 119.118 105.548 118.975 106.257 118.975C106.959 118.975 107.575 119.111 108.104 119.383C108.634 119.655 109.086 120.045 109.458 120.554C109.83 121.055 110.128 121.657 110.35 122.358C110.572 123.053 110.729 123.826 110.822 124.679V125.398C110.729 126.229 110.572 126.988 110.35 127.676C110.128 128.363 109.83 128.958 109.458 129.459C109.086 129.96 108.631 130.347 108.094 130.619C107.564 130.891 106.944 131.027 106.235 131.027C105.534 131.027 104.9 130.881 104.334 130.587C103.775 130.293 103.299 129.882 102.905 129.352C102.511 128.822 102.211 128.199 102.003 127.482C101.795 126.759 101.691 125.975 101.691 125.13ZM104.28 124.904V125.13C104.28 125.66 104.327 126.154 104.42 126.612C104.52 127.071 104.674 127.475 104.882 127.826C105.09 128.17 105.358 128.442 105.688 128.643C106.024 128.836 106.425 128.933 106.891 128.933C107.478 128.933 107.961 128.804 108.341 128.546C108.72 128.288 109.018 127.941 109.232 127.504C109.454 127.06 109.605 126.566 109.684 126.021V124.077C109.641 123.655 109.551 123.261 109.415 122.896C109.286 122.53 109.111 122.212 108.889 121.939C108.667 121.66 108.391 121.445 108.062 121.295C107.739 121.137 107.356 121.059 106.912 121.059C106.439 121.059 106.038 121.159 105.709 121.359C105.38 121.56 105.107 121.836 104.893 122.187C104.685 122.537 104.531 122.946 104.431 123.411C104.33 123.877 104.28 124.374 104.28 124.904ZM122.606 121.671V130.812H120.018V119.189H122.456L122.606 121.671ZM122.145 124.571L121.307 124.561C121.314 123.737 121.428 122.981 121.65 122.294C121.88 121.606 122.195 121.016 122.596 120.521C123.004 120.027 123.491 119.648 124.057 119.383C124.622 119.111 125.253 118.975 125.947 118.975C126.506 118.975 127.011 119.053 127.462 119.211C127.92 119.361 128.311 119.608 128.633 119.952C128.962 120.296 129.213 120.743 129.385 121.295C129.557 121.839 129.643 122.509 129.643 123.304V130.812H127.043V123.293C127.043 122.734 126.961 122.294 126.796 121.972C126.638 121.642 126.406 121.41 126.098 121.273C125.797 121.13 125.421 121.059 124.97 121.059C124.526 121.059 124.128 121.152 123.777 121.338C123.426 121.524 123.129 121.778 122.886 122.101C122.649 122.423 122.467 122.795 122.338 123.218C122.209 123.64 122.145 124.091 122.145 124.571ZM138.838 128.481V122.938C138.838 122.523 138.763 122.165 138.612 121.864C138.462 121.563 138.233 121.331 137.925 121.166C137.624 121.001 137.244 120.919 136.786 120.919C136.364 120.919 135.998 120.991 135.69 121.134C135.382 121.277 135.143 121.47 134.971 121.714C134.799 121.957 134.713 122.233 134.713 122.541H132.135C132.135 122.083 132.246 121.639 132.468 121.209C132.69 120.779 133.012 120.396 133.435 120.06C133.857 119.723 134.362 119.458 134.949 119.265C135.536 119.071 136.195 118.975 136.926 118.975C137.799 118.975 138.573 119.121 139.246 119.415C139.926 119.709 140.46 120.153 140.847 120.747C141.241 121.334 141.438 122.072 141.438 122.96V128.127C141.438 128.657 141.473 129.133 141.545 129.556C141.624 129.971 141.735 130.333 141.878 130.641V130.812H139.225C139.103 130.533 139.006 130.179 138.935 129.749C138.87 129.312 138.838 128.89 138.838 128.481ZM139.214 123.744L139.235 125.345H137.377C136.897 125.345 136.475 125.391 136.109 125.484C135.744 125.57 135.44 125.699 135.196 125.871C134.953 126.043 134.77 126.251 134.648 126.494C134.527 126.738 134.466 127.013 134.466 127.321C134.466 127.629 134.537 127.912 134.681 128.17C134.824 128.421 135.032 128.618 135.304 128.761C135.583 128.904 135.92 128.976 136.313 128.976C136.843 128.976 137.305 128.868 137.699 128.653C138.1 128.431 138.415 128.163 138.645 127.848C138.874 127.525 138.995 127.221 139.01 126.935L139.848 128.084C139.762 128.378 139.615 128.693 139.407 129.029C139.2 129.366 138.927 129.688 138.591 129.996C138.261 130.297 137.864 130.544 137.398 130.737C136.94 130.931 136.41 131.027 135.809 131.027C135.049 131.027 134.373 130.877 133.778 130.576C133.184 130.268 132.718 129.856 132.382 129.341C132.045 128.818 131.877 128.227 131.877 127.568C131.877 126.952 131.992 126.408 132.221 125.936C132.457 125.456 132.801 125.055 133.252 124.732C133.71 124.41 134.269 124.167 134.928 124.002C135.587 123.83 136.339 123.744 137.184 123.744H139.214ZM149.473 119.189V121.08H142.92V119.189H149.473ZM144.811 116.343H147.399V127.601C147.399 127.959 147.45 128.234 147.55 128.428C147.657 128.614 147.804 128.739 147.99 128.804C148.176 128.868 148.395 128.9 148.646 128.9C148.825 128.9 148.996 128.89 149.161 128.868C149.326 128.847 149.458 128.825 149.559 128.804L149.569 130.78C149.354 130.845 149.104 130.902 148.817 130.952C148.538 131.002 148.216 131.027 147.851 131.027C147.256 131.027 146.73 130.924 146.271 130.716C145.813 130.501 145.455 130.154 145.197 129.674C144.939 129.194 144.811 128.557 144.811 127.762V116.343ZM154.242 119.189V130.812H151.643V119.189H154.242ZM151.471 116.139C151.471 115.745 151.6 115.419 151.857 115.161C152.122 114.896 152.488 114.764 152.953 114.764C153.411 114.764 153.773 114.896 154.038 115.161C154.303 115.419 154.436 115.745 154.436 116.139C154.436 116.525 154.303 116.848 154.038 117.105C153.773 117.363 153.411 117.492 152.953 117.492C152.488 117.492 152.122 117.363 151.857 117.105C151.6 116.848 151.471 116.525 151.471 116.139ZM160.859 128.761L163.706 119.189H166.392L162.353 130.812H160.677L160.859 128.761ZM158.679 119.189L161.579 128.804L161.719 130.812H160.043L155.982 119.189H158.679ZM172.966 131.027C172.106 131.027 171.329 130.888 170.635 130.608C169.947 130.322 169.36 129.924 168.873 129.416C168.393 128.908 168.024 128.31 167.767 127.622C167.509 126.935 167.38 126.193 167.38 125.398V124.969C167.38 124.059 167.512 123.236 167.777 122.498C168.042 121.76 168.411 121.13 168.884 120.607C169.356 120.077 169.915 119.673 170.56 119.394C171.204 119.114 171.902 118.975 172.654 118.975C173.485 118.975 174.212 119.114 174.835 119.394C175.458 119.673 175.974 120.067 176.382 120.575C176.797 121.076 177.105 121.674 177.306 122.369C177.513 123.064 177.617 123.83 177.617 124.668V125.774H168.637V123.916H175.061V123.712C175.046 123.246 174.953 122.81 174.781 122.401C174.617 121.993 174.362 121.664 174.019 121.413C173.675 121.162 173.216 121.037 172.644 121.037C172.214 121.037 171.831 121.13 171.494 121.316C171.165 121.495 170.889 121.757 170.667 122.101C170.445 122.444 170.273 122.86 170.151 123.347C170.037 123.826 169.979 124.367 169.979 124.969V125.398C169.979 125.907 170.048 126.38 170.184 126.816C170.327 127.246 170.535 127.622 170.807 127.944C171.079 128.267 171.408 128.521 171.795 128.707C172.182 128.886 172.622 128.976 173.116 128.976C173.739 128.976 174.294 128.85 174.781 128.6C175.268 128.349 175.691 127.994 176.049 127.536L177.413 128.857C177.162 129.223 176.837 129.574 176.436 129.91C176.035 130.24 175.544 130.508 174.964 130.716C174.391 130.924 173.725 131.027 172.966 131.027Z" fill="black" fill-opacity="0.2"/>
<path d="M66.9512 125.721H69.6367C69.5508 126.745 69.2643 127.658 68.7773 128.46C68.2904 129.255 67.6064 129.882 66.7256 130.34C65.8447 130.798 64.7741 131.027 63.5137 131.027C62.5469 131.027 61.6768 130.855 60.9033 130.512C60.1299 130.161 59.4674 129.667 58.916 129.029C58.3646 128.385 57.9421 127.608 57.6484 126.698C57.362 125.789 57.2188 124.772 57.2188 123.647V122.348C57.2188 121.223 57.3656 120.206 57.6592 119.297C57.96 118.387 58.3896 117.61 58.9482 116.966C59.5068 116.314 60.1764 115.816 60.957 115.473C61.7448 115.129 62.6292 114.957 63.6104 114.957C64.8564 114.957 65.9092 115.186 66.7686 115.645C67.6279 116.103 68.2939 116.737 68.7666 117.546C69.2464 118.355 69.54 119.283 69.6475 120.328H66.9619C66.8903 119.655 66.7327 119.078 66.4893 118.599C66.2529 118.119 65.902 117.754 65.4365 117.503C64.971 117.245 64.3623 117.116 63.6104 117.116C62.9945 117.116 62.4574 117.231 61.999 117.46C61.5407 117.689 61.1576 118.026 60.8496 118.47C60.5417 118.914 60.3089 119.462 60.1514 120.113C60.001 120.758 59.9258 121.495 59.9258 122.326V123.647C59.9258 124.435 59.9938 125.151 60.1299 125.796C60.2731 126.433 60.488 126.981 60.7744 127.439C61.068 127.898 61.4404 128.252 61.8916 128.503C62.3428 128.754 62.8835 128.879 63.5137 128.879C64.2799 128.879 64.8994 128.757 65.3721 128.514C65.8519 128.27 66.2135 127.916 66.457 127.45C66.7077 126.978 66.8724 126.401 66.9512 125.721ZM74.5996 114.312V130.812H72V114.312H74.5996ZM76.9414 125.13V124.883C76.9414 124.045 77.0632 123.268 77.3066 122.552C77.5501 121.828 77.901 121.202 78.3594 120.672C78.8249 120.135 79.3906 119.719 80.0566 119.426C80.7298 119.125 81.4889 118.975 82.334 118.975C83.1862 118.975 83.9453 119.125 84.6113 119.426C85.2845 119.719 85.8538 120.135 86.3193 120.672C86.7848 121.202 87.1393 121.828 87.3828 122.552C87.6263 123.268 87.748 124.045 87.748 124.883V125.13C87.748 125.968 87.6263 126.745 87.3828 127.461C87.1393 128.177 86.7848 128.804 86.3193 129.341C85.8538 129.871 85.2881 130.286 84.6221 130.587C83.9561 130.881 83.2005 131.027 82.3555 131.027C81.5033 131.027 80.7406 130.881 80.0674 130.587C79.4014 130.286 78.8356 129.871 78.3701 129.341C77.9046 128.804 77.5501 128.177 77.3066 127.461C77.0632 126.745 76.9414 125.968 76.9414 125.13ZM79.5303 124.883V125.13C79.5303 125.653 79.584 126.147 79.6914 126.612C79.7988 127.078 79.9671 127.486 80.1963 127.837C80.4255 128.188 80.7191 128.464 81.0771 128.664C81.4352 128.865 81.8613 128.965 82.3555 128.965C82.8353 128.965 83.2507 128.865 83.6016 128.664C83.9596 128.464 84.2533 128.188 84.4824 127.837C84.7116 127.486 84.8799 127.078 84.9873 126.612C85.1019 126.147 85.1592 125.653 85.1592 125.13V124.883C85.1592 124.367 85.1019 123.88 84.9873 123.422C84.8799 122.956 84.708 122.545 84.4717 122.187C84.2425 121.828 83.9489 121.549 83.5908 121.349C83.2399 121.141 82.821 121.037 82.334 121.037C81.847 121.037 81.4245 121.141 81.0664 121.349C80.7155 121.549 80.4255 121.828 80.1963 122.187C79.9671 122.545 79.7988 122.956 79.6914 123.422C79.584 123.88 79.5303 124.367 79.5303 124.883ZM96.9111 128.073V119.189H99.5107V130.812H97.0615L96.9111 128.073ZM97.2764 125.656L98.1465 125.635C98.1465 126.415 98.0605 127.135 97.8887 127.794C97.7168 128.446 97.4518 129.015 97.0938 129.502C96.7357 129.982 96.2773 130.358 95.7188 130.63C95.1602 130.895 94.4906 131.027 93.71 131.027C93.1442 131.027 92.625 130.945 92.1523 130.78C91.6797 130.616 91.2715 130.361 90.9277 130.018C90.5911 129.674 90.3298 129.226 90.1436 128.675C89.9574 128.123 89.8643 127.465 89.8643 126.698V119.189H92.4531V126.72C92.4531 127.142 92.5033 127.497 92.6035 127.783C92.7038 128.062 92.8398 128.288 93.0117 128.46C93.1836 128.632 93.3841 128.754 93.6133 128.825C93.8424 128.897 94.0859 128.933 94.3438 128.933C95.0814 128.933 95.6615 128.789 96.084 128.503C96.5137 128.209 96.818 127.815 96.9971 127.321C97.1833 126.827 97.2764 126.272 97.2764 125.656ZM109.254 128.406V114.312H111.854V130.812H109.501L109.254 128.406ZM101.691 125.13V124.904C101.691 124.023 101.795 123.221 102.003 122.498C102.211 121.768 102.511 121.141 102.905 120.618C103.299 120.088 103.779 119.684 104.345 119.404C104.91 119.118 105.548 118.975 106.257 118.975C106.959 118.975 107.575 119.111 108.104 119.383C108.634 119.655 109.086 120.045 109.458 120.554C109.83 121.055 110.128 121.657 110.35 122.358C110.572 123.053 110.729 123.826 110.822 124.679V125.398C110.729 126.229 110.572 126.988 110.35 127.676C110.128 128.363 109.83 128.958 109.458 129.459C109.086 129.96 108.631 130.347 108.094 130.619C107.564 130.891 106.944 131.027 106.235 131.027C105.534 131.027 104.9 130.881 104.334 130.587C103.775 130.293 103.299 129.882 102.905 129.352C102.511 128.822 102.211 128.199 102.003 127.482C101.795 126.759 101.691 125.975 101.691 125.13ZM104.28 124.904V125.13C104.28 125.66 104.327 126.154 104.42 126.612C104.52 127.071 104.674 127.475 104.882 127.826C105.09 128.17 105.358 128.442 105.688 128.643C106.024 128.836 106.425 128.933 106.891 128.933C107.478 128.933 107.961 128.804 108.341 128.546C108.72 128.288 109.018 127.941 109.232 127.504C109.454 127.06 109.605 126.566 109.684 126.021V124.077C109.641 123.655 109.551 123.261 109.415 122.896C109.286 122.53 109.111 122.212 108.889 121.939C108.667 121.66 108.391 121.445 108.062 121.295C107.739 121.137 107.356 121.059 106.912 121.059C106.439 121.059 106.038 121.159 105.709 121.359C105.38 121.56 105.107 121.836 104.893 122.187C104.685 122.537 104.531 122.946 104.431 123.411C104.33 123.877 104.28 124.374 104.28 124.904ZM122.606 121.671V130.812H120.018V119.189H122.456L122.606 121.671ZM122.145 124.571L121.307 124.561C121.314 123.737 121.428 122.981 121.65 122.294C121.88 121.606 122.195 121.016 122.596 120.521C123.004 120.027 123.491 119.648 124.057 119.383C124.622 119.111 125.253 118.975 125.947 118.975C126.506 118.975 127.011 119.053 127.462 119.211C127.92 119.361 128.311 119.608 128.633 119.952C128.962 120.296 129.213 120.743 129.385 121.295C129.557 121.839 129.643 122.509 129.643 123.304V130.812H127.043V123.293C127.043 122.734 126.961 122.294 126.796 121.972C126.638 121.642 126.406 121.41 126.098 121.273C125.797 121.13 125.421 121.059 124.97 121.059C124.526 121.059 124.128 121.152 123.777 121.338C123.426 121.524 123.129 121.778 122.886 122.101C122.649 122.423 122.467 122.795 122.338 123.218C122.209 123.64 122.145 124.091 122.145 124.571ZM138.838 128.481V122.938C138.838 122.523 138.763 122.165 138.612 121.864C138.462 121.563 138.233 121.331 137.925 121.166C137.624 121.001 137.244 120.919 136.786 120.919C136.364 120.919 135.998 120.991 135.69 121.134C135.382 121.277 135.143 121.47 134.971 121.714C134.799 121.957 134.713 122.233 134.713 122.541H132.135C132.135 122.083 132.246 121.639 132.468 121.209C132.69 120.779 133.012 120.396 133.435 120.06C133.857 119.723 134.362 119.458 134.949 119.265C135.536 119.071 136.195 118.975 136.926 118.975C137.799 118.975 138.573 119.121 139.246 119.415C139.926 119.709 140.46 120.153 140.847 120.747C141.241 121.334 141.438 122.072 141.438 122.96V128.127C141.438 128.657 141.473 129.133 141.545 129.556C141.624 129.971 141.735 130.333 141.878 130.641V130.812H139.225C139.103 130.533 139.006 130.179 138.935 129.749C138.87 129.312 138.838 128.89 138.838 128.481ZM139.214 123.744L139.235 125.345H137.377C136.897 125.345 136.475 125.391 136.109 125.484C135.744 125.57 135.44 125.699 135.196 125.871C134.953 126.043 134.77 126.251 134.648 126.494C134.527 126.738 134.466 127.013 134.466 127.321C134.466 127.629 134.537 127.912 134.681 128.17C134.824 128.421 135.032 128.618 135.304 128.761C135.583 128.904 135.92 128.976 136.313 128.976C136.843 128.976 137.305 128.868 137.699 128.653C138.1 128.431 138.415 128.163 138.645 127.848C138.874 127.525 138.995 127.221 139.01 126.935L139.848 128.084C139.762 128.378 139.615 128.693 139.407 129.029C139.2 129.366 138.927 129.688 138.591 129.996C138.261 130.297 137.864 130.544 137.398 130.737C136.94 130.931 136.41 131.027 135.809 131.027C135.049 131.027 134.373 130.877 133.778 130.576C133.184 130.268 132.718 129.856 132.382 129.341C132.045 128.818 131.877 128.227 131.877 127.568C131.877 126.952 131.992 126.408 132.221 125.936C132.457 125.456 132.801 125.055 133.252 124.732C133.71 124.41 134.269 124.167 134.928 124.002C135.587 123.83 136.339 123.744 137.184 123.744H139.214ZM149.473 119.189V121.08H142.92V119.189H149.473ZM144.811 116.343H147.399V127.601C147.399 127.959 147.45 128.234 147.55 128.428C147.657 128.614 147.804 128.739 147.99 128.804C148.176 128.868 148.395 128.9 148.646 128.9C148.825 128.9 148.996 128.89 149.161 128.868C149.326 128.847 149.458 128.825 149.559 128.804L149.569 130.78C149.354 130.845 149.104 130.902 148.817 130.952C148.538 131.002 148.216 131.027 147.851 131.027C147.256 131.027 146.73 130.924 146.271 130.716C145.813 130.501 145.455 130.154 145.197 129.674C144.939 129.194 144.811 128.557 144.811 127.762V116.343ZM154.242 119.189V130.812H151.643V119.189H154.242ZM151.471 116.139C151.471 115.745 151.6 115.419 151.857 115.161C152.122 114.896 152.488 114.764 152.953 114.764C153.411 114.764 153.773 114.896 154.038 115.161C154.303 115.419 154.436 115.745 154.436 116.139C154.436 116.525 154.303 116.848 154.038 117.105C153.773 117.363 153.411 117.492 152.953 117.492C152.488 117.492 152.122 117.363 151.857 117.105C151.6 116.848 151.471 116.525 151.471 116.139ZM160.859 128.761L163.706 119.189H166.392L162.353 130.812H160.677L160.859 128.761ZM158.679 119.189L161.579 128.804L161.719 130.812H160.043L155.982 119.189H158.679ZM172.966 131.027C172.106 131.027 171.329 130.888 170.635 130.608C169.947 130.322 169.36 129.924 168.873 129.416C168.393 128.908 168.024 128.31 167.767 127.622C167.509 126.935 167.38 126.193 167.38 125.398V124.969C167.38 124.059 167.512 123.236 167.777 122.498C168.042 121.76 168.411 121.13 168.884 120.607C169.356 120.077 169.915 119.673 170.56 119.394C171.204 119.114 171.902 118.975 172.654 118.975C173.485 118.975 174.212 119.114 174.835 119.394C175.458 119.673 175.974 120.067 176.382 120.575C176.797 121.076 177.105 121.674 177.306 122.369C177.513 123.064 177.617 123.83 177.617 124.668V125.774H168.637V123.916H175.061V123.712C175.046 123.246 174.953 122.81 174.781 122.401C174.617 121.993 174.362 121.664 174.019 121.413C173.675 121.162 173.216 121.037 172.644 121.037C172.214 121.037 171.831 121.13 171.494 121.316C171.165 121.495 170.889 121.757 170.667 122.101C170.445 122.444 170.273 122.86 170.151 123.347C170.037 123.826 169.979 124.367 169.979 124.969V125.398C169.979 125.907 170.048 126.38 170.184 126.816C170.327 127.246 170.535 127.622 170.807 127.944C171.079 128.267 171.408 128.521 171.795 128.707C172.182 128.886 172.622 128.976 173.116 128.976C173.739 128.976 174.294 128.85 174.781 128.6C175.268 128.349 175.691 127.994 176.049 127.536L177.413 128.857C177.162 129.223 176.837 129.574 176.436 129.91C176.035 130.24 175.544 130.508 174.964 130.716C174.391 130.924 173.725 131.027 172.966 131.027Z" fill="black" fill-opacity="0.2"/>
<defs>
<linearGradient id="paint0_linear_1376_24864" x1="25.5246" y1="122.554" x2="202.349" y2="122.554" gradientUnits="userSpaceOnUse">
<stop stop-color="white"/>
<stop offset="0.29" stop-color="#FAFAFA"/>
<stop offset="0.6" stop-color="#EDEEEE"/>
<stop offset="0.92" stop-color="#D7D9DA"/>
<stop offset="1" stop-color="#D1D3D4"/>
</linearGradient>
<linearGradient id="paint1_linear_1376_24864" x1="28.3906" y1="122.553" x2="199.499" y2="122.553" gradientUnits="userSpaceOnUse">
<stop stop-color="#D1D3D4"/>
<stop offset="0.08" stop-color="#D7D9DA"/>
<stop offset="0.4" stop-color="#EDEEEE"/>
<stop offset="0.71" stop-color="#FAFAFA"/>
<stop offset="1" stop-color="white"/>
</linearGradient>
</defs>
</svg>
