<?xml version="1.0" encoding="utf-8"?>
<!-- Generator: Adobe Illustrator 28.1.0, SVG Export Plug-In . SVG Version: 6.00 Build 0)  -->
<svg version="1.1" id="Layer_1" xmlns="http://www.w3.org/2000/svg" xmlns:xlink="http://www.w3.org/1999/xlink" x="0px" y="0px"
	 viewBox="0 0 200 200" style="enable-background:new 0 0 200 200;" xml:space="preserve">
<style type="text/css">
	.st0{fill:#FFFFFF;}
</style>
<g>
	<path class="st0" d="M10,10v65.9h15.9c7.1,0,13.5,3.1,17.9,8c2.8,3.1,4.8,7,5.6,11.2c2.2-11,11.9-19.2,23.6-19.2
		c11.6,0,21.3,8.3,23.6,19.3V75.9l24,24l24.1-24v19.3c2.2-11,11.9-19.3,23.6-19.3c9.6,0,17.8,5.6,21.7,13.7V10H10z"/>
	<path class="st0" d="M168.3,124c-11.6,0-21.3-8.3-23.6-19.3V124h-8.1V95.2l-16,16.1l-16.1-16.1V124h-8v-19.3
		c-2.2,11-11.9,19.3-23.6,19.3c-11.6,0-21.3-8.3-23.6-19.2c-0.9,4.3-2.8,8.1-5.6,11.2c-4.4,4.9-10.8,8-17.9,8H10v66h180v-79.7
		C186.1,118.4,177.9,124,168.3,124z"/>
	<ellipse transform="matrix(0.6386 -0.7695 0.7695 0.6386 -50.5069 92.3274)" class="st0" cx="73.1" cy="99.9" rx="16" ry="16"/>
	<path class="st0" d="M27,83.9h-9v32h9c8.4-0.5,15-7.5,15-16C42,91.4,35.4,84.5,27,83.9z"/>
	<ellipse transform="matrix(0.6386 -0.7695 0.7695 0.6386 -16.0837 165.6304)" class="st0" cx="168.3" cy="99.9" rx="16" ry="16"/>
</g>
</svg>
