<svg width="72" height="73" viewBox="0 0 72 73" fill="none" xmlns="http://www.w3.org/2000/svg">
<g clip-path="url(#clip0_990_2942)">
<path d="M26.684 52.5644L8.41694 36.983C5.50983 34.5032 6.25198 29.7309 9.75608 28.3941L31.7622 19.9985L53.7684 11.6029C57.2725 10.2661 60.9075 13.368 60.3105 17.1845L56.5709 41.1584L52.8312 65.1323C52.2372 68.9484 47.857 70.6193 44.9499 68.1396L26.6829 52.5582L26.684 52.5644Z" fill="#4099D4"/>
<path d="M33.3923 31.3547C34.7182 30.2988 36.3153 29.6387 37.9998 29.4504V39.3954H47.9448C47.7566 41.08 47.0965 42.6771 46.0406 44.003C44.9847 45.3289 43.5759 46.3298 41.9762 46.8903C40.3766 47.4508 38.6512 47.5483 36.9986 47.1715C35.346 46.7947 33.8334 45.959 32.6349 44.7604C31.4363 43.5619 30.6006 42.0493 30.2238 40.3967C29.847 38.7441 29.9444 37.0187 30.505 35.4191C31.0655 33.8194 32.0664 32.4106 33.3923 31.3547Z" stroke="white" stroke-width="2" stroke-linecap="round" stroke-linejoin="round"/>
<path d="M42 35.3955H47.488C47.0391 34.1301 46.3135 32.9808 45.3641 32.0314C44.4147 31.082 43.2654 30.3564 42 29.9075V35.3955Z" stroke="white" stroke-width="2" stroke-linecap="round" stroke-linejoin="round"/>
</g>
<defs>
<clipPath id="clip0_990_2942">
<rect width="72" height="72" fill="white" transform="translate(0 0.516113)"/>
</clipPath>
</defs>
</svg>
