<svg width="85" height="34" viewBox="0 0 85 34" fill="none" xmlns="http://www.w3.org/2000/svg">
<g id="DL_00000177443265886699571110000004149792841787555251_">
<g id="Group">
<path id="Vector" d="M82.5146 7.85397C78.9027 7.85397 75.4007 6.6958 72.5127 4.56103C69.6298 6.6958 66.1278 7.85397 62.5108 7.85397C58.8937 7.85397 55.3969 6.68813 52.5089 4.56103C49.6209 6.6958 46.1189 7.85397 42.507 7.85397C38.895 7.85397 35.3931 6.68813 32.5051 4.56103C29.6171 6.6958 26.1202 7.85397 22.5032 7.85397C18.8861 7.85397 15.3893 6.6958 12.5012 4.56103C9.61322 6.6958 6.1164 7.85397 2.49934 7.85397C1.60403 7.85397 0.875 7.12531 0.875 6.2305C0.875 5.33569 1.60403 4.60703 2.49934 4.60703C5.78386 4.60703 8.95838 3.41314 11.4294 1.25536C12.0434 0.721032 12.9566 0.721032 13.5705 1.25536C16.0467 3.41825 19.2161 4.60703 22.5006 4.60703C25.7851 4.60703 28.9596 3.41314 31.4307 1.25536C32.0446 0.721032 32.9579 0.721032 33.5718 1.25536C36.048 3.41825 39.2173 4.60703 42.5018 4.60703C45.7864 4.60703 48.9609 3.41314 51.432 1.25536C52.0459 0.721032 52.9591 0.721032 53.573 1.25536C56.0492 3.41825 59.2186 4.60703 62.5031 4.60703C65.7876 4.60703 68.9622 3.41314 71.4332 1.25536C72.0471 0.721032 72.9603 0.721032 73.5742 1.25536C76.0504 3.41825 79.2199 4.60703 82.5044 4.60703C83.3997 4.60703 84.1287 5.33569 84.1287 6.2305C84.1287 7.12531 83.3997 7.85397 82.5044 7.85397H82.5146Z" fill="#6F2B8C"/>
</g>
<g id="Group_2">
<path id="Vector_2" d="M82.5146 20.7213C78.9027 20.7213 75.4007 19.5555 72.5127 17.4284C69.6247 19.5632 66.1278 20.7213 62.5108 20.7213C58.8937 20.7213 55.3969 19.5555 52.5089 17.4284C49.6209 19.5632 46.1189 20.7213 42.507 20.7213C38.895 20.7213 35.3931 19.5555 32.5051 17.4284C29.6171 19.5632 26.1151 20.7213 22.5032 20.7213C18.8912 20.7213 15.3893 19.5555 12.5012 17.4284C9.61322 19.5632 6.11128 20.7213 2.49934 20.7213C1.60403 20.7213 0.875 19.9927 0.875 19.0979C0.875 18.2031 1.60403 17.4744 2.49934 17.4744C5.78386 17.4744 8.95838 16.2804 11.4294 14.1227C12.0434 13.5883 12.9566 13.5883 13.5705 14.1227C16.0467 16.2856 19.2161 17.4744 22.5006 17.4744C25.7851 17.4744 28.9596 16.2804 31.4307 14.1227C32.0446 13.5883 32.9579 13.5883 33.5718 14.1227C36.048 16.2856 39.2173 17.4744 42.5018 17.4744C45.7864 17.4744 48.9609 16.2804 51.432 14.1227C52.0459 13.5883 52.9591 13.5883 53.573 14.1227C56.0492 16.2856 59.2186 17.4744 62.5031 17.4744C65.7876 17.4744 68.9622 16.2804 71.4332 14.1227C72.0471 13.5883 72.9603 13.5883 73.5742 14.1227C76.0504 16.2856 79.2199 17.4744 82.5044 17.4744C83.3997 17.4744 84.1287 18.2031 84.1287 19.0979C84.1287 19.9927 83.3997 20.7213 82.5044 20.7213H82.5146Z" fill="#6F2B8C"/>
</g>
<g id="Group_3">
<path id="Vector_3" d="M82.5146 33.3867C78.9027 33.3867 75.4007 32.2286 72.5127 30.0938C69.6298 32.2286 66.1278 33.3867 62.5108 33.3867C58.8937 33.3867 55.3969 32.2209 52.5089 30.0938C49.6209 32.2286 46.1189 33.3867 42.507 33.3867C38.895 33.3867 35.3931 32.2209 32.5051 30.0938C29.6171 32.2286 26.1202 33.3867 22.5032 33.3867C18.8861 33.3867 15.3893 32.2286 12.5012 30.0938C9.61322 32.2286 6.1164 33.3867 2.49934 33.3867C1.60403 33.3867 0.875 32.658 0.875 31.7632C0.875 30.8684 1.60403 30.1398 2.49934 30.1398C5.78386 30.1398 8.95838 28.9459 11.4294 26.7881C12.0434 26.2537 12.9566 26.2537 13.5705 26.7881C16.0467 28.951 19.2161 30.1398 22.5006 30.1398C25.7851 30.1398 28.9596 28.9459 31.4307 26.7881C32.0446 26.2537 32.9579 26.2537 33.5718 26.7881C36.048 28.951 39.2173 30.1398 42.5018 30.1398C45.7864 30.1398 48.9609 28.9459 51.432 26.7881C52.0459 26.2537 52.9591 26.2537 53.573 26.7881C56.0492 28.951 59.2186 30.1398 62.5031 30.1398C65.7876 30.1398 68.9622 28.9459 71.4332 26.7881C72.0471 26.2537 72.9603 26.2537 73.5742 26.7881C76.0504 28.951 79.2199 30.1398 82.5044 30.1398C83.3997 30.1398 84.1287 30.8684 84.1287 31.7632C84.1287 32.658 83.3997 33.3867 82.5044 33.3867H82.5146Z" fill="#6F2B8C"/>
</g>
</g>
</svg>
