<svg width="50" height="55" viewBox="0 0 50 55" fill="none" xmlns="http://www.w3.org/2000/svg">
<g id="DWH_00000121254858476393206170000001205620167964070790_">
<path id="Vector" d="M49.6493 11.9011C49.6161 8.71559 46.9097 5.82916 42.0366 3.76854C37.5166 1.85876 31.5334 0.802856 25.1997 0.802856C18.866 0.802856 12.8827 1.85365 8.3627 3.76854C3.48198 5.83428 0.783254 8.7207 0.75 11.9062C0.75 11.919 0.75 11.9292 0.75 11.942V43.58C0.75 46.8908 3.45383 49.882 8.35246 51.9937C12.8495 53.9342 18.8327 55.0003 25.2048 55.0003C31.5794 55.0003 37.5626 53.9316 42.0571 51.9937C46.9608 49.882 49.6596 46.8908 49.6596 43.5749V11.9369C49.6596 11.9369 49.6596 11.9139 49.6596 11.9037H49.6493V11.9011ZM46.7946 33.9211C46.7946 35.6494 44.6126 37.531 40.9597 38.9551C36.7748 40.5913 31.1752 41.4861 25.192 41.4861C19.2088 41.4861 13.6092 40.5862 9.42429 38.9551C5.77142 37.531 3.58941 35.6494 3.58941 33.9211V28.2863C4.81726 29.263 6.43139 30.145 8.39596 30.8915C12.8751 32.6019 18.8404 33.5427 25.192 33.5427C31.5436 33.5427 37.5089 32.6019 41.988 30.8915C43.9526 30.1399 45.5642 29.2604 46.7946 28.2863V33.9211ZM46.7946 23.2703C46.7946 24.9858 44.6177 26.8393 40.9725 28.2276C36.8106 29.8178 31.2059 30.6896 25.1997 30.6896C12.4684 30.6896 3.59709 26.7754 3.59709 23.2626V17.3339C4.81983 18.3847 6.41604 19.3357 8.35758 20.1563C12.8776 22.0687 18.8609 23.1246 25.1946 23.1246C31.5283 23.1246 37.5115 22.0738 42.029 20.1563C43.9705 19.3357 45.5718 18.3821 46.7894 17.3339V23.2626L46.7946 23.2703ZM9.47288 6.39162C13.6476 4.62501 19.2344 3.65351 25.1997 3.65351C37.931 3.65351 46.8022 8.03297 46.8022 11.9625C46.8022 13.9259 44.6612 15.9558 40.929 17.5358C36.7543 19.3024 31.1676 20.274 25.2022 20.274C12.4709 20.274 3.59965 15.8945 3.59965 11.965C3.59709 10.0016 5.74071 7.96904 9.47288 6.39162ZM25.1997 52.1344C12.2791 52.1344 3.59709 47.7038 3.59709 43.5672V38.9653C4.82495 39.9521 6.43395 40.847 8.39084 41.6114C12.8981 43.3678 18.8634 44.3367 25.1971 44.3367C31.5308 44.3367 37.4961 43.3678 42.0034 41.6114C43.9603 40.847 45.5693 39.9521 46.7971 38.9653V43.5672C46.8022 47.7063 38.1203 52.1344 25.1997 52.1344Z" fill="#6F2B8C"/>
</g>
</svg>
