<svg width="65" height="50" viewBox="0 0 65 50" fill="none" xmlns="http://www.w3.org/2000/svg">
<g id="Apps_00000117639262493528906110000003909525958651204235_">
<g id="Group">
<path id="Vector" d="M57.9207 49.9279H7.07986C3.22234 49.9279 0.0810547 46.7884 0.0810547 42.9381V6.98975C0.0810547 3.13439 3.22234 0 7.07986 0H57.9207C61.7782 0 64.9195 3.1395 64.9195 6.98975V42.933C64.9195 46.7884 61.7782 49.9228 57.9207 49.9228V49.9279ZM7.07986 3.19064C4.98483 3.19064 3.27859 4.89589 3.27859 6.98975V42.933C3.27859 45.0269 4.98483 46.7321 7.07986 46.7321H57.9207C60.0158 46.7321 61.7219 45.0269 61.7219 42.933V6.98975C61.7219 4.89589 60.0158 3.19064 57.9207 3.19064H7.07986Z" fill="#6F2B8C"/>
</g>
<g id="Group_2">
<path id="Vector_2" d="M21.7632 32.8779C21.4588 32.8779 21.1595 32.791 20.9011 32.6299L10.756 26.2256C10.2853 25.9265 10.0039 25.4229 10.0039 24.8707C10.0039 24.3133 10.2802 23.8045 10.7458 23.5054L20.8909 16.9682C21.1493 16.802 21.4536 16.71 21.7632 16.71C22.3157 16.71 22.8248 16.9861 23.1241 17.4514C23.6075 18.1979 23.3876 19.2027 22.6406 19.6833L14.6237 24.8476L22.6278 29.8969C23.3799 30.3724 23.605 31.3721 23.1343 32.1237C22.835 32.5941 22.3234 32.8754 21.7683 32.8754H21.7632V32.8779Z" fill="#6F2B8C"/>
</g>
<g id="Group_3">
<path id="Vector_3" d="M30.146 37.3315C30.0257 37.3315 29.9055 37.3187 29.7853 37.2906C28.9181 37.0963 28.3733 36.2296 28.5677 35.3578L33.4433 13.8491C33.6096 13.1077 34.2593 12.5912 35.0216 12.5912C35.1418 12.5912 35.262 12.6015 35.3771 12.6322C36.2443 12.8265 36.7892 13.6931 36.5947 14.5649L31.7192 36.0736C31.5529 36.8151 30.9031 37.3315 30.146 37.3315Z" fill="#6F2B8C"/>
</g>
<g id="Group_4">
<path id="Vector_4" d="M44.2712 32.8779C43.7136 32.8779 43.202 32.5967 42.9053 32.1263C42.4295 31.3747 42.6597 30.375 43.4118 29.8995L51.4158 24.8502L43.3989 19.6859C42.652 19.2027 42.4345 18.2056 42.9154 17.4539C43.2147 16.9886 43.7187 16.7125 44.2763 16.7125C44.5859 16.7125 44.8903 16.7995 45.1487 16.9707L55.2938 23.5028C55.7594 23.802 56.0407 24.3108 56.0356 24.8681C56.0356 25.4254 55.7542 25.9291 55.2836 26.2231L45.1384 32.6274C44.8801 32.7936 44.5807 32.8805 44.2763 32.8805H44.2712V32.8779Z" fill="#6F2B8C"/>
</g>
</g>
</svg>
