<svg width="47" height="55" viewBox="0 0 47 55" fill="none" xmlns="http://www.w3.org/2000/svg">
<g id="cyhbersec_00000144333517692256257030000011273333897171477176_">
<g id="Group">
<path id="Vector" d="M22.6542 10.7643C22.6082 10.7643 22.5621 10.7821 22.5212 10.8052C19.3237 13.1981 14.6246 14.3921 7.73577 14.5634C7.61555 14.5634 7.52344 14.6605 7.52344 14.7807V28.525C7.52344 28.6452 7.62067 28.7423 7.7409 28.7423H22.6542C22.7745 28.7423 22.8716 28.6452 22.8716 28.525V10.9765C22.8716 10.8972 22.8256 10.8154 22.7514 10.7822C22.7233 10.7643 22.6875 10.7592 22.6594 10.7592L22.6542 10.7643Z" fill="#6F2B8C"/>
</g>
<g id="Group_2">
<path id="Vector_2" d="M45.6657 7.33848C45.3664 7.05214 44.9827 6.91407 44.5632 6.93708C33.8425 7.56345 29.1869 5.1986 24.3676 0.619721C23.7946 0.0751645 22.8916 0.0751645 22.3186 0.619721C17.5018 5.19349 12.8513 7.55322 2.13061 6.93708C2.09479 6.93708 2.06663 6.93708 2.03849 6.93708C1.6599 6.93708 1.30435 7.08027 1.02808 7.3436C0.72879 7.62483 0.5625 8.01598 0.5625 8.42248V31.9509C0.5625 44.4834 13.7184 52.8 23.0553 54.6996C23.2497 54.7405 23.4518 54.7405 23.6462 54.6996C32.9881 52.7949 46.1441 44.4834 46.1441 31.9509V8.42248C46.1441 8.01598 45.9727 7.62483 45.6785 7.3436L45.6657 7.33848ZM43.1614 31.9484C43.1614 42.5148 31.6554 49.8548 23.4825 51.6904L23.3443 51.7186L23.2062 51.6904C15.0358 49.8548 3.52728 42.5148 3.52728 31.9484V9.97944L4.16935 9.98968C13.7978 10.207 18.6324 7.78077 22.935 4.0737L23.3418 3.71832L23.7562 4.0737C28.0613 7.78588 32.9088 10.2147 42.5168 9.98968L43.1588 9.97177V31.9484H43.1614Z" fill="#6F2B8C"/>
</g>
<g id="Group_3">
<path id="Vector_3" d="M24.4206 47.0248C32.6651 44.9002 38.2928 39.0481 39.1727 31.7414V30.2023C39.1727 30.0821 39.0704 29.985 38.9477 29.985H24.4206C24.3004 29.985 24.2031 30.0821 24.2031 30.2023V46.8049C24.2031 46.8739 24.2313 46.9378 24.2901 46.9762C24.3285 47.0069 24.3745 47.0248 24.4206 47.0248Z" fill="#6F2B8C"/>
</g>
</g>
</svg>
