<svg width="90" height="90" viewBox="0 0 90 90" fill="none" xmlns="http://www.w3.org/2000/svg">
<path d="M30.9238 58.0265L5.71529 36.5242C1.70348 33.1021 2.72764 26.5163 7.56331 24.6715L37.9318 13.0856L68.3003 1.49962C73.136 -0.34515 78.1523 3.93541 77.3285 9.20225L72.1678 42.2863L67.007 75.3703C66.1873 80.6364 60.1427 82.9424 56.1309 79.5203L30.9223 58.018L30.9238 58.0265Z" fill="#F26B66"/>
<path d="M52.5957 47.2128H58.429V44.8795C58.429 44.1521 58.2023 43.4428 57.7805 42.8502C57.3587 42.2576 56.7628 41.8111 56.0756 41.5729C55.3883 41.3346 54.6439 41.3163 53.9458 41.5207C53.2478 41.725 52.6307 42.1417 52.1804 42.713M52.5957 47.2128H40.929M52.5957 47.2128V44.8795C52.5957 44.1141 52.4487 43.3826 52.1804 42.713M52.1804 42.713C51.7471 41.6303 50.9994 40.7022 50.0337 40.0485C49.068 39.3947 47.9285 39.0453 46.7624 39.0453C45.5962 39.0453 44.4568 39.3947 43.491 40.0485C42.5253 40.7022 41.7776 41.6303 41.3444 42.713M40.929 47.2128H35.0957V44.8795C35.0958 44.1521 35.3224 43.4428 35.7442 42.8502C36.166 42.2576 36.7619 41.8111 37.4492 41.5729C38.1364 41.3346 38.8808 41.3163 39.5789 41.5207C40.277 41.725 40.8941 42.1417 41.3444 42.713M40.929 47.2128V44.8795C40.929 44.1141 41.076 43.3826 41.3444 42.713M50.2624 32.0461C50.2624 32.9744 49.8936 33.8646 49.2372 34.521C48.5809 35.1774 47.6906 35.5461 46.7624 35.5461C45.8341 35.5461 44.9439 35.1774 44.2875 34.521C43.6311 33.8646 43.2624 32.9744 43.2624 32.0461C43.2624 31.1179 43.6311 30.2276 44.2875 29.5713C44.9439 28.9149 45.8341 28.5461 46.7624 28.5461C47.6906 28.5461 48.5809 28.9149 49.2372 29.5713C49.8936 30.2276 50.2624 31.1179 50.2624 32.0461ZM57.2624 35.5461C57.2624 36.165 57.0165 36.7585 56.579 37.1961C56.1414 37.6336 55.5479 37.8795 54.929 37.8795C54.3102 37.8795 53.7167 37.6336 53.2791 37.1961C52.8415 36.7585 52.5957 36.165 52.5957 35.5461C52.5957 34.9273 52.8415 34.3338 53.2791 33.8962C53.7167 33.4586 54.3102 33.2128 54.929 33.2128C55.5479 33.2128 56.1414 33.4586 56.579 33.8962C57.0165 34.3338 57.2624 34.9273 57.2624 35.5461ZM40.929 35.5461C40.929 36.165 40.6832 36.7585 40.2456 37.1961C39.808 37.6336 39.2145 37.8795 38.5957 37.8795C37.9769 37.8795 37.3834 37.6336 36.9458 37.1961C36.5082 36.7585 36.2624 36.165 36.2624 35.5461C36.2624 34.9273 36.5082 34.3338 36.9458 33.8962C37.3834 33.4586 37.9769 33.2128 38.5957 33.2128C39.2145 33.2128 39.808 33.4586 40.2456 33.8962C40.6832 34.3338 40.929 34.9273 40.929 35.5461Z" stroke="white" stroke-width="2" stroke-linecap="round" stroke-linejoin="round"/>
</svg>
