<svg width="90" height="90" viewBox="0 0 90 90" fill="none" xmlns="http://www.w3.org/2000/svg">
<path d="M31.1607 58.1471L5.9522 36.6448C1.94039 33.2227 2.96455 26.6369 7.80022 24.7921L38.1687 13.2062L68.5372 1.62023C73.3729 -0.224541 78.3892 4.05602 77.5654 9.32285L72.4047 42.4069L67.2439 75.4909C66.4242 80.757 60.3796 83.063 56.3678 79.6409L31.1592 58.1386L31.1607 58.1471Z" fill="#F26B66"/>
<path d="M52.8333 47.3334H58.6667V45.0001C58.6666 44.2727 58.4399 43.5634 58.0182 42.9708C57.5964 42.3782 57.0004 41.9317 56.3132 41.6935C55.626 41.4552 54.8816 41.4369 54.1835 41.6413C53.4854 41.8456 52.8683 42.2623 52.418 42.8336M52.8333 47.3334H41.1667M52.8333 47.3334V45.0001C52.8333 44.2347 52.6863 43.5032 52.418 42.8336M52.418 42.8336C51.9847 41.7509 51.237 40.8228 50.2713 40.1691C49.3056 39.5153 48.1662 39.1659 47 39.1659C45.8338 39.1659 44.6944 39.5153 43.7287 40.1691C42.7629 40.8228 42.0152 41.7509 41.582 42.8336M41.1667 47.3334H35.3333V45.0001C35.3334 44.2727 35.5601 43.5634 35.9818 42.9708C36.4036 42.3782 36.9995 41.9317 37.6868 41.6935C38.374 41.4552 39.1184 41.4369 39.8165 41.6413C40.5146 41.8456 41.1317 42.2623 41.582 42.8336M41.1667 47.3334V45.0001C41.1667 44.2347 41.3137 43.5032 41.582 42.8336M50.5 32.1667C50.5 33.095 50.1312 33.9852 49.4749 34.6416C48.8185 35.298 47.9283 35.6667 47 35.6667C46.0717 35.6667 45.1815 35.298 44.5251 34.6416C43.8687 33.9852 43.5 33.095 43.5 32.1667C43.5 31.2385 43.8687 30.3483 44.5251 29.6919C45.1815 29.0355 46.0717 28.6667 47 28.6667C47.9283 28.6667 48.8185 29.0355 49.4749 29.6919C50.1312 30.3483 50.5 31.2385 50.5 32.1667ZM57.5 35.6667C57.5 36.2856 57.2542 36.8791 56.8166 37.3167C56.379 37.7542 55.7855 38.0001 55.1667 38.0001C54.5478 38.0001 53.9543 37.7542 53.5167 37.3167C53.0792 36.8791 52.8333 36.2856 52.8333 35.6667C52.8333 35.0479 53.0792 34.4544 53.5167 34.0168C53.9543 33.5792 54.5478 33.3334 55.1667 33.3334C55.7855 33.3334 56.379 33.5792 56.8166 34.0168C57.2542 34.4544 57.5 35.0479 57.5 35.6667ZM41.1667 35.6667C41.1667 36.2856 40.9208 36.8791 40.4832 37.3167C40.0457 37.7542 39.4522 38.0001 38.8333 38.0001C38.2145 38.0001 37.621 37.7542 37.1834 37.3167C36.7458 36.8791 36.5 36.2856 36.5 35.6667C36.5 35.0479 36.7458 34.4544 37.1834 34.0168C37.621 33.5792 38.2145 33.3334 38.8333 33.3334C39.4522 33.3334 40.0457 33.5792 40.4832 34.0168C40.9208 34.4544 41.1667 35.0479 41.1667 35.6667Z" stroke="white" stroke-width="2" stroke-linecap="round" stroke-linejoin="round"/>
</svg>
