<svg width="90" height="90" viewBox="0 0 90 90" fill="none" xmlns="http://www.w3.org/2000/svg">
<path d="M30.9234 58.0265L5.71494 36.5242C1.70313 33.1021 2.72729 26.5163 7.56296 24.6715L37.9314 13.0856L68.2999 1.49962C73.1356 -0.34515 78.1519 3.93541 77.3281 9.20225L72.1674 42.2863L67.0067 75.3703C66.187 80.6364 60.1424 82.9424 56.1306 79.5203L30.9219 58.018L30.9234 58.0265Z" fill="#00D1FF"/>
<mask id="mask0_3396_6147" style="mask-type:luminance" maskUnits="userSpaceOnUse" x="35" y="25" width="24" height="24">
<path d="M59 25H35V49H59V25Z" fill="white"/>
</mask>
<g mask="url(#mask0_3396_6147)">
<path d="M45 44H54C54.3186 43.9836 54.6287 43.8912 54.9043 43.7305C55.1799 43.5698 55.4131 43.3456 55.5843 43.0764C55.7556 42.8073 55.86 42.501 55.8888 42.1833C55.9177 41.8656 55.8701 41.5456 55.75 41.25L55.2 40.25M45 44L47 42V46L45 44Z" stroke="white" stroke-width="2" stroke-linecap="round" stroke-linejoin="round"/>
<path d="M42.8048 33.2681L38.3048 41.0623C38.1597 41.3464 38.0847 41.6611 38.086 41.9802C38.0874 42.2992 38.165 42.6133 38.3124 42.8962C38.4599 43.1791 38.6729 43.4226 38.9336 43.6064C39.1944 43.7903 39.4953 43.909 39.8113 43.9528L40.9524 43.9765M42.8048 33.2681L43.5368 36.0001L40.0727 34.0001L42.8048 33.2681Z" stroke="white" stroke-width="2" stroke-linecap="round" stroke-linejoin="round"/>
<path d="M53.1992 36.7319L48.6992 28.9377C48.5257 28.67 48.2907 28.4477 48.0137 28.2893C47.7368 28.131 47.4259 28.0412 47.1072 28.0274C46.7885 28.0137 46.4711 28.0764 46.1815 28.2103C45.8919 28.3442 45.6386 28.5454 45.4427 28.7972L44.8516 29.7735M53.1992 36.7319L50.4672 35.9999L53.9313 33.9999L53.1992 36.7319Z" stroke="white" stroke-width="2" stroke-linecap="round" stroke-linejoin="round"/>
</g>
</svg>
