<svg width="90" height="90" viewBox="0 0 90 90" fill="none" xmlns="http://www.w3.org/2000/svg">
<path d="M31.1607 58.1471L5.9522 36.6448C1.94039 33.2227 2.96455 26.6369 7.80022 24.7921L38.1687 13.2062L68.5372 1.62023C73.3729 -0.224541 78.3892 4.05602 77.5654 9.32285L72.4047 42.4069L67.2439 75.4909C66.4242 80.757 60.3796 83.063 56.3678 79.6409L31.1592 58.1386L31.1607 58.1471Z" fill="#FEC560"/>
<path d="M36.5 49.5V44.8333M36.5 44.8333V30.8333C36.5 30.2145 36.7458 29.621 37.1834 29.1834C37.621 28.7458 38.2145 28.5 38.8333 28.5H46.4167L47.5833 29.6667H57.5L54 36.6667L57.5 43.6667H47.5833L46.4167 42.5H38.8333C38.2145 42.5 37.621 42.7458 37.1834 43.1834C36.7458 43.621 36.5 44.2145 36.5 44.8333ZM47 29.0833V35.5" stroke="white" stroke-width="2" stroke-linecap="round" stroke-linejoin="round"/>
</svg>
