<svg width="90" height="90" viewBox="0 0 90 90" fill="none" xmlns="http://www.w3.org/2000/svg">
<path d="M30.9238 58.0265L5.71529 36.5242C1.70348 33.1021 2.72764 26.5163 7.56331 24.6715L37.9318 13.0856L68.3003 1.49962C73.136 -0.34515 78.1523 3.93541 77.3285 9.20225L72.1678 42.2863L67.007 75.3703C66.1873 80.6364 60.1427 82.9424 56.1309 79.5203L30.9223 58.018L30.9238 58.0265Z" fill="#6F2B8C"/>
<g clip-path="url(#clip0_3306_10378)">
<path d="M47.9747 42.8223L53.1499 44.3745M39.5967 30.8213L41.1488 35.994L39.5967 30.8213Z" stroke="white" stroke-width="2" stroke-linecap="round" stroke-linejoin="round"/>
<path d="M46.5996 37.372L53.6105 30.3611" stroke="white" stroke-width="2" stroke-linecap="round" stroke-linejoin="round"/>
<path d="M39.0722 30.8992C40.0807 30.8992 40.8983 30.0817 40.8983 29.0732C40.8983 28.0646 40.0807 27.2471 39.0722 27.2471C38.0637 27.2471 37.2461 28.0646 37.2461 29.0732C37.2461 30.0817 38.0637 30.8992 39.0722 30.8992Z" stroke="white" stroke-width="2" stroke-linecap="round" stroke-linejoin="round"/>
<path d="M54.8983 30.8992C55.9069 30.8992 56.7244 30.0817 56.7244 29.0732C56.7244 28.0646 55.9069 27.2471 54.8983 27.2471C53.8898 27.2471 53.0723 28.0646 53.0723 29.0732C53.0723 30.0817 53.8898 30.8992 54.8983 30.8992Z" stroke="white" stroke-width="2" stroke-linecap="round" stroke-linejoin="round"/>
<path d="M54.8983 46.7252C55.9069 46.7252 56.7244 45.9076 56.7244 44.8991C56.7244 43.8906 55.9069 43.073 54.8983 43.073C53.8898 43.073 53.0723 43.8906 53.0723 44.8991C53.0723 45.9076 53.8898 46.7252 54.8983 46.7252Z" stroke="white" stroke-width="2" stroke-linecap="round" stroke-linejoin="round"/>
<path d="M42.7243 46.7253C45.7499 46.7253 48.2026 44.2726 48.2026 41.247C48.2026 38.2215 45.7499 35.7688 42.7243 35.7688C39.6988 35.7688 37.2461 38.2215 37.2461 41.247C37.2461 44.2726 39.6988 46.7253 42.7243 46.7253Z" stroke="white" stroke-width="2" stroke-linecap="round" stroke-linejoin="round"/>
</g>
<defs>
<clipPath id="clip0_3306_10378">
<rect width="29.2173" height="29.2173" fill="white" transform="translate(32.377 22.3774)"/>
</clipPath>
</defs>
</svg>
