<svg width="90" height="90" viewBox="0 0 90 90" fill="none" xmlns="http://www.w3.org/2000/svg">
<path d="M31.1607 58.1471L5.9522 36.6448C1.94039 33.2227 2.96455 26.6369 7.80022 24.7921L38.1687 13.2062L68.5372 1.62023C73.3729 -0.224541 78.3892 4.05602 77.5654 9.32285L72.4047 42.4069L67.2439 75.4909C66.4242 80.757 60.3796 83.063 56.3678 79.6409L31.1592 58.1386L31.1607 58.1471Z" fill="#6F2B8C"/>
<path d="M38.8333 32.3334H55.1667M38.8333 32.3334C38.2145 32.3334 37.621 32.0876 37.1834 31.65C36.7458 31.2124 36.5 30.6189 36.5 30.0001C36.5 29.3812 36.7458 28.7878 37.1834 28.3502C37.621 27.9126 38.2145 27.6667 38.8333 27.6667H55.1667C55.7855 27.6667 56.379 27.9126 56.8166 28.3502C57.2542 28.7878 57.5 29.3812 57.5 30.0001C57.5 30.6189 57.2542 31.2124 56.8166 31.65C56.379 32.0876 55.7855 32.3334 55.1667 32.3334M38.8333 32.3334V44.0001C38.8333 44.6189 39.0792 45.2124 39.5168 45.65C39.9543 46.0876 40.5478 46.3334 41.1667 46.3334H52.8333C53.4522 46.3334 54.0457 46.0876 54.4832 45.65C54.9208 45.2124 55.1667 44.6189 55.1667 44.0001V32.3334M44.6667 37.0001H49.3333" stroke="white" stroke-width="2" stroke-linecap="round" stroke-linejoin="round"/>
</svg>
