<svg width="90" height="90" viewBox="0 0 90 90" fill="none" xmlns="http://www.w3.org/2000/svg">
<path d="M30.9238 58.0265L5.71529 36.5242C1.70348 33.1021 2.72764 26.5163 7.56331 24.6715L37.9318 13.0856L68.3003 1.49962C73.136 -0.34515 78.1523 3.93541 77.3285 9.20225L72.1678 42.2863L67.007 75.3703C66.1873 80.6364 60.1427 82.9424 56.1309 79.5203L30.9223 58.018L30.9238 58.0265Z" fill="#4099D4"/>
<path d="M38.1849 49.4958H54.8952C56.9873 49.4958 58.69 47.7998 58.69 45.7137V29.0727C58.69 26.9866 56.9873 25.2907 54.8952 25.2907H38.1849C36.0927 25.2907 34.39 26.9866 34.39 29.0727V45.7137C34.39 47.7998 36.0928 49.4958 38.1849 49.4958ZM35.8227 29.0728C35.8227 27.7781 36.8818 26.7233 38.1849 26.7233L54.8952 26.7233C56.1983 26.7233 57.2574 27.7781 57.2574 29.0727V45.7138C57.2574 47.0085 56.1983 48.0633 54.8952 48.0633H38.1849C36.8818 48.0633 35.8227 47.0085 35.8227 45.7138V29.0728Z" fill="white" stroke="white" stroke-width="0.3"/>
<path d="M47.586 40.9284L47.5861 40.9285C47.7046 41.1964 47.967 41.3551 48.2417 41.3551C48.3383 41.3551 48.4368 41.3355 48.5307 41.2941L48.531 41.294C48.8929 41.134 49.0565 40.711 48.8966 40.3492L46.1079 34.0388L46.1079 34.0387C45.9443 33.6692 45.5777 33.4303 45.1734 33.4303C44.7692 33.4303 44.4026 33.6693 44.2391 34.0387L44.239 34.0388L41.4504 40.3492C41.4504 40.3492 41.4504 40.3492 41.4504 40.3492C41.2904 40.7111 41.4541 41.134 41.816 41.294L41.8163 41.2941C42.1789 41.4534 42.6008 41.29 42.7608 40.9285L42.7608 40.9284L45.1735 35.4687L47.586 40.9284Z" fill="white" stroke="white" stroke-width="0.3"/>
<path d="M44.1905 34.1351L44.1905 34.1351L42.4746 38.0179C42.3767 38.2394 42.3974 38.4955 42.5296 38.6983C42.6618 38.9016 42.8876 39.0238 43.1298 39.0238H47.216C47.4582 39.0238 47.684 38.9015 47.8162 38.6982C47.9483 38.4954 47.969 38.2394 47.8711 38.0179L46.1552 34.1351L46.1552 34.1351C45.9834 33.7463 45.5977 33.4953 45.1728 33.4953L45.1726 33.4953L45.1725 33.4953C44.7475 33.4957 44.3622 33.7467 44.1905 34.1351ZM44.2295 37.5911L45.173 35.4565L46.1163 37.5911H44.2295Z" fill="white" stroke="white" stroke-width="0.3"/>
<path d="M51.6909 40.6395V40.6394V36.8083C51.6909 36.4128 51.3703 36.0919 50.9745 36.0919C50.5788 36.0919 50.2582 36.4128 50.2582 36.8083V40.6394C50.2582 41.0348 50.5788 41.3557 50.9745 41.3557C51.3702 41.3557 51.6908 41.0349 51.6909 40.6395Z" fill="white" stroke="white" stroke-width="0.3"/>
<path d="M51.6909 34.4302V34.4302V34.227C51.6909 33.8315 51.3703 33.5106 50.9745 33.5106C50.5788 33.5106 50.2582 33.8315 50.2582 34.227V34.4302C50.2582 34.8256 50.5788 35.1465 50.9745 35.1465C51.3702 35.1465 51.6908 34.8257 51.6909 34.4302Z" fill="white" stroke="white" stroke-width="0.3"/>
</svg>
