<svg width="90" height="90" viewBox="0 0 90 90" fill="none" xmlns="http://www.w3.org/2000/svg">
<path d="M30.9234 58.0265L5.71494 36.5242C1.70313 33.1021 2.72729 26.5163 7.56296 24.6715L37.9314 13.0856L68.2999 1.49962C73.1356 -0.34515 78.1519 3.93541 77.3281 9.20225L72.1674 42.2863L67.0067 75.3703C66.187 80.6364 60.1424 82.9424 56.1306 79.5203L30.9219 58.018L30.9234 58.0265Z" fill="#98A2B3"/>
<mask id="mask0_3396_6137" style="mask-type:luminance" maskUnits="userSpaceOnUse" x="36" y="27" width="24" height="24">
<path d="M60 27H36V51H60V27Z" fill="white"/>
</mask>
<g mask="url(#mask0_3396_6137)">
<path d="M46 44C49.866 44 53 40.866 53 37C53 33.134 49.866 30 46 30C42.134 30 39 33.134 39 37C39 40.866 42.134 44 46 44Z" stroke="white" stroke-width="2" stroke-linecap="round" stroke-linejoin="round"/>
<path d="M57 48L51 42" stroke="white" stroke-width="2" stroke-linecap="round" stroke-linejoin="round"/>
<path d="M48 34H45.5C45.1022 34 44.7206 34.158 44.4393 34.4393C44.158 34.7206 44 35.1022 44 35.5C44 35.8978 44.158 36.2794 44.4393 36.5607C44.7206 36.842 45.1022 37 45.5 37H46.5C46.8978 37 47.2794 37.158 47.5607 37.4393C47.842 37.7206 48 38.1022 48 38.5C48 38.8978 47.842 39.2794 47.5607 39.5607C47.2794 39.842 46.8978 40 46.5 40H44" stroke="white" stroke-width="2" stroke-linecap="round" stroke-linejoin="round"/>
<path d="M46 33V34M46 40V41" stroke="white" stroke-width="2" stroke-linecap="round" stroke-linejoin="round"/>
</g>
</svg>
