<svg width="90" height="90" viewBox="0 0 90 90" fill="none" xmlns="http://www.w3.org/2000/svg">
<path d="M31.1607 58.1471L5.9522 36.6448C1.94039 33.2227 2.96455 26.6369 7.80022 24.7921L38.1687 13.2062L68.5372 1.62023C73.3729 -0.224541 78.3892 4.05602 77.5654 9.32285L72.4047 42.4069L67.2439 75.4909C66.4242 80.757 60.3796 83.063 56.3678 79.6409L31.1592 58.1386L31.1607 58.1471Z" fill="#4099D4"/>
<path d="M43.3333 44.3333H41C40.3812 44.3333 39.7877 44.0786 39.3501 43.6254C38.9125 43.1722 38.6667 42.5575 38.6667 41.9166V32.2499C38.6667 31.609 38.9125 30.9943 39.3501 30.5411C39.7877 30.0879 40.3812 29.8333 41 29.8333H50.3333C50.9522 29.8333 51.5457 30.0879 51.9832 30.5411C52.4208 30.9943 52.6667 31.609 52.6667 32.2499V34.6666M45.6667 49.1666H55C55.6188 49.1666 56.2123 48.912 56.6499 48.4588C57.0875 48.0055 57.3333 47.3909 57.3333 46.7499V37.0833C57.3333 36.4423 57.0875 35.8276 56.6499 35.3744C56.2123 34.9212 55.6188 34.6666 55 34.6666H45.6667C45.0478 34.6666 44.4543 34.9212 44.0167 35.3744C43.5792 35.8276 43.3333 36.4423 43.3333 37.0833V46.7499C43.3333 47.3909 43.5792 48.0055 44.0167 48.4588C44.4543 48.912 45.0478 49.1666 45.6667 49.1666Z" stroke="white" stroke-width="2" stroke-linecap="round" stroke-linejoin="round"/>
</svg>
