<svg width="90" height="90" viewBox="0 0 90 90" fill="none" xmlns="http://www.w3.org/2000/svg">
<path d="M30.9238 58.0265L5.71529 36.5242C1.70348 33.1021 2.72764 26.5163 7.56331 24.6715L37.9318 13.0856L68.3003 1.49962C73.136 -0.34515 78.1523 3.93541 77.3285 9.20225L72.1678 42.2863L67.007 75.3703C66.1873 80.6364 60.1427 82.9424 56.1309 79.5203L30.9223 58.018L30.9238 58.0265Z" fill="#FEC560"/>
<g clip-path="url(#clip0_3306_10402)">
<path d="M41.375 41.6875H52.625C53.1428 41.6875 53.5625 41.2678 53.5625 40.75V37.9375H56.1875C56.7053 37.9375 57.125 37.5178 57.125 37V30.4637C58.2162 30.0767 59 29.0347 59 27.8125C59 26.2617 57.7383 25 56.1875 25C54.9653 25 53.9233 25.7838 53.5363 26.875H51.6875V25.9375C51.6875 25.4197 51.2678 25 50.75 25H37.625C37.1072 25 36.6875 25.4197 36.6875 25.9375V29.6875C36.6875 30.2053 37.1072 30.625 37.625 30.625H50.75C51.2678 30.625 51.6875 30.2053 51.6875 29.6875V28.75H53.5363C53.8192 29.5477 54.4522 30.1808 55.25 30.4637V36.0625H53.5625V33.25C53.5625 32.7322 53.1428 32.3125 52.625 32.3125H41.375C40.8572 32.3125 40.4375 32.7322 40.4375 33.25V36.0625H37.8125C37.2947 36.0625 36.875 36.4822 36.875 37V43.5363C35.7838 43.9233 35 44.9653 35 46.1875C35 47.7383 36.2617 49 37.8125 49C39.0347 49 40.0767 48.2162 40.4637 47.125H42.3125V48.0625C42.3125 48.5803 42.7322 49 43.25 49H56.375C56.8928 49 57.3125 48.5803 57.3125 48.0625V44.3125C57.3125 43.7947 56.8928 43.375 56.375 43.375H43.25C42.7322 43.375 42.3125 43.7947 42.3125 44.3125V45.25H40.4637C40.1808 44.4523 39.5478 43.8192 38.75 43.5363V37.9375H40.4375V40.75C40.4375 41.2678 40.8572 41.6875 41.375 41.6875ZM49.8125 28.75H38.5625V26.875H49.8125V28.75ZM56.1875 26.875C56.7044 26.875 57.125 27.2956 57.125 27.8125C57.125 28.3294 56.7044 28.75 56.1875 28.75C55.6706 28.75 55.25 28.3294 55.25 27.8125C55.25 27.2956 55.6706 26.875 56.1875 26.875ZM44.1875 45.25H55.4375V47.125H44.1875V45.25ZM37.8125 47.125C37.2956 47.125 36.875 46.7044 36.875 46.1875C36.875 45.6706 37.2956 45.25 37.8125 45.25C38.3294 45.25 38.75 45.6706 38.75 46.1875C38.75 46.7044 38.3294 47.125 37.8125 47.125ZM42.3125 34.1875H51.6875V39.8125H42.3125V34.1875Z" fill="white"/>
<path d="M45.125 37.9375C45.6428 37.9375 46.0625 37.5178 46.0625 37C46.0625 36.4822 45.6428 36.0625 45.125 36.0625C44.6072 36.0625 44.1875 36.4822 44.1875 37C44.1875 37.5178 44.6072 37.9375 45.125 37.9375Z" fill="white"/>
<path d="M48.875 37.9375C49.3928 37.9375 49.8125 37.5178 49.8125 37C49.8125 36.4822 49.3928 36.0625 48.875 36.0625C48.3572 36.0625 47.9375 36.4822 47.9375 37C47.9375 37.5178 48.3572 37.9375 48.875 37.9375Z" fill="white"/>
</g>
<defs>
<clipPath id="clip0_3306_10402">
<rect width="24" height="24" fill="white" transform="translate(35 25)"/>
</clipPath>
</defs>
</svg>
