<svg width="72" height="73" viewBox="0 0 72 73" fill="none" xmlns="http://www.w3.org/2000/svg">
<g clip-path="url(#clip0_862_15)">
<path d="M26.684 52.169L8.41694 36.5876C5.50983 34.1079 6.25198 29.3355 9.75608 27.9987L31.7622 19.6031L53.7684 11.2075C57.2725 9.87074 60.9075 12.9726 60.3105 16.7891L56.5709 40.763L52.8312 64.737C52.2372 68.553 47.857 70.224 44.9499 67.7442L26.6829 52.1629L26.684 52.169Z" fill="#6F2B8C"/>
<path d="M34 43V37C34 36.4696 33.7893 35.9609 33.4142 35.5858C33.0391 35.2107 32.5304 35 32 35H30C29.4696 35 28.9609 35.2107 28.5858 35.5858C28.2107 35.9609 28 36.4696 28 37V43C28 43.5304 28.2107 44.0391 28.5858 44.4142C28.9609 44.7893 29.4696 45 30 45H32C32.5304 45 33.0391 44.7893 33.4142 44.4142C33.7893 44.0391 34 43.5304 34 43ZM34 43V33C34 32.4696 34.2107 31.9609 34.5858 31.5858C34.9609 31.2107 35.4696 31 36 31H38C38.5304 31 39.0391 31.2107 39.4142 31.5858C39.7893 31.9609 40 32.4696 40 33V43M34 43C34 43.5304 34.2107 44.0391 34.5858 44.4142C34.9609 44.7893 35.4696 45 36 45H38C38.5304 45 39.0391 44.7893 39.4142 44.4142C39.7893 44.0391 40 43.5304 40 43M40 43V29C40 28.4696 40.2107 27.9609 40.5858 27.5858C40.9609 27.2107 41.4696 27 42 27H44C44.5304 27 45.0391 27.2107 45.4142 27.5858C45.7893 27.9609 46 28.4696 46 29V43C46 43.5304 45.7893 44.0391 45.4142 44.4142C45.0391 44.7893 44.5304 45 44 45H42C41.4696 45 40.9609 44.7893 40.5858 44.4142C40.2107 44.0391 40 43.5304 40 43Z" stroke="white" stroke-width="2" stroke-linecap="round" stroke-linejoin="round"/>
</g>
<defs>
<clipPath id="clip0_862_15">
<rect width="72" height="72" fill="white" transform="translate(0 0.120728)"/>
</clipPath>
</defs>
</svg>
