<svg width="72" height="73" viewBox="0 0 72 73" fill="none" xmlns="http://www.w3.org/2000/svg">
<g clip-path="url(#clip0_757_18558)">
<path d="M26.684 52.169L8.41694 36.5876C5.50983 34.1079 6.25198 29.3355 9.75608 27.9987L31.7622 19.6031L53.7684 11.2075C57.2725 9.87074 60.9075 12.9726 60.3105 16.7891L56.5709 40.763L52.8312 64.737C52.2372 68.553 47.857 70.224 44.9499 67.7442L26.6829 52.1629L26.684 52.169Z" fill="#F26B66"/>
<path d="M33.3924 30.9593C34.7184 29.9034 36.3155 29.2433 38 29.0551V39.0001H47.945C47.7567 40.6846 47.0967 42.2817 46.0408 43.6076C44.9849 44.9335 43.576 45.9344 41.9764 46.4949C40.3768 47.0555 38.6514 47.1529 36.9988 46.7761C35.3462 46.3993 33.8336 45.5636 32.635 44.365C31.4365 43.1665 30.6007 41.6539 30.2239 40.0013C29.8471 38.3487 29.9446 36.6233 30.5051 35.0237C31.0657 33.424 32.0665 32.0152 33.3924 30.9593Z" stroke="white" stroke-width="2" stroke-linecap="round" stroke-linejoin="round"/>
<path d="M42 35H47.488C47.0391 33.7346 46.3135 32.5853 45.3641 31.6359C44.4147 30.6865 43.2654 29.9609 42 29.512V35Z" stroke="white" stroke-width="2" stroke-linecap="round" stroke-linejoin="round"/>
</g>
<defs>
<clipPath id="clip0_757_18558">
<rect width="72" height="72" fill="white" transform="translate(0 0.120728)"/>
</clipPath>
</defs>
</svg>
