<svg width="72" height="73" viewBox="0 0 72 73" fill="none" xmlns="http://www.w3.org/2000/svg">
<g clip-path="url(#clip0_757_18567)">
<path d="M26.684 52.169L8.41694 36.5876C5.50983 34.1079 6.25198 29.3355 9.75608 27.9987L31.7622 19.6031L53.7684 11.2075C57.2725 9.87074 60.9075 12.9726 60.3105 16.7891L56.5709 40.763L52.8312 64.737C52.2372 68.553 47.857 70.224 44.9499 67.7442L26.6829 52.1629L26.684 52.169Z" fill="#FEC560"/>
<path d="M36.663 43H41.336M39 29V30M45.364 31.636L44.657 32.343M48 38H47M31 38H30M33.343 32.343L32.636 31.636M35.464 41.536C34.7649 40.8367 34.2888 39.9458 34.096 38.9759C33.9032 38.006 34.0023 37.0008 34.3807 36.0872C34.7592 35.1737 35.4001 34.3928 36.2223 33.8435C37.0445 33.2941 38.0111 33.0009 39 33.0009C39.9889 33.0009 40.9555 33.2941 41.7777 33.8435C42.5999 34.3928 43.2408 35.1737 43.6193 36.0872C43.9977 37.0008 44.0968 38.006 43.904 38.9759C43.7112 39.9458 43.2351 40.8367 42.536 41.536L41.988 42.083C41.6747 42.3963 41.4262 42.7683 41.2567 43.1777C41.0872 43.5871 40.9999 44.0259 41 44.469V45C41 45.5304 40.7893 46.0391 40.4142 46.4142C40.0391 46.7893 39.5304 47 39 47C38.4696 47 37.9609 46.7893 37.5858 46.4142C37.2107 46.0391 37 45.5304 37 45V44.469C37 43.574 36.644 42.715 36.012 42.083L35.464 41.536Z" stroke="white" stroke-width="2" stroke-linecap="round" stroke-linejoin="round"/>
</g>
<defs>
<clipPath id="clip0_757_18567">
<rect width="72" height="72" fill="white" transform="translate(0 0.120728)"/>
</clipPath>
</defs>
</svg>
