<svg width="72" height="73" viewBox="0 0 72 73" fill="none" xmlns="http://www.w3.org/2000/svg">
<g clip-path="url(#clip0_862_201)">
<path d="M26.684 52.169L8.41694 36.5876C5.50983 34.1079 6.25198 29.3355 9.75608 27.9987L31.7622 19.6031L53.7684 11.2075C57.2725 9.87074 60.9075 12.9726 60.3105 16.7891L56.5709 40.763L52.8312 64.737C52.2372 68.553 47.857 70.224 44.9499 67.7442L26.6829 52.1629L26.684 52.169Z" fill="#4099D4"/>
<path d="M31.1716 41.8284C30.4214 41.0783 30 40.0608 30 39C30 38.0919 30.3088 37.2108 30.8758 36.5015C31.4428 35.7922 32.2342 35.2969 33.12 35.097C32.9679 34.4495 32.9465 33.7782 33.057 33.1223C33.1674 32.4664 33.4076 31.8391 33.7634 31.2772C34.1193 30.7153 34.5836 30.2299 35.1292 29.8496C35.6749 29.4693 36.2909 29.2016 36.9413 29.0622C37.5916 28.9229 38.2632 28.9146 38.9168 29.0379C39.5704 29.1612 40.1928 29.4136 40.7477 29.7804C41.3026 30.1471 41.7787 30.6209 42.1483 31.1739C42.5178 31.7269 42.7734 32.348 42.9 33.001C43.5607 32.9878 44.2174 33.1056 44.8323 33.3478C45.4471 33.59 46.0079 33.9516 46.4821 34.4118C46.9563 34.872 47.3346 35.4217 47.5951 36.029C47.8556 36.6363 47.9931 37.2892 47.9997 37.95C48.0064 38.6108 47.8819 39.2663 47.6336 39.8787C47.3853 40.4911 47.0181 41.0482 46.5532 41.5178C46.0882 41.9874 45.5348 42.3602 44.925 42.6146C44.3151 42.869 43.6608 43 43 43H34C32.9391 43 31.9217 42.5785 31.1716 41.8284Z" stroke="white" stroke-width="2" stroke-linecap="round" stroke-linejoin="round"/>
</g>
<defs>
<clipPath id="clip0_862_201">
<rect width="72" height="72" fill="white" transform="translate(0 0.120728)"/>
</clipPath>
</defs>
</svg>
