<svg id="Layer_1" enable-background="new 0 0 480 480" height="512" viewBox="0 0 480 480" width="512" xmlns="http://www.w3.org/2000/svg"><g><path d="m240 68.871c-27.488 0-53.744 6.322-78.036 18.79-3.931 2.018-5.481 6.839-3.464 10.77 2.017 3.93 6.837 5.484 10.771 3.464 22.008-11.296 45.806-17.024 70.729-17.024 85.538 0 155.129 69.59 155.129 155.129s-69.591 155.129-155.129 155.129-155.129-69.59-155.129-155.129c0-44.422 19.1-86.792 52.401-116.244 3.31-2.927 3.62-7.983.692-11.292-2.927-3.31-7.983-3.62-11.292-.693-36.733 32.488-57.801 79.226-57.801 128.229 0 94.361 76.769 171.129 171.129 171.129s171.129-76.768 171.129-171.129-76.769-171.129-171.129-171.129z"/><path d="m355.796 286.305c4.196 1.373 8.718-.917 10.09-5.118 27.941-85.44-35.983-173.606-125.886-173.606-73.016 0-132.419 59.403-132.419 132.419s59.403 132.419 132.419 132.419c40.592 0 78.382-18.238 103.681-50.039 2.75-3.458 2.178-8.49-1.28-11.241-3.456-2.751-8.489-2.179-11.241 1.28-22.245 27.962-55.472 44-91.159 44-64.193 0-116.419-52.226-116.419-116.419s52.225-116.419 116.418-116.419c79.028 0 135.242 77.508 110.679 152.634-1.373 4.199.918 8.717 5.117 10.09z"/><path d="m473.176 209.345-23.768-3.533c-5.245-32.297-17.999-63.072-37.172-89.695l14.32-19.321c2.36-3.185 2.033-7.618-.77-10.42l-32.162-32.162c-2.805-2.805-7.238-3.129-10.421-.771l-19.321 14.321c-26.622-19.173-57.396-31.927-89.694-37.172l-3.533-23.768c-.583-3.921-3.949-6.824-7.913-6.824h-45.484c-3.964 0-7.33 2.903-7.913 6.824l-3.533 23.768c-32.298 5.245-63.072 17.999-89.694 37.172l-19.322-14.321c-3.184-2.36-7.616-2.034-10.421.771l-32.162 32.161c-2.803 2.803-3.13 7.236-.77 10.42l14.32 19.321c-19.173 26.623-31.927 57.398-37.172 89.695l-23.768 3.533c-3.92.584-6.823 3.95-6.823 7.914v45.484c0 3.964 2.903 7.33 6.824 7.913l23.768 3.533c5.245 32.296 18.001 63.074 37.172 89.695l-14.32 19.321c-2.36 3.185-2.033 7.618.77 10.42l32.162 32.162c2.805 2.804 7.239 3.129 10.421.771l19.32-14.321c26.623 19.171 57.4 31.927 89.695 37.172l3.533 23.768c.583 3.921 3.949 6.824 7.913 6.824h45.484c3.964 0 7.33-2.903 7.913-6.824l3.533-23.768c32.295-5.245 63.072-18.001 89.695-37.172l19.32 14.321c3.185 2.359 7.616 2.034 10.421-.771l32.162-32.162c2.803-2.803 3.13-7.236.77-10.42l-14.32-19.321c19.171-26.621 31.927-57.399 37.172-89.695l23.768-3.533c3.921-.583 6.824-3.949 6.824-7.913v-45.484c0-3.964-2.903-7.33-6.824-7.913zm-9.176 46.498-21.673 3.222c-3.964.02-7.357 2.963-7.886 6.95-4.478 33.801-17.841 66.02-38.646 93.172-2.562 3.345-2.092 8.104 1.078 10.882.138.12-.942-1.316 12.722 17.12l-22.405 22.406-17.042-12.631c-2.591-3.139-7.479-3.837-10.96-1.168-27.154 20.805-59.373 34.169-93.174 38.646-3.88.514-6.736 3.742-6.901 7.568l-3.269 21.99h-31.688l-3.221-21.666c-.016-3.967-2.96-7.364-6.949-7.893-33.801-4.478-66.02-17.841-93.174-38.646-3.344-2.563-8.105-2.092-10.882 1.078-.126.143 1.316-.942-17.12 12.722l-22.405-22.406 12.631-17.042c3.315-2.834 3.707-7.647 1.169-10.96-20.806-27.152-34.169-59.371-38.646-93.172-.514-3.879-3.739-6.735-7.563-6.902l-21.996-3.27v-31.687l21.673-3.222c3.964-.02 7.357-2.963 7.886-6.95 4.477-33.8 17.841-66.018 38.646-93.172 2.562-3.345 2.092-8.105-1.078-10.882-.148-.133.917 1.282-12.722-17.12l22.405-22.406 17.044 12.633c2.8 3.283 7.617 3.726 10.96 1.167 27.152-20.805 59.371-34.169 93.172-38.646 3.88-.514 6.736-3.742 6.901-7.568l3.269-21.99h31.688l3.221 21.666c.016 3.967 2.96 7.364 6.949 7.893 33.801 4.478 66.02 17.841 93.172 38.646 3.343 2.561 8.095 2.094 10.874-1.067.141-.158-1.252.893 17.13-12.732l22.405 22.406-12.631 17.042c-3.314 2.833-3.708 7.646-1.169 10.96 20.806 27.154 34.17 59.372 38.646 93.172.528 3.987 3.922 6.931 7.886 6.95l21.673 3.221z"/><path d="m164.97 278.7c0 2.858 1.524 5.499 4 6.928 11.432 6.599 66.302 38.284 67.093 38.731 2.483 1.408 5.509 1.364 7.937-.031l67.03-38.7c2.476-1.429 4-4.07 4-6.928v-77.4c0-2.833-1.534-5.504-4-6.928l-67.03-38.7c-2.475-1.429-5.525-1.429-8 0l-67.03 38.7c-2.526 1.466-4 4.166-4 6.928zm16-63.544 51.03 29.463v58.925l-51.03-29.462zm67.03 88.388v-58.925l51.03-29.463v58.925zm-8-131.707 51.03 29.462-51.03 29.463-51.03-29.462z"/></g></svg>