<svg height="512" viewBox="0 0 64 64" width="512" xmlns="http://www.w3.org/2000/svg"><g id="Working_Hour" data-name="Working Hour"><path d="m36.52832 40.2041a.99924.99924 0 0 1 -.86426-.4956l-4.09863-7.01319a3.15825 3.15825 0 0 1 -.43213-1.59424v-10.57807a1 1 0 0 1 2 0v10.57807a1.15765 1.15765 0 0 0 .15869.585l4.09864 7.01367a1.0001 1.0001 0 0 1 -.86231 1.50439z"/><path d="m48.87946 41.24115a19.15324 19.15324 0 0 0 0-19.11023.9308.9308 0 0 0 -.0318-.09479.9409.9409 0 0 0 -.08313-.09417 19.41548 19.41548 0 0 0 -6.88727-6.88727.28586.28586 0 0 0 -.18927-.11511 19.15344 19.15344 0 0 0 -19.10907-.00013.28645.28645 0 0 0 -.18958.11524 19.41534 19.41534 0 0 0 -6.888 6.88843.93774.93774 0 0 0 -.08191.093.92749.92749 0 0 0 -.03131.09308 19.15334 19.15334 0 0 0 0 19.11365.92749.92749 0 0 0 .03131.09308.99041.99041 0 0 0 .11835.15295 19.41547 19.41547 0 0 0 6.85156 6.82849.93923.93923 0 0 0 .09406.083.97419.97419 0 0 0 .13153.0542 19.1618 19.1618 0 0 0 19.03674 0 .97365.97365 0 0 0 .13153-.0542.93812.93812 0 0 0 .09406-.083 19.4148 19.4148 0 0 0 6.84979-6.82556.98539.98539 0 0 0 .12061-.15588.9308.9308 0 0 0 .0318-.09478zm-7.25129 4.89008-1.09838-1.90271a1.00016 1.00016 0 1 0 -1.73243 1l1.09552 1.8977a17.15294 17.15294 0 0 1 -6.75958 1.809v-2.1886a1 1 0 0 0 -2 0v2.1886a17.15265 17.15265 0 0 1 -6.75952-1.809l1.09546-1.8977a1.00016 1.00016 0 1 0 -1.73242-1l-1.09839 1.90271a17.42715 17.42715 0 0 1 -4.9502-4.9502l1.90259-1.09851a1.00016 1.00016 0 0 0 -1-1.73242l-1.89764 1.09564a17.15361 17.15361 0 0 1 -1.809-6.7597h2.18908a1 1 0 0 0 0-2h-2.1891a17.15362 17.15362 0 0 1 1.809-6.75971l1.89766 1.09567a1.00016 1.00016 0 0 0 1-1.73242l-1.90259-1.09858a17.42715 17.42715 0 0 1 4.9502-4.9502l1.09839 1.90271a1.00016 1.00016 0 1 0 1.73242-1l-1.09552-1.8977a17.15294 17.15294 0 0 1 6.75958-1.809v2.18919a1 1 0 0 0 2 0v-2.18911a17.15294 17.15294 0 0 1 6.75958 1.809l-1.09552 1.8977a1.00016 1.00016 0 0 0 1.73243 1l1.09838-1.90271a17.42773 17.42773 0 0 1 4.95032 4.95032l-1.90271 1.09839a1.00016 1.00016 0 0 0 1 1.73242l1.89771-1.09552a17.15332 17.15332 0 0 1 1.809 6.75959h-2.1886a1 1 0 0 0 0 2h2.1886a17.15332 17.15332 0 0 1 -1.809 6.75958l-1.89771-1.09556a1.00016 1.00016 0 0 0 -1 1.73242l1.90271 1.09839a17.42773 17.42773 0 0 1 -4.95032 4.95032z"/><path d="m57.85571 48.22064-3.77008.9751a27.96 27.96 0 1 0 -22.46551 10.80426h.01367a1 1 0 0 0 .01269-2 26.00972 26.00972 0 1 1 20.86852-10.04169l.306-3.929a.99981.99981 0 0 0 -1.99359-.15522l-.483 6.19782a1.58046 1.58046 0 0 0 1.97138 1.64758l6.04028-1.56219a1.00012 1.00012 0 0 0 -.50037-1.93665z"/></g></svg>