<svg width="55" height="56" viewBox="0 0 55 56" fill="none" xmlns="http://www.w3.org/2000/svg">
<g id="63d92f202436dcb35aed29c0_embed 1">
<path id="Vector" d="M26.5857 27.8728L5.16786 38.5836C4.71748 38.8089 4.71748 39.4515 5.16786 39.6767L26.5857 50.3875C27.1593 50.6744 27.8342 50.6744 28.4078 50.3877L49.8333 39.6767C50.2839 39.4517 50.2839 38.8086 49.8333 38.5836L28.4078 27.8726C27.8342 27.5859 27.1593 27.5859 26.5857 27.8728Z" fill="#4099D4"/>
<path id="Vector_2" fill-rule="evenodd" clip-rule="evenodd" d="M28.2248 28.2372C27.766 28.0078 27.2261 28.0078 26.7673 28.2372L5.34928 38.948C5.19917 39.0231 5.19917 39.2374 5.34928 39.3126L26.7673 50.0234C27.2261 50.2528 27.766 50.2528 28.2248 50.0234L49.6505 39.3126C49.8006 39.2374 49.8006 39.0231 49.6505 38.948L28.2248 28.2372ZM26.4029 27.5084C27.0911 27.1645 27.9009 27.1642 28.5891 27.5084L50.0146 38.2192C50.7656 38.5946 50.7656 39.666 50.0146 40.0413L28.5891 50.7521C27.9009 51.0963 27.0911 51.0961 26.4029 50.7521L4.98483 40.0413C4.23422 39.666 4.23422 38.5946 4.98483 38.2192L26.4029 27.5084Z" fill="#222222"/>
<path id="Vector_3" d="M26.5857 16.2622L5.16786 26.9731C4.71748 27.1983 4.71748 27.8409 5.16786 28.0662L26.5857 38.777C27.1593 39.0639 27.8342 39.0639 28.4078 38.7772L49.8333 28.0662C50.2839 27.8412 50.2839 27.1981 49.8333 26.9731L28.4078 16.2621C27.8342 15.9754 27.1593 15.9755 26.5857 16.2622Z" fill="url(#paint0_linear_2559_17382)"/>
<path id="Vector_4" fill-rule="evenodd" clip-rule="evenodd" d="M28.2248 16.6267C27.766 16.3974 27.2261 16.3974 26.7673 16.6268L5.34928 27.3375C5.19917 27.4127 5.19917 27.627 5.34928 27.7019L26.7673 38.4129C27.2261 38.6423 27.766 38.6423 28.2248 38.4129L49.6505 27.7019C49.8006 27.627 49.8006 27.4127 49.6505 27.3375L28.2248 16.6267ZM26.4029 15.898C27.0911 15.5539 27.9009 15.5538 28.5891 15.8979L50.0146 26.6088C50.7656 26.9842 50.7656 28.0555 50.0146 28.4309L28.5891 39.1417C27.9009 39.4859 27.0911 39.4857 26.4029 39.1417L4.98483 28.4309C4.23422 28.0555 4.23422 26.9842 4.98483 26.6088L26.4029 15.898Z" fill="#222222"/>
<path id="Vector_5" d="M26.5857 4.65066L5.16786 15.3615C4.71748 15.5867 4.71748 16.2294 5.16786 16.4546L26.5857 27.1654C27.1593 27.4523 27.8342 27.4523 28.4078 27.1656L49.8333 16.4547C50.2839 16.2295 50.2839 15.5867 49.8333 15.3615L28.4078 4.65055C27.8342 4.36384 27.1593 4.36388 26.5857 4.65066Z" fill="white"/>
<path id="Vector_6" fill-rule="evenodd" clip-rule="evenodd" d="M28.2248 5.01502C27.766 4.78565 27.2261 4.78569 26.7673 5.01511L5.34928 15.7259C5.19917 15.801 5.19917 16.0152 5.34928 16.0903L26.7673 26.8012C27.2261 27.0306 27.766 27.0306 28.2248 26.8012L49.6505 16.0903C49.8006 16.0153 49.8006 15.801 49.6505 15.7259L28.2248 5.01502ZM26.4029 4.28634C27.0911 3.9422 27.9009 3.94215 28.5891 4.2862L50.0146 14.9971C50.7656 15.3724 50.7656 16.4438 50.0146 16.8191L28.5891 27.53C27.9009 27.8742 27.0911 27.874 26.4029 27.53L4.98483 16.8191C4.23422 16.4437 4.23422 15.3726 4.98483 14.9972L26.4029 4.28634Z" fill="#222222"/>
</g>
<defs>
<linearGradient id="paint0_linear_2559_17382" x1="50.1711" y1="27.5196" x2="4.83007" y2="27.5196" gradientUnits="userSpaceOnUse">
<stop stop-color="#6F2B8C"/>
<stop offset="1" stop-color="#3F93FF"/>
</linearGradient>
</defs>
</svg>
