<svg width="64" height="65" viewBox="0 0 64 65" fill="none" xmlns="http://www.w3.org/2000/svg">
<g filter="url(#filter0_d_151_417)">
<rect x="4" y="0.120605" width="56" height="56" rx="28" fill="white"/>
</g>
<g clip-path="url(#clip0_151_417)">
<path d="M35.9697 31.008H41.5445V35.3015C41.5445 36.8603 40.2763 38.1285 38.7175 38.1285V41.4708C38.7175 41.8539 39.061 42.1577 39.4441 42.1181C42.8788 41.7614 45.5737 38.8419 45.5737 35.3015V21.2059C45.5737 20.4661 44.9661 19.8584 44.2263 19.8584H35.9697C35.045 19.8584 34.292 20.6114 34.292 21.5361V29.3303C34.292 30.2551 35.045 31.008 35.9697 31.008Z" fill="#6F2B8C"/>
<path d="M20.1035 31.008H25.6783V35.3015C25.6783 36.8603 24.4101 38.1285 22.8513 38.1285V41.4708C22.8513 41.8539 23.1948 42.1577 23.5779 42.1181C27.0126 41.7614 29.7075 38.8419 29.7075 35.3015V21.2059C29.7075 20.4661 29.0999 19.8584 28.3601 19.8584H20.1035C19.1788 19.8584 18.4258 20.6114 18.4258 21.5361V29.3303C18.4258 30.2551 19.1788 31.008 20.1035 31.008Z" fill="#6F2B8C"/>
</g>
<defs>
<filter id="filter0_d_151_417" x="0" y="0.120605" width="64" height="64" filterUnits="userSpaceOnUse" color-interpolation-filters="sRGB">
<feFlood flood-opacity="0" result="BackgroundImageFix"/>
<feColorMatrix in="SourceAlpha" type="matrix" values="0 0 0 0 0 0 0 0 0 0 0 0 0 0 0 0 0 0 127 0" result="hardAlpha"/>
<feOffset dy="4"/>
<feGaussianBlur stdDeviation="2"/>
<feComposite in2="hardAlpha" operator="out"/>
<feColorMatrix type="matrix" values="0 0 0 0 0 0 0 0 0 0 0 0 0 0 0 0 0 0 0.25 0"/>
<feBlend mode="normal" in2="BackgroundImageFix" result="effect1_dropShadow_151_417"/>
<feBlend mode="normal" in="SourceGraphic" in2="effect1_dropShadow_151_417" result="shape"/>
</filter>
<clipPath id="clip0_151_417">
<rect width="27.1475" height="22.2597" fill="white" transform="translate(18.4258 19.8584)"/>
</clipPath>
</defs>
</svg>
