<svg width="28" height="24" viewBox="0 0 28 24" fill="none" xmlns="http://www.w3.org/2000/svg">
<g id="OBJECTS" clip-path="url(#clip0_151_436)">
<path id="Vector" d="M17.9697 12.008H23.5446V16.3015C23.5446 17.8603 22.2763 19.1285 20.7175 19.1285V22.4708C20.7175 22.8539 21.061 23.1577 21.4441 23.1181C24.8788 22.7614 27.5738 19.8419 27.5738 16.3015V2.20587C27.5738 1.46608 26.9661 0.858398 26.2263 0.858398H17.9697C17.045 0.858398 16.292 1.6114 16.292 2.53613V10.3303C16.292 11.2551 17.045 12.008 17.9697 12.008Z" fill="#4099D4"/>
<path id="Vector_2" d="M2.10394 12.008H7.67876V16.3015C7.67876 17.8603 6.41056 19.1285 4.85172 19.1285V22.4708C4.85172 22.8539 5.19519 23.1577 5.5783 23.1181C9.01302 22.7614 11.708 19.8419 11.708 16.3015V2.20587C11.708 1.46608 11.1003 0.858398 10.3605 0.858398H2.10394C1.17921 0.858398 0.426208 1.6114 0.426208 2.53613V10.3303C0.426208 11.2551 1.17921 12.008 2.10394 12.008Z" fill="#4099D4"/>
</g>
<defs>
<clipPath id="clip0_151_436">
<rect width="27.1475" height="22.2597" fill="white" transform="translate(0.426208 0.858398)"/>
</clipPath>
</defs>
</svg>
